<svg width="162" height="36" viewBox="0 0 162 36" fill="none" xmlns="http://www.w3.org/2000/svg">
<g clip-path="url(#clip0_13631_60924)">
<path d="M23.4595 20.1407C23.0685 20.1407 22.7752 19.8235 22.7752 19.4746C22.8078 18.7133 22.5146 18.0155 21.9607 17.4446C21.4394 16.9054 20.69 16.5882 19.9406 16.5565C19.1586 16.5565 18.4418 16.8103 17.8553 17.3495C17.3014 17.857 16.9756 18.5865 16.943 19.316C16.943 19.6649 16.6172 19.9504 16.2588 19.9504C16.2588 19.9504 16.2588 19.9504 16.2262 19.9504C15.8678 19.9504 15.5419 19.6332 15.5745 19.2843C15.6071 18.1741 16.0633 17.1592 16.8778 16.3662C17.6924 15.605 18.7676 15.1926 19.908 15.2244C21.0484 15.2561 22.091 15.7001 22.9056 16.4931C23.6876 17.286 24.1111 18.3327 24.0785 19.4429C24.1437 19.8552 23.8179 20.1407 23.4595 20.1407Z" fill="#0AD7FF"/>
<path d="M19.7116 26.6435C17.6915 26.6118 15.8343 25.7871 14.4659 24.3915C13.0974 22.9959 12.3806 21.1563 12.4132 19.2215C12.4458 17.2867 13.2929 15.4787 14.7265 14.1466C16.1602 12.8144 18.0499 12.0849 20.0375 12.1483C20.3959 12.1483 20.7217 12.4655 20.6891 12.8144C20.6891 13.1633 20.3633 13.4805 20.0049 13.4488C18.3758 13.4171 16.8118 13.988 15.6388 15.0981C14.4659 16.2083 13.7816 17.6673 13.7491 19.2532C13.7165 20.8391 14.303 22.3616 15.4433 23.5034C16.5837 24.6453 18.0825 25.3113 19.7116 25.3431C20.0701 25.3431 20.3959 25.6602 20.3633 26.0091C20.3959 26.358 20.1026 26.6435 19.7116 26.6435Z" fill="#1DCE6D"/>
<path d="M25.2523 28.2289C25.0242 28.2289 24.7961 28.1338 24.6658 27.9117C24.4703 27.5945 24.568 27.1822 24.8613 26.9919C27.4679 25.3743 29.0644 22.5831 29.1296 19.5699C29.2925 14.6219 25.2197 10.4668 20.1042 10.3399C17.1392 10.2765 14.272 11.6086 12.4799 13.9241C12.2519 14.2095 11.8283 14.273 11.5351 14.0509C11.2418 13.8289 11.1767 13.4166 11.4047 13.1311C13.4574 10.4668 16.7483 8.94433 20.1368 9.00777C26.0017 9.13464 30.6935 13.8923 30.5306 19.6333C30.4329 23.0906 28.6083 26.2624 25.6107 28.1338C25.5129 28.1972 25.3826 28.2289 25.2523 28.2289Z" fill="#652D90"/>
<path d="M11.4033 29.8785C11.2404 29.8785 11.1101 29.815 10.9798 29.7199C7.72153 27.0556 5.92949 23.186 6.02724 19.0626C6.19015 11.6406 12.5763 5.74102 20.2006 5.89961C24.0453 5.99476 27.6946 7.6441 30.236 10.4353C30.4967 10.7208 30.4641 11.1331 30.1708 11.3551C29.8776 11.6089 29.454 11.5771 29.2259 11.2917C26.9126 8.75423 23.6218 7.26349 20.168 7.20005C13.2931 7.04146 7.52603 12.3701 7.36312 19.0943C7.29795 22.8371 8.92708 26.326 11.8595 28.7366C12.1527 28.9586 12.1853 29.371 11.9572 29.6564C11.7943 29.815 11.5988 29.8785 11.4033 29.8785Z" fill="#F7C327"/>
<path d="M19.8758 36.0003C19.7454 36.0003 19.6151 36.0003 19.4848 36.0003C14.9232 35.9052 10.6875 34.0655 7.527 30.862C4.39908 27.6585 2.7048 23.44 2.83512 18.9995C2.96545 13.7025 5.73496 8.7228 10.2313 5.70958C10.5246 5.48756 10.9482 5.58271 11.1762 5.86817C11.4043 6.15364 11.3066 6.56597 11.0133 6.788C6.84277 9.57919 4.30134 14.1466 4.17101 19.0312C4.07326 23.1228 5.60463 26.9924 8.50447 29.9422C11.4043 32.892 15.3142 34.573 19.5173 34.6682C22.2869 34.7316 25.0238 34.0655 27.4349 32.7968C27.7607 32.6065 28.1843 32.7334 28.3472 33.0506C28.5427 33.3677 28.4124 33.7801 28.0865 33.9387C25.5777 35.3025 22.743 36.0003 19.8758 36.0003Z" fill="#6BB477"/>
<path d="M19.8758 36.0003C19.7454 36.0003 19.6151 36.0003 19.4848 36.0003C14.9232 35.9052 10.6875 34.0655 7.527 30.862C4.39908 27.6585 2.7048 23.44 2.83512 18.9995C2.96545 13.7025 5.73496 8.7228 10.2313 5.70958C10.5246 5.48756 10.9482 5.58271 11.1762 5.86817C11.4043 6.15364 11.3066 6.56597 11.0133 6.788C6.84277 9.57919 4.30134 14.1466 4.17101 19.0312C4.07326 23.1228 5.60463 26.9924 8.50447 29.9422C11.4043 32.892 15.3142 34.573 19.5173 34.6682C22.2869 34.7316 25.0238 34.0655 27.4349 32.7968C27.7607 32.6065 28.1843 32.7334 28.3472 33.0506C28.5427 33.3677 28.4124 33.7801 28.0865 33.9387C25.5777 35.3025 22.743 36.0003 19.8758 36.0003Z" fill="#FF5100"/>
<path d="M0.684232 20.0458C0.325825 20.0458 0 19.7604 0 19.3797C0 15.5419 1.14039 11.8308 3.32341 8.65903C5.34352 5.70925 8.1782 3.3304 11.469 1.83965C14.1408 0.602643 16.9755 0 19.9079 0C20.2663 0 20.5921 0.285463 20.5921 0.666079C20.5921 1.01498 20.2989 1.33216 19.9079 1.33216C17.171 1.33216 14.5318 1.90308 12.0555 3.01322C8.96018 4.40881 6.35358 6.62908 4.4638 9.38855C2.44368 12.37 1.36846 15.8273 1.36846 19.4115C1.36846 19.7604 1.04264 20.0458 0.684232 20.0458Z" fill="#10CFC9"/>
<mask id="mask0_13631_60924" style="mask-type:luminance" maskUnits="userSpaceOnUse" x="34" y="6" width="14" height="21">
<path d="M36.9819 20.0145C36.9819 17.6991 38.7413 16.1766 40.8918 16.1766C42.8467 16.1766 44.8668 17.5405 44.8668 20.0145C44.8668 22.4885 43.0096 23.9475 40.8918 23.9475C38.7413 23.9475 36.9819 22.3616 36.9819 20.0145ZM44.932 8.1202V15.5422C44.1174 14.1466 42.3906 13.4488 40.5659 13.4488C37.047 13.4488 34.082 15.9863 34.082 20.0462C34.082 24.0427 37.0796 26.6436 40.5985 26.6436C42.358 26.6436 44.1174 25.8823 44.932 24.5184V25.0894C44.932 25.8506 45.5836 26.485 46.3982 26.485C47.1802 26.485 47.7992 25.8189 47.7992 25.0894V8.1202C47.7992 7.35897 47.1802 6.72461 46.3982 6.72461C45.5511 6.72461 44.932 7.39069 44.932 8.1202Z" fill="white"/>
</mask>
<g mask="url(#mask0_13631_60924)">
<path d="M47.7992 6.72461H34.082V26.6753H47.7992V6.72461Z" fill="#FF5100"/>
</g>
<mask id="mask1_13631_60924" style="mask-type:luminance" maskUnits="userSpaceOnUse" x="50" y="13" width="15" height="14">
<path d="M57.6384 15.9227C59.5933 15.9227 61.0595 17.0646 61.3528 19.0311H53.8262C54.0869 17.0646 55.6509 15.9227 57.6384 15.9227ZM50.959 20.0143C50.959 24.0108 53.924 26.6434 57.6384 26.6434C59.5608 26.6434 61.4505 25.9773 62.7538 24.6452C63.2426 24.1377 63.2426 23.2813 62.6887 22.869C62.1022 22.3932 61.3202 22.5835 60.8641 22.9641C59.9192 23.7254 59.1372 24.1694 57.7687 24.1694C55.6834 24.1694 54.0543 22.9641 53.7937 20.9976H62.8516C63.5358 20.9976 64.1549 20.4584 64.1549 19.7289C64.0571 15.8593 61.255 13.417 57.6384 13.417C53.9566 13.4804 50.959 16.0179 50.959 20.0143Z" fill="white"/>
</mask>
<g mask="url(#mask1_13631_60924)">
<path d="M64.1549 13.4805H50.959V26.6752H64.1549V13.4805Z" fill="#FF5100"/>
</g>
<mask id="mask2_13631_60924" style="mask-type:luminance" maskUnits="userSpaceOnUse" x="65" y="6" width="10" height="21">
<path d="M73.2456 6.85105C69.6941 6.85105 68.065 9.10304 68.065 12.5603V13.7339H66.6313C65.9797 13.7339 65.4258 14.2414 65.4258 14.9392C65.4258 15.5735 65.9797 16.0493 66.6313 16.0493H68.065V25.1207C68.065 25.8819 68.7166 26.5163 69.5312 26.5163C70.3131 26.5163 70.9322 25.8502 70.9322 25.1207V16.0493H72.7894C73.4411 16.0493 73.995 15.5735 73.995 14.9392C73.995 14.2731 73.4411 13.7339 72.7894 13.7339H70.9322V12.5603C70.9322 10.9744 71.3558 9.51537 73.2456 9.51537H73.4736C74.223 9.51537 74.8747 8.91273 74.8747 8.11978C74.8747 7.39026 74.223 6.81934 73.4736 6.81934H73.2456V6.85105Z" fill="white"/>
</mask>
<g mask="url(#mask2_13631_60924)">
<path d="M74.8415 6.85059H65.3926V26.5158H74.8415V6.85059Z" fill="#FF5100"/>
</g>
<mask id="mask3_13631_60924" style="mask-type:luminance" maskUnits="userSpaceOnUse" x="75" y="13" width="14" height="14">
<path d="M78.1335 20.0139C78.1335 17.6985 79.9255 16.176 82.0434 16.176C84.2264 16.176 86.0185 17.6985 86.0185 20.0139C86.0185 22.3927 84.1938 23.9469 82.0434 23.9469C79.9255 23.9469 78.1335 22.4245 78.1335 20.0139ZM75.2988 20.0139C75.2988 24.0104 78.3942 26.643 82.076 26.643C85.7904 26.643 88.8857 24.0104 88.8857 20.0139C88.8857 16.0174 85.7578 13.4482 82.076 13.4482C78.3942 13.48 75.2988 16.0174 75.2988 20.0139Z" fill="white"/>
</mask>
<g mask="url(#mask3_13631_60924)">
<path d="M88.8857 13.4795H75.2988V26.6742H88.8857V13.4795Z" fill="#FF5100"/>
</g>
<mask id="mask4_13631_60924" style="mask-type:luminance" maskUnits="userSpaceOnUse" x="91" y="13" width="13" height="14">
<path d="M94.8477 15.6373V15.0029C94.8477 14.2417 94.2287 13.6073 93.4467 13.6073C92.5995 13.6073 91.9805 14.2734 91.9805 15.0029V25.121C91.9805 25.8822 92.5995 26.5166 93.3815 26.5166C94.2287 26.5166 94.8477 25.8505 94.8477 25.121V19.6021C94.8477 17.0963 96.4768 16.2082 98.1711 16.2082C99.8328 16.2082 100.908 17.3501 100.908 19.3483V25.121C100.908 25.8822 101.527 26.5166 102.309 26.5166C103.156 26.5166 103.775 25.8505 103.775 25.121V19.0311C103.775 15.447 101.951 13.4805 98.8228 13.4805C97.3892 13.4805 95.5971 14.1783 94.8477 15.6373Z" fill="white"/>
</mask>
<g mask="url(#mask4_13631_60924)">
<path d="M103.775 13.4805H91.9805V26.5483H103.775V13.4805Z" fill="#FF5100"/>
</g>
<mask id="mask5_13631_60924" style="mask-type:luminance" maskUnits="userSpaceOnUse" x="106" y="8" width="9" height="19">
<path d="M108.533 10.213V13.7337H107.262C106.611 13.7337 106.057 14.2412 106.057 14.939C106.057 15.5733 106.611 16.0491 107.262 16.0491H108.533V25.1205C108.533 25.8817 109.152 26.5161 109.934 26.5161C110.781 26.5161 111.4 25.85 111.4 25.1205V16.0491H113.094C113.746 16.0491 114.3 15.5733 114.3 14.939C114.3 14.2729 113.746 13.7337 113.094 13.7337H111.4V10.213C111.4 9.45174 110.749 8.81738 109.934 8.81738C109.152 8.81738 108.533 9.45174 108.533 10.213Z" fill="white"/>
</mask>
<g mask="url(#mask5_13631_60924)">
<path d="M114.3 8.81738H106.057V26.5478H114.3V8.81738Z" fill="#FF5100"/>
</g>
<mask id="mask6_13631_60924" style="mask-type:luminance" maskUnits="userSpaceOnUse" x="115" y="13" width="15" height="14">
<path d="M118.633 20.0144C118.633 17.699 120.458 16.1765 122.608 16.1765C124.563 16.1765 126.616 17.5404 126.616 20.0144C126.616 22.5201 124.726 23.9474 122.608 23.9474C120.425 23.9474 118.633 22.3615 118.633 20.0144ZM115.668 20.0461C115.668 24.0743 118.763 26.6435 122.25 26.6435C123.879 26.6435 125.769 25.9457 126.616 24.5501V25.0893C126.616 25.8505 127.235 26.4849 128.017 26.4849C128.864 26.4849 129.483 25.8188 129.483 25.0893V15.0029C129.483 14.2417 128.831 13.6073 128.017 13.6073C127.235 13.6073 126.616 14.2734 126.616 15.0029V15.5421C125.736 14.1148 123.814 13.4805 122.25 13.4805C118.763 13.4805 115.668 16.0179 115.668 20.0461Z" fill="white"/>
</mask>
<g mask="url(#mask6_13631_60924)">
<path d="M129.516 13.4805H115.668V26.6752H129.516V13.4805Z" fill="#FF5100"/>
</g>
<mask id="mask7_13631_60924" style="mask-type:luminance" maskUnits="userSpaceOnUse" x="133" y="13" width="13" height="14">
<path d="M136.227 15.6373V15.0029C136.227 14.2417 135.608 13.6073 134.826 13.6073C133.978 13.6073 133.359 14.2734 133.359 15.0029V25.121C133.359 25.8822 133.978 26.5166 134.76 26.5166C135.608 26.5166 136.227 25.8505 136.227 25.121V19.6021C136.227 17.0963 137.856 16.2082 139.55 16.2082C141.212 16.2082 142.287 17.3501 142.287 19.3483V25.121C142.287 25.8822 142.906 26.5166 143.688 26.5166C144.535 26.5166 145.154 25.8505 145.154 25.121V19.0311C145.154 15.447 143.33 13.4805 140.202 13.4805C138.735 13.4805 136.976 14.1783 136.227 15.6373Z" fill="white"/>
</mask>
<g mask="url(#mask7_13631_60924)">
<path d="M145.154 13.4805H133.359V26.5483H145.154V13.4805Z" fill="#FF5100"/>
</g>
<mask id="mask8_13631_60924" style="mask-type:luminance" maskUnits="userSpaceOnUse" x="148" y="13" width="14" height="14">
<path d="M151.117 20.0144C151.117 17.699 152.942 16.1765 155.092 16.1765C157.047 16.1765 159.1 17.5404 159.1 20.0144C159.1 22.5201 157.21 23.9474 155.092 23.9474C152.909 23.9474 151.117 22.3615 151.117 20.0144ZM148.152 20.0461C148.152 24.0743 151.248 26.6435 154.734 26.6435C156.363 26.6435 158.253 25.9457 159.1 24.5501V25.0893C159.1 25.8505 159.719 26.4849 160.501 26.4849C161.348 26.4849 161.967 25.8188 161.967 25.0893V15.0029C161.967 14.2417 161.316 13.6073 160.501 13.6073C159.719 13.6073 159.1 14.2734 159.1 15.0029V15.5421C158.22 14.1148 156.298 13.4805 154.734 13.4805C151.248 13.4805 148.152 16.0179 148.152 20.0461Z" fill="white"/>
</mask>
<g mask="url(#mask8_13631_60924)">
<path d="M162 13.4805H148.152V26.6752H162V13.4805Z" fill="#FF5100"/>
</g>
</g>
<defs>
<clipPath id="clip0_13631_60924">
<rect width="162" height="36" fill="white"/>
</clipPath>
</defs>
</svg>
