<?xml version="1.0" encoding="UTF-8"?>
<svg id="Capa_1" data-name="Capa 1" xmlns="http://www.w3.org/2000/svg" viewBox="0 0 452.31 360.55">
  <defs>
    <style>
      .cls-1 {
        fill: #fff;
      }
    </style>
  </defs>
  <path class="cls-1" d="M325.95,0h0c-70.58,0-127.94,57.16-127.94,127.74l-.29,3.68c-.14.08.14-.08,0,0,0,.13-.01.27-.02.4-.07.99-.14,1.98-.26,2.95-.18,1.55-.43,3.08-.72,4.6-.12.63-.23,1.25-.36,1.87-.43,1.92-.93,3.83-1.53,5.7-.05.16-.1.33-.15.49-.7,2.13-1.51,4.23-2.43,6.29-3.8,8.47-8.93,15.88-15.39,22.21-6.46,6.34-13.98,11.33-22.56,14.96-8.59,3.63-17.61,5.45-27.06,5.45-2.39,0-4.75-.11-7.08-.34h0c-2.3-.22-4.56-.56-6.79-1.01-.04,0-.09-.02-.14-.02-4.51-.91-8.88-2.26-13.13-4.07-2.09-.89-4.12-1.87-6.08-2.92-.07-.04-.13-.07-.2-.1-1.8-.97-3.54-2.03-5.24-3.14-.26-.17-.53-.34-.8-.52-1.52-1.03-2.99-2.12-4.43-3.26-.37-.29-.74-.58-1.11-.88-1.3-1.07-2.54-2.2-3.77-3.37-.46-.44-.92-.86-1.36-1.31-1.06-1.06-2.06-2.17-3.05-3.29-.55-.63-1.1-1.25-1.63-1.89-.83-1.02-1.62-2.07-2.4-3.13-.59-.8-1.17-1.61-1.73-2.44-.63-.94-1.22-1.92-1.81-2.89-.63-1.04-1.25-2.09-1.83-3.17-.41-.76-.79-1.54-1.17-2.32-.66-1.35-1.3-2.71-1.89-4.12-.27-.65-.51-1.31-.76-1.96-.56-1.47-1.09-2.96-1.54-4.46-.25-.83-.46-1.67-.67-2.51-.34-1.32-.66-2.64-.91-3.98-.2-1.05-.35-2.11-.49-3.17-.17-1.19-.32-2.38-.43-3.59-.1-1.15-.14-2.31-.18-3.48-.04-1.21-.08-2.42-.05-3.65.02-1.08.09-2.15.16-3.22.09-1.3.18-2.6.34-3.88.13-1.07.31-2.12.5-3.18.2-1.18.42-2.36.68-3.52.28-1.21.61-2.4.96-3.58.28-.95.55-1.9.87-2.84.47-1.37,1.01-2.72,1.57-4.06.32-.76.63-1.53.98-2.28.59-1.28,1.23-2.52,1.89-3.74.46-.86.91-1.72,1.4-2.55.58-.99,1.2-1.95,1.82-2.9.65-1,1.31-2,2.01-2.96.57-.79,1.18-1.55,1.78-2.31.81-1.02,1.63-2.04,2.5-3.02.58-.65,1.19-1.28,1.79-1.92.99-1.03,1.99-2.05,3.04-3.02.51-.48,1.05-.93,1.57-1.39,1.23-1.07,2.47-2.12,3.77-3.1.38-.29.77-.57,1.16-.85,1.5-1.1,3.03-2.15,4.61-3.13.2-.12.4-.24.61-.36,3.73-2.26,7.68-4.22,11.88-5.86,8.63-3.36,17.71-4.87,27.24-4.54h0s0-.02,0-.02c2.32.08,4.62.27,6.88.58v.02c5.05.68,9.95,1.92,14.71,3.7.25.09.5.18.75.28,1.53.59,3.05,1.23,4.55,1.94.02,0,.03.02.05.02,8.43,4,15.76,9.25,21.97,15.75,2,2.09,3.8,4.33,5.51,6.63,6.92-23.94,19.71-42.12,28.66-52.69-6.58-5.95-13.69-11.22-21.42-15.7-9.45-5.47-19.6-9.71-30.43-12.71C150.13,1.96,138.89.46,127.25.46s-22.88,1.5-33.71,4.49c-3.85,1.07-7.59,2.35-11.27,3.72-.14.05-.28.11-.42.16-2.38.9-4.71,1.86-7.02,2.89-.26.12-.52.24-.78.35-2.21,1.01-4.39,2.07-6.53,3.2-.13.07-.26.12-.39.19-.17.09-.33.19-.5.29-1.18.63-2.38,1.23-3.53,1.9-.88.51-1.72,1.08-2.58,1.61-.36.22-.71.44-1.06.66-1.92,1.2-3.8,2.44-5.64,3.73-.4.28-.8.57-1.2.86-1.79,1.28-3.54,2.61-5.26,3.98-.41.33-.81.66-1.21.99-1.67,1.37-3.31,2.79-4.91,4.25-.19.17-.38.32-.57.49-.25.23-.48.48-.73.72-.86.81-1.75,1.58-2.6,2.42-.62.61-1.19,1.27-1.79,1.89-.52.54-1.04,1.09-1.55,1.64-1.29,1.38-2.56,2.79-3.79,4.23-.57.66-1.12,1.33-1.67,2.01-1.13,1.38-2.25,2.79-3.32,4.22-.57.76-1.13,1.54-1.69,2.31-.99,1.38-1.96,2.78-2.9,4.21-.25.38-.53.74-.77,1.12-.32.5-.6,1.03-.91,1.53-.49.79-1.02,1.55-1.49,2.35-.36.61-.67,1.25-1.03,1.87-.54.94-1.06,1.9-1.57,2.86-.78,1.45-1.53,2.92-2.25,4.4-.47.97-.92,1.94-1.36,2.92-.67,1.48-1.32,2.98-1.94,4.5-.45,1.1-.88,2.21-1.3,3.33-.51,1.37-1.01,2.74-1.48,4.14-.2.6-.44,1.18-.64,1.79-.24.74-.41,1.49-.64,2.23-.22.72-.47,1.41-.68,2.14-.17.59-.28,1.19-.44,1.78-.36,1.34-.69,2.69-1,4.05-.34,1.5-.66,3.01-.95,4.52-.22,1.15-.41,2.3-.59,3.46-.27,1.69-.51,3.39-.71,5.11-.13,1.09-.23,2.19-.33,3.29-.15,1.7-.28,3.41-.36,5.13-.03.58-.1,1.14-.12,1.72-.03.71,0,1.41,0,2.12-.02.82-.08,1.62-.08,2.44,0,.66.06,1.31.07,1.98.02,1.54.08,3.07.15,4.59.07,1.29.14,2.58.25,3.85.13,1.54.28,3.07.47,4.6.16,1.34.34,2.67.54,4,.21,1.35.44,2.7.7,4.04.29,1.54.6,3.07.95,4.59.12.52.2,1.04.32,1.55.15.63.36,1.24.52,1.87.22.85.39,1.71.63,2.55.2.69.44,1.36.65,2.05.36,1.22.76,2.43,1.15,3.63.44,1.32.89,2.63,1.36,3.92.5,1.36,1.03,2.7,1.57,4.04.48,1.17.96,2.33,1.47,3.48.59,1.34,1.22,2.66,1.86,3.98.56,1.15,1.12,2.29,1.72,3.41.29.55.54,1.13.84,1.68.4.73.84,1.42,1.25,2.14.34.6.65,1.23,1,1.83.27.45.57.88.85,1.33.8,1.32,1.63,2.61,2.48,3.9.61.93,1.23,1.86,1.87,2.77.93,1.33,1.89,2.65,2.88,3.94.62.82,1.25,1.65,1.9,2.46,1.07,1.34,2.17,2.66,3.3,3.96.61.7,1.22,1.4,1.84,2.09.53.59,1.03,1.2,1.57,1.79.76.81,1.56,1.56,2.34,2.34.3.3.57.62.86.91.21.21.45.4.66.62,1.46,1.44,2.97,2.83,4.5,4.19.48.42.95.85,1.44,1.27,1.58,1.36,3.19,2.67,4.83,3.95.48.37.96.75,1.45,1.12,1.7,1.28,3.43,2.52,5.2,3.72.45.31.9.61,1.36.91.8.53,1.57,1.1,2.39,1.61,1.09.69,2.23,1.3,3.34,1.96.2.12.39.25.6.37.15.09.31.16.46.25,2.07,1.19,4.17,2.31,6.3,3.38.27.13.53.27.8.4,2.26,1.11,4.55,2.16,6.89,3.15.13.06.26.11.39.17,3.61,1.51,7.28,2.93,11.08,4.13,4.09,1.3,8.3,2.32,12.55,3.18.03,0,.06.01.09.02,2.68.54,5.4,1,8.15,1.37.1.01.21.03.31.04,4.11.54,8.26.96,12.51,1.12,11.63.43,22.92-.66,33.86-3.26,10.94-2.6,21.23-6.46,30.87-11.58,9.64-5.12,18.46-11.38,26.46-18.76,7.99-7.37,14.93-15.63,20.8-24.76,1.79-2.79,3.44-5.67,5-8.6,15.58-28.45,15.87-53.89,15.87-53.89v-5.03c0-38.49,31.2-69.69,69.69-69.69h.09c38.49,0,69.69,31.2,69.69,69.69s-31.2,69.69-69.69,69.69h-67.8c-16.62,33.64-47.53,51.73-59.57,58.93v104.93h57.56v-106.55h78.44c65.4,0,118.42-53.02,118.42-118.42v-9.22C452.31,56.58,395.74,0,325.95,0Z"/>
</svg>