<?xml version="1.0" encoding="UTF-8"?>
<svg id="Capa_1" data-name="Capa 1" xmlns="http://www.w3.org/2000/svg" viewBox="0 0 779.12 880.85">
  <defs>
    <style>
      .cls-1 {
        fill: #0779d6;
      }

      .cls-2 {
        fill: #23262a;
      }
    </style>
  </defs>
  <path class="cls-2" d="M506.15,578.78c-.8-5.88-5.7-12.1-14.19-17.98l.6-.87c8.86,6.13,13.78,12.43,14.63,18.7l-1.04.14Z"/>
  <g>
    <g>
      <rect class="cls-2" x="493.08" y="557.1" width="1.05" height="37.93"/>
      <path class="cls-2" d="M462.37,608.83h-1.05v-54.01h1.05c0,5.95,6.89,10.8,15.35,10.8s15.35-4.84,15.35-10.8h1.05v2.27h-.3c-1.47,5.45-8.13,9.58-16.1,9.58-7.01,0-13.01-3.19-15.35-7.67v49.83Z"/>
      <path class="cls-2" d="M462.37,554.82h-1.05v-1.39h1.11l-.02.58c-.03.27-.04.53-.04.8Z"/>
    </g>
    <path class="cls-2" d="M446.9,611.23c-1.4,0-2.8-.04-4.2-.12-14.03-.83-28.53-5.79-45.65-15.63l.52-.91c16.97,9.75,31.33,14.67,45.19,15.49,16.82.99,33.38-4.07,50.62-15.47,8.46-5.6,12.79-11.49,12.89-17.51.13-8.04-7.39-15.06-13.71-19.54l.61-.86c9.5,6.73,14.26,13.6,14.16,20.42-.1,6.4-4.6,12.58-13.36,18.38-16.01,10.59-31.45,15.77-47.07,15.77Z"/>
    <path class="cls-2" d="M477.73,566.67c-9.05,0-16.41-5.32-16.41-11.85,0-.31.02-.61.05-.91.64-6.13,7.83-10.94,16.36-10.94,2.48,0,4.87.39,7.09,1.16l-.34,1c-2.11-.73-4.38-1.1-6.74-1.1-8,0-14.72,4.39-15.31,9.99-.03.27-.04.53-.04.8,0,5.95,6.89,10.8,15.35,10.8s15.35-4.84,15.35-10.8c0-.27-.01-.54-.04-.8-.29-2.74-2.04-5.28-4.94-7.15l.57-.88c3.17,2.05,5.1,4.86,5.42,7.93.03.3.05.61.05.92,0,6.53-7.36,11.85-16.4,11.85Z"/>
    <g>
      <g>
        <g>
          <path class="cls-2" d="M190.92,794.74l-.45-.88c7.31-3.77,19.96-10.32,22.51-11.78,4.01-2.31,24.7-18.59,32.13-29.72.96-1.45,1.92-2.84,2.87-4.23,6.55-9.56,12.74-18.58,18.51-40.07,6.54-24.36,21.79-43.74,33.18-51.43l.55.82c-11.25,7.6-26.3,26.76-32.78,50.87-5.82,21.65-12.05,30.75-18.65,40.38-.95,1.38-1.9,2.78-2.87,4.22-7.5,11.25-28.41,27.69-32.45,30.03-2.43,1.4-13.61,7.2-22.55,11.81Z"/>
          <path class="cls-2" d="M190.17,791.11l-.46-.88,13.71-7.13c28.83-16.4,49.77-42.89,58.93-74.6,2.06-7.11,4.17-13.31,6.29-18.44,10.19-24.65,31.18-38.17,31.39-38.31l.53.84c-.21.13-20.94,13.49-31.01,37.85-2.1,5.09-4.2,11.25-6.25,18.33-9.24,31.95-30.33,58.66-59.41,75.19l-13.72,7.14Z"/>
        </g>
        <g>
          <path class="cls-2" d="M95.88,880.85c-8.51,0-17.03-1.46-24.36-4.44-2.24-.88-4.36-1.93-6.29-3.1-.95-.57-1.9-1.2-2.82-1.87l-.82-.7c-.63-.44-1.11-.83-1.55-1.23-.62-.57-1.35-1.23-2.09-1.89-.84-.75-1.68-1.51-2.39-2.16-.34-.3-.76-.67-1.17-1.04-.38-.34-.75-.67-1.07-.96-.63-.57-1.35-1.22-2.08-1.88-.84-.76-1.69-1.52-2.41-2.18-.18-.16-.37-.34-.56-.52-.17-.16-.35-.33-.54-.5-.38-.33-.77-.67-1.15-1.02-.38-.34-.77-.69-1.16-1.02-.21-.2-.39-.37-.57-.53-.18-.16-.36-.32-.52-.48-.3-.27-.68-.61-1.06-.95-.4-.36-.81-.73-1.15-1.03-.33-.33-.72-.68-1.1-1.03-.78-.71-1.53-1.37-2.31-2.04-.38-.38-.76-.72-1.07-.99-.68-.62-1.47-1.33-2.26-2.04-.78-.71-1.57-1.41-2.23-2.02-.34-.3-.74-.66-1.14-1.02-.38-.35-.77-.69-1.09-.98-.34-.3-.74-.66-1.15-1.03-.38-.35-.77-.69-1.09-.98-.79-.71-1.58-1.42-2.25-2.06-.54-.48-1.17-1.05-1.82-1.63l-.41-.37c-.67-.59-1.46-1.3-2.24-2.01-.33-.31-.72-.66-1.1-1.01-.4-.36-.8-.72-1.15-1.05-.33-.29-.73-.65-1.13-1.01-.39-.35-.77-.7-1.1-.99-.71-.64-1.42-1.28-2.04-1.83-.07-.06-.13-.12-.2-.18l.66-.74c.06.06.13.11.19.17.87.76,1.84,1.51,2.78,2.23l.57.44c.24.19.45.38.67.57.34.29.69.6,1.08.88,1.78,1.31,3.79,2.64,6.14,4.07,36.28,21.84,96.53,22.45,134.31,1.37,1.3-.72,2.55-1.47,3.83-2.27.2-.12.39-.24.57-.36.2-.13.41-.27.61-.39.36-.25.76-.52,1.16-.78.41-.27.81-.53,1.21-.81.21-.15.41-.3.61-.46.21-.16.42-.32.64-.48.72-.48,1.42-1.02,2.03-1.49l.2-.17c.34-.28.66-.54.99-.83l.1-.08c.48-.39.98-.8,1.45-1.21.1-.09.2-.18.3-.27l.67.73c-.1.09-.2.19-.31.28-7.3,6.67-14.61,13.34-21.93,20-7.24,6.6-14.47,13.19-21.7,19.79-.09.09-.2.17-.33.27l-.1.08c-.49.46-1.08.91-1.7,1.38l-.45.35c-.21.16-.42.33-.67.49-.96.69-2.03,1.37-3.25,2.06-8.23,4.57-18.95,6.91-29.71,6.91ZM24.53,836.17c.11.09.21.19.31.28l.41.37c.65.58,1.28,1.15,1.83,1.63.68.64,1.46,1.34,2.25,2.05.33.29.71.64,1.1.98.4.36.8.72,1.14,1.02.33.29.71.64,1.1.98.4.36.8.72,1.14,1.02.67.61,1.45,1.31,2.23,2.02.79.71,1.58,1.43,2.26,2.04.31.27.72.64,1.08,1,.76.64,1.51,1.31,2.3,2.03.4.36.8.72,1.12,1.04.32.28.73.65,1.14,1.02.38.34.76.68,1.08.97.17.17.33.31.5.46.19.17.39.35.58.54.37.31.76.66,1.15,1.01.38.34.76.68,1.14,1.01.2.18.39.36.57.53.18.17.36.34.54.5.72.66,1.57,1.42,2.41,2.18.73.66,1.46,1.31,2.08,1.88.32.28.69.62,1.07.96.41.37.82.74,1.16,1.04.72.65,1.56,1.41,2.39,2.16.74.66,1.47,1.32,2.1,1.89.4.37.86.73,1.49,1.18l.82.7c.87.63,1.8,1.24,2.72,1.8,1.88,1.15,3.95,2.17,6.14,3.03,16.35,6.65,38.73,5.64,53.22-2.41,1.18-.67,2.22-1.33,3.18-2.01.24-.16.43-.31.62-.46l.46-.35c.6-.46,1.17-.89,1.66-1.35l.15-.12c.08-.06.16-.11.23-.18,7.24-6.62,14.48-13.22,21.72-19.81,4.73-4.32,9.47-8.63,14.2-12.95-.04.03-.08.06-.13.09-.22.13-.42.26-.61.39-.2.13-.4.26-.6.38-1.29.81-2.56,1.56-3.87,2.29-38.06,21.24-98.76,20.61-135.31-1.38-.8-.49-1.56-.96-2.29-1.43Z"/>
          <path class="cls-2" d="M268.52,690.21c-2.12,5.12-4.23,11.32-6.29,18.44-9.16,31.7-30.1,58.2-58.93,74.59l-13.9,7.23.12.54c.06.26.12.52.18.78l.11.47c.18.75.36,1.53.48,2.28.09.58.12,1.15.16,1.76l.08,1.17c.06.82.12,1.66.1,2.48,0,.23-.01.46-.03.69-.07,1.54-.25,3.07-.54,4.55-.03.18-.07.35-.11.53l-.03.14c-.33,1.55-.76,3.07-1.3,4.54-.05.13-.1.26-.15.39l-.09.24c-.03.09-.07.17-.12.25-.05.1-.1.19-.14.29-.65,1.61-1.2,2.83-1.81,3.95l-.32.57c-.9,1.59-1.83,3.04-2.86,4.44-.08.1-.15.2-.23.3l-.15.19c-1.16,1.54-2.4,3.01-3.69,4.37-.07.07-.14.14-.21.22l-.18.18c-1.45,1.51-2.98,2.94-4.55,4.27l-.34.28c-1.78,1.48-3.62,2.88-5.48,4.15l-.22.15c-2.09,1.42-4.28,2.77-6.49,4-37.8,21.08-98.06,20.47-134.32-1.36-2.21-1.33-4.31-2.74-6.26-4.18-.38-.28-.72-.57-1.07-.86-.24-.21-.49-.41-.75-.62l-.44-.34c-1.07-.85-2.18-1.72-3.15-2.6-.42-.38-.79-.77-1.16-1.16-.22-.23-.45-.47-.68-.7l-.57-.56c-.73-.72-1.49-1.47-2.14-2.22-.38-.44-.72-.89-1.06-1.33-.18-.24-.36-.48-.55-.72l-.45-.57c-.56-.71-1.15-1.45-1.64-2.18-.32-.48-.61-.99-.88-1.48-.14-.24-.27-.49-.41-.73l-.34-.58c-.42-.71-.86-1.45-1.21-2.17-.25-.52-.45-1.03-.66-1.57-.09-.24-.19-.48-.28-.72l-.23-.56c-.3-.72-.6-1.47-.83-2.2-.17-.56-.3-1.11-.43-1.7l-.26-1.12c-.18-.75-.37-1.53-.48-2.29-.09-.59-.12-1.17-.16-1.79l-.07-1.09c-.06-.83-.13-1.69-.11-2.53,0-.18.01-.37.02-.55v-.14c.08-1.53.26-3.06.54-4.55.03-.14.06-.29.09-.43l.05-.23c.33-1.56.77-3.08,1.29-4.54.05-.15.11-.3.17-.45l.07-.18c.59-1.55,1.29-3.06,2.07-4.5.07-.12.14-.25.21-.38l.11-.19c.87-1.56,1.84-3.05,2.86-4.45.07-.09.14-.18.21-.27l.17-.22c1.17-1.54,2.41-3.01,3.68-4.37l.4-.4c1.49-1.54,2.97-2.94,4.55-4.27.06-.05.13-.11.2-.16l.15-.12c1.75-1.46,3.6-2.86,5.55-4.2l.15-.1c2.1-1.42,4.28-2.77,6.49-4,20.45-11.4,48.37-16.91,76.59-15.1h.15s14.37-8.16,14.37-8.16c29.08-16.53,50.18-43.24,59.41-75.19,2.05-7.07,4.15-13.24,6.25-18.33,10.07-24.36,30.8-37.72,30.99-37.84l16.09-9.18,76.36,42.5c.44-.17.93-.28,1.47-.32l-77.59-43.18-.24-.14-16.6,9.47c-.21.13-21.2,13.65-31.39,38.31-2.12,5.12-4.23,11.32-6.29,18.44-9.16,31.7-30.1,58.2-58.95,74.6l-14.12,8.03c-28.35-1.79-56.41,3.76-76.99,15.23-2.23,1.24-4.44,2.61-6.57,4.05l-.22.15c-1.91,1.31-3.78,2.72-5.55,4.2l-.13.11c-.08.06-.15.12-.23.18-1.6,1.35-3.11,2.77-4.62,4.33l-.16.16c-.08.08-.16.16-.24.25-1.31,1.38-2.57,2.88-3.76,4.45l-.16.2c-.08.1-.16.2-.23.3-1.05,1.43-2.03,2.95-2.93,4.54l-.11.18c-.08.13-.16.27-.23.4-.8,1.48-1.51,3.03-2.12,4.61l-.07.17c-.06.16-.12.32-.18.47-.54,1.5-.99,3.06-1.33,4.67l-.05.23c-.03.15-.07.3-.09.45-.29,1.54-.48,3.12-.56,4.69v.14c-.01.19-.02.38-.03.57-.02.88.05,1.77.11,2.63l.07,1.08c.04.61.08,1.24.17,1.87.12.8.31,1.6.49,2.37l.25,1.1c.13.58.26,1.18.45,1.78.24.77.56,1.54.86,2.28l.23.56c.1.24.19.47.28.71.21.54.42,1.09.69,1.65.37.76.82,1.51,1.25,2.24l.34.57c.14.24.27.47.41.71.28.51.58,1.03.92,1.54.51.76,1.11,1.51,1.68,2.24l.45.57c.18.23.36.47.54.71.34.46.7.93,1.1,1.39.68.78,1.45,1.54,2.19,2.27l.57.56c.23.23.44.45.66.68.39.41.78.81,1.21,1.2,1,.91,2.12,1.79,3.21,2.65l.43.34c.25.2.49.4.72.6.36.3.72.61,1.12.9,1.98,1.46,4.11,2.88,6.34,4.23,18.69,11.25,43.69,16.9,68.77,16.9,23.94,0,47.95-5.16,66.55-15.53,2.24-1.25,4.44-2.61,6.56-4.05l.23-.15c1.88-1.29,3.75-2.7,5.56-4.2l.14-.12c.07-.06.14-.11.21-.17,1.59-1.34,3.15-2.8,4.63-4.33l.17-.17c.08-.08.16-.16.24-.24,1.31-1.39,2.57-2.88,3.75-4.45l.14-.18c.09-.11.17-.22.25-.33,1.05-1.43,2.01-2.92,2.93-4.55l.33-.58c.63-1.16,1.2-2.41,1.86-4.05.03-.08.07-.15.11-.23.06-.11.11-.23.15-.34l.09-.23c.05-.14.11-.28.16-.42.55-1.5.99-3.08,1.33-4.67l.03-.13c.04-.18.08-.37.11-.55.29-1.53.48-3.1.56-4.69.01-.24.02-.47.03-.71.02-.87-.04-1.74-.1-2.58l-.08-1.15c-.04-.6-.07-1.23-.17-1.85-.12-.8-.31-1.6-.49-2.37l-.11-.47c-.04-.19-.09-.38-.13-.56l13.24-6.88c29.08-16.53,50.18-43.24,59.41-75.19,2.05-7.08,4.15-13.25,6.25-18.33,10.07-24.35,30.8-37.72,31.01-37.85l-.53-.84c-.21.13-21.2,13.65-31.39,38.31Z"/>
          <path class="cls-2" d="M94.82,821.33c-12.35,0-24.67-2.78-33.9-8.32-1.13-.71-2.15-1.39-3.13-2.09-.19-.14-.37-.29-.54-.44-.12-.1-.24-.21-.36-.3-.64-.5-1.26-.98-1.81-1.48-.28-.24-.53-.51-.78-.78l-.47-.48c-.36-.35-.72-.71-1.04-1.07-.3-.34-.55-.68-.79-1.01l-.09-.11c-.35-.44-.69-.87-1-1.3-.25-.39-.46-.76-.66-1.13-.27-.45-.55-.92-.78-1.38l-.2-.43c-.11-.3-.2-.52-.29-.74l-.12-.3c-.15-.36-.3-.74-.42-1.13l-.03-.12c-.06-.22-.1-.39-.14-.56-.04-.16-.08-.32-.12-.49l-.09-.44c-.07-.33-.14-.66-.19-1-.07-.38-.09-.78-.11-1.17l-.03-.53c-.02-.35-.04-.7-.04-1.05,0-.07,0-.15.01-.22,0-.04,0-.08,0-.12.02-.8.11-1.56.27-2.33,0-.11.03-.21.05-.29.2-.92.41-1.68.68-2.41.06-.14.08-.19.09-.25.34-.87.69-1.64,1.07-2.36.08-.11.1-.16.14-.22l.06-.1c.43-.76.91-1.51,1.43-2.24.1-.11.14-.17.17-.21.64-.85,1.24-1.55,1.9-2.23,0-.02.09-.12.19-.21.71-.73,1.47-1.45,2.28-2.14l.11-.08s.07-.06.12-.09c.88-.74,1.78-1.42,2.7-2.05.1-.06.13-.08.17-.1.95-.65,2.04-1.33,3.19-1.97,18.75-10.47,48.65-10.17,66.65.67,1,.59,2,1.26,3.13,2.1.27.18.52.39.76.6l.17.15c.6.46,1.23.95,1.79,1.47.27.24.52.5.76.77l.49.5c.36.35.72.71,1.04,1.06.19.22.35.44.51.65.1.13.2.27.3.4.39.49.75.94,1.06,1.39.25.39.45.76.66,1.13.27.45.55.92.78,1.39.14.3.26.59.37.87l.12.3c.19.46.37.93.53,1.39.09.3.14.57.2.83l.09.41c.11.45.23.92.3,1.41.04.25.06.51.08.77.01.15.02.3.04.46l.03.53c.02.34.04.68.04,1.02,0,.07,0,.15-.01.22,0,.04,0,.08,0,.12-.02.81-.12,1.6-.28,2.38l-.07.31c-.09.47-.21.94-.35,1.43-.1.32-.19.62-.31.92-.05.11-.08.19-.09.24l-.04.11-.14.27c-.05.11-.1.23-.15.35-.05.13-.1.26-.16.38-.19.42-.37.84-.61,1.26-.05.1-.11.22-.2.33-.34.64-.81,1.38-1.4,2.19l-.08.1s-.05.07-.06.08l-.05.09c-.55.7-1.16,1.45-1.88,2.2,0,0-.05.06-.1.11l-.08.09c-.71.73-1.48,1.46-2.28,2.15-.09.06-.13.09-.16.12-.84.71-1.76,1.4-2.77,2.1-.1.06-.13.08-.17.1-.96.66-2.05,1.33-3.19,1.97-9.15,5.11-20.97,7.65-32.77,7.65ZM49.34,798.34l.04.16c.11.39.25.73.39,1.07l.13.31c.09.23.19.46.28.72l.18.38c.22.44.49.89.75,1.33.21.37.41.73.63,1.09.28.4.61.81.95,1.23l.07.08c.28.38.51.69.78,1.01.3.34.65.68,1,1.02l.5.52c.22.24.44.49.7.71.53.48,1.13.95,1.71,1.4.18.14.31.25.45.37.15.13.3.26.47.38.96.69,1.96,1.36,3.07,2.05,17.76,10.66,47.22,10.95,65.67.65,1.11-.62,2.18-1.28,3.17-1.95.09-.06.13-.08.17-.1.92-.64,1.82-1.32,2.61-1.98.04-.04.13-.11.22-.17.74-.64,1.48-1.34,2.17-2.05-.01,0,.04-.05.1-.11l.09-.1c.68-.7,1.26-1.42,1.78-2.09.05-.09.1-.16.15-.21.61-.84,1.06-1.54,1.42-2.21.09-.12.12-.19.15-.25.23-.42.41-.81.58-1.21.05-.12.1-.24.15-.35.06-.13.11-.27.17-.4l.12-.24c.04-.15.11-.28.13-.34.09-.23.17-.51.26-.79.14-.47.25-.91.33-1.35l.07-.33c.15-.72.24-1.45.26-2.19,0-.06,0-.13.01-.2,0-.04,0-.08,0-.12,0-.32-.02-.64-.04-.96l-.03-.51c-.02-.14-.03-.3-.04-.47-.02-.22-.03-.45-.07-.68-.07-.44-.18-.89-.29-1.33l-.1-.43c-.05-.24-.1-.48-.17-.74-.15-.42-.33-.86-.51-1.31l-.12-.3c-.11-.27-.21-.54-.34-.81-.22-.43-.48-.88-.75-1.32-.21-.37-.41-.73-.63-1.08-.29-.41-.63-.84-.98-1.28-.15-.18-.25-.32-.36-.46-.15-.2-.29-.39-.46-.59-.3-.33-.65-.67-.99-1.01l-.52-.54c-.22-.24-.43-.47-.69-.69-.54-.5-1.16-.97-1.75-1.44l-.19-.16c-.22-.19-.43-.37-.69-.54-1.12-.83-2.09-1.48-3.07-2.06-17.73-10.68-47.18-10.97-65.66-.65-1.12.63-2.19,1.29-3.17,1.95-.1.06-.13.08-.18.1-.84.57-1.71,1.23-2.6,1.98l-.1.07s-.09.07-.14.1c-.73.63-1.47,1.33-2.16,2.04-.05.05-.1.09-.13.14-.68.71-1.25,1.39-1.86,2.18-.04.07-.13.19-.23.28-.45.64-.92,1.36-1.33,2.1l-.05.09c-.05.09-.1.18-.16.26-.33.62-.66,1.35-.96,2.11,0,.04-.04.15-.09.26-.27.74-.47,1.45-.64,2.23,0,.04-.02.09-.03.14,0,.03-.02.07-.02.1v.1c-.17.73-.25,1.45-.27,2.18,0,.06,0,.13-.01.21,0,.04,0,.08,0,.12,0,.33.02.66.04.99l.03.48c.02.4.04.77.11,1.12.05.33.12.64.18.95l.09.43c.04.15.08.31.12.48.04.14.07.29.11.44Z"/>
          <path class="cls-2" d="M94.82,821.33c-12.35,0-24.67-2.78-33.9-8.32-1.13-.71-2.15-1.39-3.13-2.09-.19-.14-.37-.29-.54-.44-.12-.1-.24-.21-.36-.3-.64-.5-1.26-.98-1.81-1.48-.28-.24-.53-.51-.78-.78l-.47-.48c-.36-.35-.72-.71-1.04-1.07-.3-.34-.55-.68-.79-1.01l-.09-.11c-.35-.44-.69-.87-1-1.3-.25-.39-.46-.76-.66-1.13-.27-.45-.55-.92-.78-1.38l-.31-.64.09-.21c.19-.42.39-.83.6-1.25.07-.11.09-.14.11-.18.04-.06.07-.11.11-.17.35-.64.82-1.38,1.4-2.2l.08-.1s.06-.07.06-.09l.05-.08c.55-.71,1.16-1.46,1.88-2.2.01-.04.1-.12.19-.21.7-.7,1.47-1.42,2.27-2.13l.12-.09s.07-.06.12-.09c.89-.75,1.78-1.42,2.71-2.05.09-.06.13-.08.17-.1.96-.66,2.05-1.33,3.19-1.97,18.76-10.45,48.66-10.14,66.65.69,1.1.65,2.13,1.33,3.13,2.07.2.15.38.29.55.44.12.1.24.2.37.29l.55.44c.43.35.86.69,1.25,1.03.23.21.41.41.6.6.11.12.22.24.34.35l.34.33c.35.35.71.7,1.03,1.05.19.22.36.44.52.66.1.13.19.26.3.39.37.46.74.93,1.06,1.39.24.39.45.76.66,1.13.29.49.56.94.79,1.39.08.15.16.34.21.5l.06.18-.08.18c-.19.42-.38.84-.61,1.27-.05.1-.11.22-.2.33-.34.64-.81,1.38-1.4,2.19l-.08.1s-.05.07-.06.08l-.05.09c-.55.7-1.16,1.45-1.88,2.2,0,0-.05.06-.1.11l-.08.09c-.71.73-1.48,1.46-2.28,2.15-.09.06-.13.09-.16.12-.84.71-1.76,1.4-2.77,2.1-.1.06-.13.08-.17.1-.96.66-2.05,1.33-3.19,1.97-9.15,5.11-20.97,7.65-32.77,7.65ZM50.37,800.98c.22.44.49.89.75,1.33.21.37.41.73.63,1.09.28.4.61.81.95,1.23l.07.08c.28.38.51.69.78,1.01.3.34.65.68,1,1.02l.5.52c.22.24.44.49.7.71.53.48,1.13.95,1.71,1.4.18.14.31.25.45.37.15.13.3.26.47.38.96.69,1.96,1.36,3.07,2.05,17.76,10.66,47.22,10.95,65.67.65,1.11-.62,2.18-1.28,3.17-1.95.09-.06.13-.08.17-.1.92-.64,1.82-1.32,2.61-1.98.04-.04.13-.11.22-.17.74-.64,1.48-1.34,2.17-2.05-.01,0,.04-.05.1-.11l.09-.1c.68-.7,1.26-1.42,1.78-2.09.05-.09.1-.16.15-.21.61-.84,1.06-1.54,1.42-2.21.09-.12.12-.19.15-.25.19-.35.35-.69.5-1.03-.03-.07-.06-.13-.09-.19-.21-.43-.47-.86-.73-1.29-.24-.41-.44-.77-.66-1.13-.3-.42-.66-.87-1.01-1.32-.11-.14-.21-.28-.32-.41-.15-.2-.29-.4-.47-.59-.3-.33-.64-.67-.98-1l-.34-.34c-.12-.12-.24-.25-.36-.37-.17-.18-.34-.36-.54-.55-.37-.32-.78-.65-1.2-.99l-.54-.44c-.12-.09-.25-.2-.38-.31-.16-.13-.32-.27-.5-.4-.98-.72-1.98-1.38-3.05-2.02-17.72-10.67-47.17-10.98-65.66-.68-1.11.62-2.18,1.28-3.17,1.95-.1.06-.13.08-.17.1-.84.57-1.71,1.23-2.61,1.98l-.09.07s-.08.07-.13.1c-.73.65-1.48,1.36-2.17,2.05-.04.04-.1.1-.12.13-.72.76-1.31,1.48-1.84,2.16-.05.09-.11.16-.15.21-.61.84-1.06,1.54-1.42,2.21-.06.09-.08.13-.1.16-.04.06-.07.11-.11.17-.13.27-.29.6-.44.93l.1.22Z"/>
        </g>
      </g>
      <g>
        <path class="cls-2" d="M203.41,616.96h-.99v-21.29h.99c0,4.72,4.27,8.9,10.62,10.41l-.23.96c-4.93-1.17-8.69-3.9-10.39-7.28v17.2Z"/>
        <path class="cls-2" d="M203.41,595.67h-.99v-1.37h1.04v.55c-.04.27-.05.54-.05.82Z"/>
        <path class="cls-2" d="M213.8,607.04c-6.81-1.62-11.38-6.19-11.38-11.37,0-.31.02-.62.05-.92.65-6.2,7.92-11.06,16.55-11.06,8.08,0,14.96,4.16,16.34,9.89l-.96.23c-1.28-5.29-7.75-9.14-15.38-9.14-8.13,0-14.96,4.47-15.56,10.17-.03.27-.04.54-.04.82,0,4.72,4.27,8.9,10.62,10.41l-.23.96Z"/>
      </g>
      <g>
        <path class="cls-1" d="M312.18,637.76c1.35-.19,2.57-.32,3.92-.24,1,.06,2,.17,3,.19,1.19.02,2.24.42,3.09,1.06l76.29-43.96c-.31.18-10.15-5.37-22.92-12.74-36.98-21.34-82.53-21.35-119.52-.02l-22.16,13.62,25.87,14.54-10.48,6.05c-2.93,1.69-2.83,5.95.17,7.5l10.44,5.4c3.32,1.72,7.24,1.82,10.65.28l12.99-5.87,26.85,15.09c.56-.46,1.2-.81,1.8-.89Z"/>
        <path class="cls-2" d="M398.42,594.72l.09-.39c-.46-.11-4.02-1.9-22.71-12.68-37.02-21.36-83-21.36-120.02-.01l-22.87,14.06,25.84,14.52-9.73,5.62c-1.53.89-2.42,2.47-2.38,4.24.04,1.77,1,3.31,2.58,4.13l10.44,5.4c3.48,1.8,7.51,1.9,11.08.29l12.76-5.77,25.99,14.6c.35-.21.71-.39,1.09-.52l-27.03-15.19-13.22,5.98c-3.29,1.49-7.01,1.39-10.22-.27l-10.44-5.4c-1.25-.64-2.01-1.87-2.04-3.27-.03-1.4.67-2.66,1.89-3.36l11.23-6.49-25.89-14.55,21.43-13.17c36.7-21.17,82.31-21.16,119.02.02,14.74,8.5,20.05,11.43,22.06,12.38l-75.49,43.5c.38.15.74.33,1.07.53l75.77-43.66s0,0,0,0l-.3-.52Z"/>
      </g>
      <path class="cls-2" d="M429.37,686.58c-27.02,0-54.03-6.94-78.11-20.82l-19.23-11.08.53-.91,19.23,11.08c47.76,27.53,107.13,27.58,154.94.13l51.55-29.6c17.89-10.27,30.19-26.63,35.04-45.75-5.53,17.94-17.63,33.27-34.51,42.96l-51.55,29.6c-48.13,27.63-107.9,27.58-155.99-.13l-19.09-11,.53-.91,19.09,11c47.76,27.53,107.13,27.58,154.94.13l51.55-29.6c22.73-13.05,36.68-36.47,37.32-62.66h1.05c.68,28.13-13.47,53.28-37.85,67.27l-51.55,29.6c-24.02,13.79-50.95,20.69-77.88,20.69Z"/>
      <path class="cls-2" d="M429.37,682.87c-27.02,0-54.03-6.94-78.11-20.82l-19.09-11,.53-.91,19.09,11c47.76,27.53,107.13,27.58,154.94.13l51.55-29.6c23.37-13.42,37.33-37.52,37.34-64.47,0-26.95-13.93-51.06-37.3-64.49l-.27-.15.52-.91.27.15c23.7,13.62,37.84,38.07,37.83,65.41,0,27.33-14.17,51.77-37.87,65.38l-51.55,29.6c-24.02,13.79-50.95,20.69-77.88,20.69Z"/>
      <g>
        <path class="cls-2" d="M316.42,713.34c-9.05,0-16.41-5.32-16.41-11.85v-53.01h1.05c0,5.95,6.89,10.8,15.35,10.8s15.35-4.84,15.35-10.8h1.05v53.01c0,6.53-7.36,11.85-16.4,11.85ZM301.07,652.66v48.83c0,5.95,6.89,10.8,15.35,10.8s15.35-4.84,15.35-10.8v-48.83c-2.34,4.48-8.34,7.67-15.35,7.67s-13.01-3.19-15.35-7.67Z"/>
        <path class="cls-2" d="M301.07,648.48h-1.05v-1.39h1.11l-.02.58c-.03.27-.04.53-.04.8Z"/>
        <path class="cls-2" d="M316.42,660.33c-9.05,0-16.41-5.32-16.41-11.85,0-.31.02-.61.05-.91.64-6.13,7.83-10.94,16.36-10.94,3.72,0,7.22.87,10.13,2.52l-.52.92c-2.75-1.56-6.08-2.39-9.61-2.39-8,0-14.72,4.39-15.31,9.99-.03.27-.04.53-.04.8,0,5.95,6.89,10.8,15.35,10.8s15.35-4.84,15.35-10.8c0-.27-.01-.54-.04-.8-.31-2.9-2.23-5.54-5.41-7.44l.54-.9c3.42,2.04,5.58,5.04,5.92,8.23.03.3.05.61.05.92,0,6.53-7.36,11.85-16.4,11.85Z"/>
        <polygon class="cls-2" points="326.32 640.24 326.03 640.07 326.55 639.16 326.86 639.33 326.32 640.24"/>
      </g>
      <g>
        <polygon class="cls-2" points="196.96 787.1 189.67 782.81 183.31 786.45 190.74 790.67 196.96 787.1"/>
        <polygon class="cls-2" points="183.33 786.46 175.9 782.23 168.88 786.06 176.43 790.42 183.33 786.46"/>
        <polygon class="cls-2" points="182.44 778.59 174.91 774.31 168.44 778.01 175.88 782.23 182.44 778.59"/>
        <polygon class="cls-2" points="168.46 778.02 161.03 773.79 154.14 777.55 161.69 781.9 168.46 778.02"/>
        <polygon class="cls-2" points="167.56 770.15 160.05 765.93 153.69 769.57 161.13 773.79 167.56 770.15"/>
        <polygon class="cls-2" points="153.71 769.58 146.28 765.35 139.46 769.07 147 773.43 153.71 769.58"/>
        <polygon class="cls-2" points="152.6 761.69 145.16 757.49 138.8 761.13 146.24 765.35 152.6 761.69"/>
        <polygon class="cls-2" points="138.82 761.14 131.39 756.91 124.7 760.56 132.24 764.91 138.82 761.14"/>
        <polygon class="cls-2" points="137.62 753.24 130.17 749.05 123.81 752.68 131.24 756.91 137.62 753.24"/>
        <polygon class="cls-2" points="122.72 744.82 115.29 740.61 108.94 744.24 116.37 748.47 122.72 744.82"/>
        <polygon class="cls-2" points="123.83 752.69 116.4 748.47 109.9 752.01 117.44 756.36 123.83 752.69"/>
      </g>
    </g>
  </g>
</svg>