<?xml version="1.0" encoding="UTF-8"?>
<svg id="Capa_1" data-name="Capa 1" xmlns="http://www.w3.org/2000/svg" xmlns:xlink="http://www.w3.org/1999/xlink" viewBox="0 0 779.12 880.85">
  <defs>
    <style>
      .cls-1 {
        fill: url(#Degradado_sin_nombre_14-2);
      }

      .cls-2 {
        fill: url(#Degradado_sin_nombre_60);
      }

      .cls-3 {
        fill: url(#Degradado_sin_nombre_14);
      }

      .cls-4 {
        fill: #23262a;
      }
    </style>
    <linearGradient id="Degradado_sin_nombre_14" data-name="Degradado sin nombre 14" x1="10820.49" y1="125.43" x2="10884.36" y2="37.13" gradientTransform="translate(11376.76) rotate(-180) scale(1 -1)" gradientUnits="userSpaceOnUse">
      <stop offset="0" stop-color="#23262a" stop-opacity=".6"/>
      <stop offset=".41" stop-color="#23262a" stop-opacity=".44"/>
      <stop offset=".99" stop-color="#23262a" stop-opacity="0"/>
      <stop offset="1" stop-color="#23262a" stop-opacity="0"/>
    </linearGradient>
    <linearGradient id="Degradado_sin_nombre_60" data-name="Degradado sin nombre 60" x1="10867.48" y1="159.42" x2="10931.35" y2="71.12" gradientTransform="translate(11376.76) rotate(-180) scale(1 -1)" gradientUnits="userSpaceOnUse">
      <stop offset="0" stop-color="#fff" stop-opacity=".6"/>
      <stop offset=".13" stop-color="#fff" stop-opacity=".57"/>
      <stop offset=".3" stop-color="#fff" stop-opacity=".5"/>
      <stop offset=".51" stop-color="#fff" stop-opacity=".38"/>
      <stop offset=".74" stop-color="#fff" stop-opacity=".22"/>
      <stop offset=".99" stop-color="#fff" stop-opacity=".01"/>
      <stop offset="1" stop-color="#fff" stop-opacity="0"/>
    </linearGradient>
    <linearGradient id="Degradado_sin_nombre_14-2" data-name="Degradado sin nombre 14" x1="10899.99" y1="175.2" x2="10961.01" y2="90.83" xlink:href="#Degradado_sin_nombre_14"/>
  </defs>
  <g>
    <polygon class="cls-3" points="512.26 149.01 598.41 99.28 490.25 37.15 489.7 38.11 596.18 99.28 511.71 148.04 512.26 149.01"/>
    <polygon class="cls-2" points="476.13 133.2 476.68 132.24 383.77 78.81 471.99 27.94 489.7 38.11 490.25 37.15 471.99 26.65 471.71 26.81 381.54 78.81 476.13 133.2"/>
    <polygon class="cls-1" points="472.13 135.6 472.69 134.63 383.23 82.85 383.22 79.77 472.13 131.36 472.69 130.4 382.1 77.85 382.12 83.5 382.4 83.66 472.13 135.6"/>
  </g>
  <g>
    <path class="cls-4" d="M473.04,148.7h-1.34v-1.63h1.42l-.03.74c-.03.29-.05.59-.05.88Z"/>
    <g>
      <path class="cls-4" d="M489.98,159.83c-10.08,0-18.28-5.93-18.28-13.23v-58.77h1.34c0,6.55,7.6,11.88,16.93,11.88s16.93-5.33,16.93-11.88h1.34v58.77c0,7.29-8.2,13.23-18.28,13.23ZM473.04,92.81v53.79c0,6.55,7.6,11.88,16.93,11.88s16.93-5.33,16.93-11.88v-53.79c-2.72,4.83-9.29,8.25-16.93,8.25s-14.21-3.41-16.93-8.25Z"/>
      <path class="cls-4" d="M473.04,87.83h-1.34v-1.62h1.42l-.03.74c-.03.29-.05.58-.05.88Z"/>
      <path class="cls-4" d="M489.98,101.06c-10.08,0-18.28-5.93-18.28-13.23,0-.34.02-.68.05-1.02h0c.72-6.84,8.72-12.21,18.23-12.21s17.5,5.36,18.22,12.21c.04.34.05.68.05,1.02,0,7.29-8.2,13.23-18.28,13.23ZM489.98,75.95c-8.82,0-16.24,4.83-16.89,11h0c-.03.29-.05.59-.05.88,0,6.55,7.6,11.88,16.93,11.88s16.93-5.33,16.93-11.88c0-.3-.02-.59-.05-.88-.65-6.17-8.07-11-16.89-11Z"/>
    </g>
  </g>
  <g>
    <g>
      <path class="cls-4" d="M647.28,126.69h-1.34v-47.42c-2.72,4.83-9.29,8.25-16.93,8.25-7.65,0-14.21-3.41-16.93-8.25v27.19h-1.34v-32.17h1.34c0,6.55,7.6,11.88,16.93,11.88s16.93-5.33,16.93-11.88h1.34v52.4Z"/>
      <path class="cls-4" d="M612.07,74.29h-1.34v-1.63h1.42l-.03.74c-.03.29-.05.59-.05.88Z"/>
    </g>
    <g>
      <path class="cls-4" d="M628.92,85.94c-10.08,0-18.28-5.93-18.28-13.23v-10.83h1.34v10.83c0,6.55,7.6,11.88,16.93,11.88s16.93-5.33,16.93-11.88v-1.56h1.34v1.56c0,7.29-8.2,13.23-18.28,13.23Z"/>
      <path class="cls-4" d="M647.2,72.71h-1.34V18.92c-2.72,4.83-9.29,8.25-16.93,8.25s-14.21-3.41-16.93-8.25v53.79h-1.34V13.94h1.34c0,6.55,7.6,11.88,16.93,11.88s16.93-5.33,16.93-11.88h1.34v58.77Z"/>
      <path class="cls-4" d="M611.99,13.94h-1.34v-1.63h1.42s-.03.74-.03.74c-.03.29-.05.59-.05.88Z"/>
      <path class="cls-4" d="M628.92,27.17c-10.08,0-18.28-5.93-18.28-13.23,0-.34.02-.68.05-1.02h0c.72-6.85,8.73-12.21,18.23-12.21s17.5,5.36,18.22,12.21c.04.34.05.68.05,1.02,0,7.29-8.2,13.23-18.28,13.23ZM612.04,13.06c-.03.29-.05.59-.05.88,0,6.55,7.6,11.88,16.93,11.88s16.93-5.33,16.93-11.88c0-.3-.02-.59-.05-.88-.65-6.17-8.07-11-16.89-11s-16.24,4.83-16.89,11h0Z"/>
    </g>
  </g>
  <rect class="cls-4" x="502.44" y="124.17" width="103.14" height="1.34" transform="translate(11.28 292.04) rotate(-29.82)"/>
  <g>
    <path class="cls-4" d="M489.98,240.37c-10.08,0-18.28-5.93-18.28-13.23v-78.73h1.34c0,6.55,7.6,11.88,16.93,11.88s16.93-5.33,16.93-11.88h1.34v78.73c0,7.29-8.2,13.23-18.28,13.23ZM473.04,153.39v73.75c0,6.55,7.6,11.88,16.93,11.88,9.34,0,16.93-5.33,16.93-11.88v-73.75c-2.72,4.83-9.29,8.25-16.93,8.25s-14.21-3.41-16.93-8.25Z"/>
    <path class="cls-4" d="M473.04,148.41h-1.34v-1.63h1.42l-.03.74c-.03.29-.05.59-.05.88Z"/>
    <path class="cls-4" d="M489.98,161.64c-10.08,0-18.28-5.93-18.28-13.23,0-.34.02-.69.05-1.02l1.34.14c-.03.29-.05.59-.05.88,0,6.55,7.6,11.88,16.93,11.88s16.93-5.33,16.93-11.88c0-.3-.02-.59-.05-.88l1.34-.14c.04.34.05.68.05,1.02,0,7.29-8.2,13.23-18.28,13.23Z"/>
  </g>
</svg>