<?xml version="1.0" encoding="UTF-8"?>
<svg xmlns="http://www.w3.org/2000/svg" xmlns:xlink="http://www.w3.org/1999/xlink" viewBox="0 0 786.67 1113.29">
  <defs>
    <style>
      .cls-1 {
        fill: #f6bd1a;
      }

      .cls-2 {
        fill: #88064b;
      }

      .cls-3 {
        filter: url(#drop-shadow-1);
        opacity: .24;
      }

      .cls-4 {
        mix-blend-mode: multiply;
        opacity: .5;
      }

      .cls-5 {
        fill: #be1869;
      }

      .cls-6 {
        isolation: isolate;
      }

      .cls-7 {
        opacity: .41;
      }

      .cls-7, .cls-8 {
        fill: #23262a;
      }

      .cls-9 {
        fill: #0779d6;
      }

      .cls-10 {
        fill: url(#Degradado_sin_nombre_60);
      }

      .cls-11 {
        fill: url(#Degradado_sin_nombre_14);
      }

      .cls-12 {
        fill: url(#Degradado_sin_nombre_29);
      }
    </style>
    <filter id="drop-shadow-1" x="521.94" y="436.83" width="204" height="167" filterUnits="userSpaceOnUse">
      <feOffset dx="0" dy="5"/>
      <feGaussianBlur result="blur" stdDeviation="20"/>
      <feFlood flood-color="#ffeec9" flood-opacity=".8"/>
      <feComposite in2="blur" operator="in"/>
      <feComposite in="SourceGraphic"/>
    </filter>
    <linearGradient id="Degradado_sin_nombre_14" data-name="Degradado sin nombre 14" x1="13517.55" y1="123.17" x2="13581.42" y2="34.87" gradientTransform="translate(13807.74) rotate(-180) scale(1 -1)" gradientUnits="userSpaceOnUse">
      <stop offset="0" stop-color="#23262a" stop-opacity=".6"/>
      <stop offset=".41" stop-color="#23262a" stop-opacity=".44"/>
      <stop offset=".99" stop-color="#23262a" stop-opacity="0"/>
      <stop offset="1" stop-color="#23262a" stop-opacity="0"/>
    </linearGradient>
    <linearGradient id="Degradado_sin_nombre_60" data-name="Degradado sin nombre 60" x1="13564.54" y1="157.16" x2="13628.41" y2="68.86" gradientTransform="translate(13807.74) rotate(-180) scale(1 -1)" gradientUnits="userSpaceOnUse">
      <stop offset="0" stop-color="#fff" stop-opacity=".6"/>
      <stop offset=".13" stop-color="#fff" stop-opacity=".57"/>
      <stop offset=".3" stop-color="#fff" stop-opacity=".5"/>
      <stop offset=".51" stop-color="#fff" stop-opacity=".38"/>
      <stop offset=".74" stop-color="#fff" stop-opacity=".22"/>
      <stop offset=".99" stop-color="#fff" stop-opacity=".01"/>
      <stop offset="1" stop-color="#fff" stop-opacity="0"/>
    </linearGradient>
    <linearGradient id="Degradado_sin_nombre_29" data-name="Degradado sin nombre 29" x1="13592.37" y1="177.29" x2="13656.24" y2="88.99" gradientTransform="translate(13807.74) rotate(-180) scale(1 -1)" gradientUnits="userSpaceOnUse">
      <stop offset="0" stop-color="#23262a" stop-opacity=".6"/>
      <stop offset=".41" stop-color="#23262a" stop-opacity=".44"/>
      <stop offset=".99" stop-color="#23262a" stop-opacity="0"/>
      <stop offset="1" stop-color="#23262a" stop-opacity="0"/>
    </linearGradient>
  </defs>
  <g class="cls-6">
    <g id="Capa_1" data-name="Capa 1">
      <g>
        <g>
          <g>
            <g>
              <polygon class="cls-8" points="632.44 454.1 726.11 403.65 599.85 330.8 599.18 331.97 723.35 403.61 631.8 452.92 632.44 454.1"/>
              <polygon class="cls-7" points="627.47 451.3 628.14 450.14 511.56 383.09 599.54 332.35 617.2 342.5 617.87 341.33 599.54 330.8 599.2 331 508.87 383.09 627.47 451.3"/>
              <polygon class="cls-8" points="631.47 458.28 632.15 457.11 510.9 387.07 510.89 384.26 631.78 454.09 632.46 452.93 509.54 381.92 509.56 387.85 509.89 388.04 631.47 458.28"/>
              <path class="cls-8" d="M632.79,457.11v.17h-1.34v-4.17s94.08-50.67,94.08-50.67v6.03s-92.32,49.41-92.32,49.41l-.41-.77ZM724.18,404.69l-91.39,49.22v2.65s91.39-48.91,91.39-48.91v-2.97Z"/>
            </g>
            <g>
              <polygon class="cls-1" points="649.46 394.02 662.38 418.54 617.18 412.63 649.46 394.02"/>
              <polygon class="cls-1" points="604.26 368.18 617.18 392.71 571.99 386.79 604.26 368.18"/>
            </g>
            <g>
              <g>
                <path class="cls-8" d="M481.65,671.46v18.11c.46.04.91.15,1.34.31v-23.49h-1.34c0,6.81-7.88,12.34-17.58,12.34s-17.57-5.54-17.57-12.34h-1.34v2.61h.35c1.69,6.3,9.38,11.07,18.57,11.07,7.96,0,14.79-3.57,17.58-8.62Z"/>
                <path class="cls-8" d="M481.65,666.39h1.34s0-1.66,0-1.66h-1.42s.03.74.03.74c.03.3.05.61.05.92Z"/>
              </g>
              <path class="cls-8" d="M445.15,666.39c0-.36.02-.71.06-1.06.35-3.36,2.51-6.53,6.24-9.14,1.15-.81,4.29-2.09,4.46-2.15,2.56-.88,5.31-1.33,8.16-1.33,9.83,0,18.12,5.55,18.87,12.63.04.35.06.7.06,1.06,0,7.55-8.49,13.69-18.92,13.69s-18.92-6.14-18.92-13.69ZM456.38,655.29c-.87.35-3.31,1.39-4.16,1.99h0c-3.4,2.39-5.36,5.22-5.67,8.19-.03.3-.05.61-.05.92,0,6.8,7.88,12.34,17.57,12.34,9.69,0,17.58-5.54,17.58-12.34,0-.31-.02-.61-.05-.92-.67-6.41-8.37-11.42-17.53-11.42-2.71,0-5.31.42-7.69,1.25Z"/>
            </g>
            <g>
              <path class="cls-8" d="M484.19,540.28h1.34s0-9.51,0-9.51c1.63,2.58,4.73,4.73,9.28,6.43l.47-1.26c-6.47-2.4-9.75-5.71-9.75-9.81h-1.34s0,14.16,0,14.16Z"/>
              <g>
                <path class="cls-8" d="M495.16,537.08l.37-1.29c-6.35-1.81-10-5.87-10-11.13v-55.84c2.79,5.04,9.62,8.62,17.57,8.62,7.96,0,14.79-3.57,17.58-8.62v50.51s1.34,0,1.34,0v-55.58s-1.34,0-1.34,0c0,6.8-7.88,12.34-17.58,12.34-9.69,0-17.57-5.54-17.57-12.34h-1.34s0,60.91,0,60.91c0,5.91,4,10.44,10.97,12.43Z"/>
                <path class="cls-8" d="M520.68,463.74h1.34s0-1.66,0-1.66h-1.42s.03.74.03.74c.03.3.05.61.05.92Z"/>
                <path class="cls-8" d="M484.19,463.74c0-.36.02-.71.06-1.06.74-7.08,9.03-12.63,18.86-12.63s18.12,5.55,18.87,12.63h0c.04.35.06.7.06,1.06,0,7.55-8.49,13.69-18.92,13.69-10.43,0-18.92-6.14-18.92-13.69ZM503.11,451.4c-9.15,0-16.85,5.02-17.53,11.42-.03.3-.05.61-.05.92,0,6.8,7.88,12.34,17.57,12.34,9.69,0,17.58-5.54,17.58-12.34,0-.31-.02-.61-.05-.92h0c-.67-6.41-8.37-11.42-17.53-11.42Z"/>
              </g>
            </g>
            <g>
              <g>
                <polyline class="cls-5" points="631.35 564.72 725.35 510.67 632.76 457.28 502.88 531.89 595.32 585.24"/>
                <polygon class="cls-8" points="594.98 585.82 595.65 584.66 504.23 531.89 632.76 458.05 724 510.67 631.02 564.14 631.69 565.31 726.69 510.67 632.77 456.5 632.43 456.69 501.54 531.89 594.98 585.82"/>
              </g>
              <g>
                <path class="cls-5" d="M631.35,564.72c.36,1.33.65,2.67.81,4.05l93.16-53.57.02-4.53-93.99,54.06Z"/>
                <path class="cls-8" d="M631.5,568.85c-.15-1.27-.41-2.56-.79-3.95l-.14-.5,95.46-54.9-.02,6.08-94.38,54.27-.12-1.01ZM724.67,511.83l-92.53,53.22c.23.91.42,1.78.56,2.64l91.97-52.89v-2.97Z"/>
              </g>
              <g>
                <polygon class="cls-5" points="502.88 531.89 595.32 585.24 595.34 589.77 502.88 536.55 502.88 531.89"/>
                <path class="cls-8" d="M502.21,536.94v-6.22s93.77,54.13,93.77,54.13l.03,6.08-93.8-53.99ZM503.56,533.05v3.11s91.1,52.44,91.1,52.44v-2.97s-91.1-52.58-91.1-52.58Z"/>
              </g>
            </g>
            <g>
              <polygon class="cls-7" points="474.18 656.34 596.68 585.68 503.98 531.69 503.3 532.85 594 585.68 473.51 655.17 474.18 656.34"/>
              <polygon class="cls-8" points="478.45 658.4 595.98 590.8 596 584.72 473.51 655.17 474.18 656.34 594.65 587.05 594.64 590.02 477.78 657.23 478.45 658.4"/>
            </g>
            <g>
              <g>
                <path class="cls-8" d="M594.64,651.5v-60.91h1.34c0,6.8,7.88,12.34,17.57,12.34,9.69,0,17.58-5.54,17.58-12.34h1.34v60.91c0,7.55-8.49,13.69-18.92,13.69-10.43,0-18.92-6.14-18.92-13.69ZM613.56,604.28c-7.96,0-14.78-3.57-17.57-8.62v55.84c0,6.8,7.88,12.34,17.57,12.34,9.69,0,17.58-5.54,17.58-12.34v-55.84c-2.79,5.05-9.62,8.62-17.58,8.62Z"/>
                <path class="cls-8" d="M631.14,590.59h1.34s0-1.66,0-1.66h-1.42s.03.74.03.74c.03.3.05.61.05.92Z"/>
              </g>
              <g>
                <path class="cls-8" d="M613.56,602.81c10.43,0,18.92-6.14,18.92-13.69v-60.91s-1.34,0-1.34,0c0,6.8-7.88,12.34-17.58,12.34-9.69,0-17.57-5.54-17.57-12.34h-1.34s0,32.64,0,32.64h1.34s0-27.57,0-27.57c2.79,5.04,9.62,8.62,17.57,8.62,7.96,0,14.79-3.57,17.58-8.62v55.84c0,6.8-7.88,12.34-17.58,12.34-9.69,0-17.57-5.54-17.57-12.34v-26.25s-1.34,0-1.34,0v26.25c0,7.55,8.49,13.69,18.92,13.69Z"/>
                <rect class="cls-8" x="594.64" y="560.85" width="1.34" height="2.02"/>
                <path class="cls-8" d="M631.14,528.21h1.34s0-1.66,0-1.66h-1.42s.03.74.03.74c.03.3.05.61.05.92Z"/>
                <path class="cls-8" d="M594.64,528.21c0-.36.02-.71.06-1.06.74-7.08,9.03-12.63,18.86-12.63,9.83,0,18.12,5.55,18.87,12.63h0c.04.35.06.7.06,1.06,0,7.55-8.49,13.69-18.92,13.69s-18.92-6.14-18.92-13.69ZM613.56,515.87c-9.15,0-16.85,5.02-17.53,11.42-.03.3-.05.61-.05.92,0,6.8,7.88,12.34,17.57,12.34,9.69,0,17.58-5.54,17.58-12.34,0-.31-.02-.61-.05-.92h0c-.67-6.41-8.37-11.42-17.53-11.42Z"/>
              </g>
            </g>
            <g>
              <g>
                <path class="cls-8" d="M725.6,566.98v-60.91h1.34c0,6.8,7.88,12.34,17.57,12.34,9.69,0,17.58-5.54,17.58-12.34h1.34v60.91c0,7.55-8.49,13.69-18.92,13.69-10.43,0-18.92-6.14-18.92-13.69ZM744.51,519.75c-7.96,0-14.78-3.57-17.57-8.62v55.84c0,6.8,7.88,12.34,17.57,12.34,9.69,0,17.58-5.54,17.58-12.34v-55.84c-2.79,5.05-9.62,8.62-17.58,8.62Z"/>
                <path class="cls-8" d="M762.09,506.07h1.34s0-1.66,0-1.66h-1.42s.03.74.03.74c.03.3.05.61.05.92Z"/>
              </g>
              <g>
                <path class="cls-8" d="M744.51,518.29c10.43,0,18.92-6.14,18.92-13.69v-60.91s-1.34,0-1.34,0c0,6.8-7.89,12.34-17.58,12.34-9.69,0-17.57-5.54-17.57-12.34h-1.34s0,32.64,0,32.64h1.34s0-27.57,0-27.57c2.79,5.04,9.62,8.62,17.57,8.62,7.96,0,14.79-3.57,17.58-8.62v55.84c0,6.8-7.89,12.34-17.58,12.34-9.69,0-17.57-5.54-17.57-12.34v-26.24s-1.34,0-1.34,0v26.24c0,7.55,8.49,13.69,18.92,13.69Z"/>
                <rect class="cls-8" x="725.6" y="476.33" width="1.34" height="2.02"/>
                <path class="cls-8" d="M762.09,443.69h1.34s0-1.66,0-1.66h-1.42s.03.74.03.74c.03.3.05.61.05.92Z"/>
                <path class="cls-8" d="M725.6,443.69c0-.36.02-.71.06-1.06.74-7.08,9.03-12.63,18.86-12.63s18.12,5.55,18.87,12.63c.04.35.06.7.06,1.06,0,7.55-8.49,13.69-18.92,13.69-10.43,0-18.92-6.14-18.92-13.69ZM726.99,442.77c-.03.3-.05.61-.05.92,0,6.8,7.88,12.34,17.57,12.34,9.69,0,17.58-5.54,17.58-12.34,0-.31-.02-.61-.05-.92h0c-.67-6.41-8.37-11.43-17.53-11.43-9.15,0-16.85,5.02-17.53,11.42Z"/>
              </g>
            </g>
            <g>
              <path class="cls-8" d="M473.82,655.41s-.07-.03-.11-.05l74.25-42.7c.1.43.17.81.22,1.2l-73.39,42.21c-.31-.23-.63-.45-.97-.65Z"/>
              <path class="cls-8" d="M473.82,655.41s-.07-.03-.11-.05l74.25-42.7c.1.42.17.81.22,1.2l-73.39,42.21c-.31-.23-.63-.45-.97-.65Z"/>
              <path class="cls-8" d="M476.88,658.04l71.51-41.12c.05.41.13.8.26,1.18l-71.11,40.89c-.2-.32-.42-.64-.67-.94Z"/>
            </g>
            <g>
              <path class="cls-8" d="M563.81,596.03c7.69,0,16.22-2.2,25.54-6.59,1.37-.65,2.58-1.38,3.86-2.17.77-.47,1.56-.96,2.44-1.45l1.02-.58-92.63-53.97-.34.19c-2.26,1.27-4.5,2.43-6.66,3.45-7.44,3.51-14.46,5.6-20.87,6.23l.13,1.34c6.56-.64,13.73-2.78,21.31-6.35,2.08-.98,4.24-2.09,6.41-3.3l89.95,52.41c-.51.3-.99.6-1.47.89-1.25.76-2.43,1.48-3.73,2.1-16.58,7.81-30.56,8.54-41.56,2.15l-.68,1.16c5.15,3,10.92,4.49,17.27,4.49Z"/>
              <path class="cls-8" d="M431.4,525.28l9.17-5.3,93.07,54.09-9.17,5.3-93.07-54.09ZM440.57,521.54l-6.49,3.75,90.39,52.53,6.49-3.75-90.39-52.53Z"/>
              <path class="cls-8" d="M473.39,655.67c6.99-5.3,13.58-11.46,19.58-18.3,12.77-14.55,20.9-29.92,25.46-40.25,4.16-9.42,6.17-16.42,6.69-18.34l.13-.5-.44-.26-92.49-53.75-.23.85c-.51,1.9-2.5,8.82-6.62,18.15-4.52,10.24-12.58,25.48-25.24,39.91-9.19,10.46-19.63,19.2-31.04,25.96l.69,1.16c11.53-6.84,22.09-15.66,31.36-26.23,12.78-14.55,20.9-29.92,25.46-40.25,3.69-8.35,5.69-14.81,6.46-17.5l90.53,52.61c-.68,2.43-2.67,9-6.49,17.65-4.53,10.25-12.58,25.49-25.24,39.91-5.95,6.78-12.47,12.87-19.39,18.12l.81,1.07Z"/>
              <path class="cls-8" d="M563.6,596.21c9.46,0,20.18-3.35,32.05-10.01l-.66-1.17c-16.72,9.4-31.07,12.08-42.65,7.98-12.73-4.51-18.06-15.78-19.39-19.13l-.29-.72-.69.34-7.83,4.52.67,1.16,7.17-4.14c1.8,4.19,7.44,14.82,19.91,19.24,3.65,1.29,7.56,1.94,11.71,1.94Z"/>
            </g>
            <g>
              <g>
                <path class="cls-5" d="M689.42,495.06l-5.53,13.43,11.47,6.67c1.61-4.37,5.52-6.94,7.92-10.93l-2.26-2.82-11.6-6.36Z"/>
                <path class="cls-8" d="M683.05,508.78l6.04-14.67,12.26,6.72,2.76,3.35-.24.4c-1.03,1.71-2.32,3.16-3.57,4.56-1.75,1.96-3.39,3.81-4.29,6.25l-.28.75-12.67-7.37ZM700.58,501.95l-10.83-5.94-5.02,12.19,10.3,5.99c1.03-2.32,2.66-4.16,4.25-5.94,1.11-1.24,2.25-2.53,3.17-3.96l-1.88-2.34Z"/>
              </g>
              <g>
                <polygon class="cls-5" points="639.06 563.48 650.53 570.15 652.8 559.86 641.32 553.19 639.06 563.48"/>
                <path class="cls-8" d="M638.3,563.81l2.56-11.67,12.7,7.38-2.56,11.67-12.7-7.38ZM641.78,554.23l-1.96,8.91,10.25,5.96,1.96-8.91-10.25-5.96Z"/>
              </g>
              <g>
                <g>
                  <polygon class="cls-5" points="648.06 568.72 648.06 568.71 639.06 563.48 648.06 568.72"/>
                  <polygon class="cls-8" points="648.74 569.88 648.74 568.32 639.4 562.9 638.72 564.06 648.74 569.88"/>
                </g>
                <g>
                  <g>
                    <path class="cls-5" d="M653.34,597.72l-11.47-6.67,3.9,5.95,11.47,6.67s2.81-5.5,6.34-12.25c-2.14-.11-3.37-.37-5.43-1.94l-4.81,8.24Z"/>
                    <path class="cls-8" d="M645.29,597.49l-5.55-8.46,13.36,7.77,4.86-8.32.6.46c1.97,1.5,3.06,1.7,5.06,1.81l1.05.05-.49.93c-3.53,6.75-6.34,12.24-6.34,12.24l-.32.63-12.23-7.11ZM658.36,590.46l-4.78,8.18-9.59-5.58,2.25,3.43,10.72,6.24c.79-1.54,2.94-5.71,5.55-10.71-1.53-.16-2.66-.52-4.16-1.56Z"/>
                  </g>
                  <g>
                    <polygon class="cls-5" points="641.86 591.05 653.34 597.72 660.95 584.69 649.47 578.01 641.86 591.05"/>
                    <path class="cls-8" d="M640.94,591.29l8.29-14.19,12.64,7.35-8.28,14.19-12.64-7.35ZM649.71,578.93l-6.93,11.87,10.31,6,6.93-11.87-10.31-6Z"/>
                  </g>
                  <g>
                    <polygon class="cls-5" points="706.75 508.56 709.94 520.05 718.22 515.23 728.61 506.45 717.14 499.77 706.75 508.56"/>
                    <path class="cls-8" d="M705.98,508.32l11.08-9.37,12.71,7.39-11.21,9.47-9.03,5.26-3.55-12.75ZM717.21,500.59l-9.7,8.2,2.85,10.24,7.43-4.32,9.66-8.17-10.24-5.96Z"/>
                  </g>
                  <g>
                    <polygon class="cls-5" points="665.6 603.84 677.08 610.52 679.02 588.26 665.69 591.5 665.6 603.84"/>
                    <path class="cls-8" d="M664.93,604.23l.1-13.26,14.75-3.59-2.12,24.24-12.73-7.4ZM666.36,592.03l-.08,11.43,10.22,5.95,1.77-20.27-11.91,2.9Z"/>
                  </g>
                  <g>
                    <path class="cls-2" d="M709.94,520.05l-3.2-11.5-1.88-2.34c-3.07,5.45-4.62,11.58-7.35,17.22-1.2,2.47-2.27,5.26-3.49,7.94,1.61,1.85,2.56,4.65,2.56,8.25,0,9.66-6.78,21.41-15.15,26.24-1.28.74-2.59.97-3.88.83-.82-.09-8.32,13.92-13.97,24.72.62.03,1.3.05,2.11.09l13.33-3.24c4.19-2.06,8.26-4.97,12.07-8.49l7.46,4.45,7.1-8.61-2.4-10.57c3.09-4.86,5.7-10.09,7.66-15.44l10.64-6.04,4.71-4.9.08-3.92-11.56-2.76c.32-5.06-3.67-8.19-4.84-11.94Z"/>
                    <path class="cls-8" d="M664.83,592.14c-.46-.02-.89-.03-1.28-.05l-1.05-.06.49-.93c13.21-25.24,13.94-25.14,14.64-25.08,1.22.14,2.39-.12,3.48-.74,8.17-4.72,14.82-16.23,14.82-25.66,0-3.31-.83-6.01-2.39-7.81l-.28-.33.18-.39c.51-1.13,1-2.28,1.48-3.42.68-1.6,1.31-3.1,2.01-4.54,1.18-2.43,2.15-5,3.1-7.49,1.24-3.27,2.52-6.64,4.28-9.76l.49-.87,2.5,3.12,3.32,11.73c.4,1.3,1.18,2.54,2.01,3.86,1.36,2.17,2.89,4.61,2.88,7.75l11.55,2.75-.1,4.72-4.89,5.09-10.58,6.04c-1.92,5.19-4.44,10.27-7.49,15.1l2.42,10.62-7.68,9.31-7.52-4.49c-3.84,3.5-7.83,6.28-11.86,8.26l-13.56,3.31-.93-.04ZM690.64,579.27l.37-.34,7.4,4.41,6.52-7.91-2.39-10.52.15-.24c3.11-4.89,5.67-10.04,7.6-15.3l.08-.23,10.77-6.11,4.46-4.64.07-3.11-11.58-2.76.04-.56c.19-2.98-1.26-5.29-2.65-7.52-.87-1.4-1.7-2.72-2.16-4.19l-3.17-11.38-1.16-1.45c-1.47,2.79-2.61,5.79-3.71,8.7-.95,2.52-1.94,5.12-3.14,7.6-.68,1.41-1.32,2.9-1.98,4.48-.43,1.02-.87,2.05-1.32,3.06,1.6,2.03,2.44,4.91,2.44,8.35,0,9.86-6.95,21.9-15.49,26.83-1.26.73-2.62,1.05-4.05.94-.63.68-3.14,4.48-13.05,23.4.07,0,.14,0,.21,0l.75.03,13.16-3.2c4.02-1.99,8-4.8,11.85-8.35Z"/>
                  </g>
                  <g>
                    <polygon class="cls-5" points="726.26 538.67 735.28 539.96 726.34 534.76 726.26 538.67"/>
                    <path class="cls-8" d="M725.57,539.25l.12-5.65,12.91,7.51-13.03-1.85ZM726.94,538.09l5.03.72-4.98-2.9-.05,2.18Z"/>
                  </g>
                </g>
                <g>
                  <path class="cls-5" d="M650.53,570.15l-2.47-1.44c.08,3.44.56,6.56,1.41,9.3l11.47,6.67-.77-13.47-9.65-1.07Z"/>
                  <path class="cls-8" d="M648.91,578.46l-.08-.25c-.87-2.82-1.36-6.01-1.44-9.48l-.03-1.2,3.38,1.97,10.07,1.11.87,15.29-12.78-7.43ZM650.46,570.82l-1.68-.91c.15,2.78.57,5.35,1.25,7.65l10.17,5.91-.66-11.66-9.08-1Z"/>
                </g>
              </g>
              <g>
                <polygon class="cls-5" points="641.32 553.19 652.8 559.86 663.49 553.79 652.02 547.11 641.32 553.19"/>
                <path class="cls-8" d="M639.97,553.18l12.05-6.84,12.82,7.46-12.05,6.84-12.82-7.46ZM652.02,547.89l-9.34,5.31,10.13,5.89,9.34-5.3-10.13-5.89Z"/>
              </g>
              <g>
                <path class="cls-5" d="M652.02,547.11l11.47,6.67,7.6-15.33-11.47-6.67c-3.06,4.83-5.65,10.02-7.6,15.33Z"/>
                <path class="cls-8" d="M651.19,547.41l.19-.53c1.95-5.32,4.53-10.52,7.66-15.46l.35-.55,12.58,7.32-8.2,16.53-12.58-7.32ZM659.84,532.7c-2.83,4.53-5.18,9.27-7,14.12l10.36,6.03,7-14.12-10.37-6.03Z"/>
              </g>
              <g>
                <polygon class="cls-5" points="657.2 521.14 659.62 531.79 671.09 538.46 668.67 527.81 657.2 521.14"/>
                <path class="cls-8" d="M659.03,532.22l-2.83-12.44,13.06,7.6,2.83,12.44-13.06-7.6ZM658.2,522.5l2.01,8.85,9.88,5.75-2.01-8.85-9.88-5.75Z"/>
              </g>
              <g>
                <path class="cls-5" d="M657.2,521.14l11.47,6.67s3.27-2.7,4.33-3.32c.96-.55,2.77-5.29,2.77-5.29l-11.47-6.67-7.1,8.61Z"/>
                <path class="cls-8" d="M656.18,521.32l7.97-9.66,12.46,7.25-.2.53c-.57,1.49-2.01,5.02-3.06,5.63-.83.48-3.35,2.51-4.24,3.25l-.36.3-12.56-7.31ZM664.45,513.4l-6.23,7.55,10.39,6.04c.89-.73,3.17-2.57,4.06-3.08.43-.28,1.47-2.41,2.27-4.42l-10.48-6.1Z"/>
              </g>
              <g>
                <path class="cls-5" d="M671.88,516.94l3.9,2.27,7.5,4.48s7.05,5.18,8.62,6.01c.25-.59.5-1.15.74-1.66,1.76-3.68,1.32-9.04,2.73-12.87l-11.47-6.67c-4.17,2.05-8.22,4.95-12.02,8.45Z"/>
                <path class="cls-8" d="M691.58,530.29c-1.6-.84-8.42-5.85-8.66-6.03l-7.49-4.47-4.68-2.72.67-.62c3.95-3.65,8.05-6.53,12.18-8.56l.32-.16,12.27,7.14-.2.53c-.62,1.69-.87,3.68-1.13,5.79-.31,2.48-.63,5.05-1.62,7.14-.24.5-.48,1.06-.73,1.64l-.29.67-.64-.34ZM683.87,509.25c-3.67,1.85-7.32,4.39-10.86,7.57l10.66,6.32c.06.05,5.67,4.16,7.91,5.59.15-.34.3-.67.45-.98.9-1.89,1.21-4.35,1.5-6.73.23-1.89.48-3.84,1.02-5.55l-10.68-6.21Z"/>
              </g>
              <g>
                <path class="cls-5" d="M671.8,517.01s.05-.04.08-.07l-7.58-4.41,7.5,4.48Z"/>
                <polygon class="cls-8" points="671.88 517.84 672.25 517.51 671.83 517.03 671.83 517.03 672.27 517.49 673 516.88 672.21 516.36 664.64 511.95 663.95 513.11 671.88 517.84"/>
              </g>
              <g>
                <polygon class="cls-5" points="689.55 494.75 689.42 495.06 701.02 501.42 708.8 499.54 697.33 492.86 689.55 494.75"/>
                <path class="cls-8" d="M688.57,495.36l.49-1.19,8.38-2.03,13.15,7.65-9.66,2.34-12.36-6.78ZM697.23,493.58l-6.32,1.53,10.21,5.6,5.9-1.43-9.79-5.7Z"/>
              </g>
              <g>
                <path class="cls-5" d="M724.92,525.4l7.59-13-3.9-5.95-10.39,8.78c-2.66-2.02-5.87-3.16-9.51-3.31l.09-12.38-7.78,1.88-5.66,13.74c-4.2,2.07-8.28,4.98-12.1,8.52l-7.5-4.48-7.1,8.61,2.42,10.65c-3.06,4.83-5.65,10.02-7.6,15.33l-10.7,6.07-2.26,10.29,9.08,1.29c-.31,5.04.17,9.49,1.33,13.25l-7.61,13.03,3.9,5.95,10.41-8.8c2.66,2.02,5.88,3.16,9.52,3.31l-.09,12.34,7.78-1.88,5.64-13.7c4.19-2.06,8.26-4.97,12.07-8.5l7.46,4.45,7.1-8.61-2.4-10.57c3.09-4.86,5.7-10.09,7.66-15.44l10.64-6.04,2.26-10.29-9.03-1.28c.32-5.06-.17-9.52-1.33-13.28ZM692.91,572.54c-8.37,4.83-15.15.91-15.15-8.75,0-9.66,6.78-21.41,15.15-26.24,8.37-4.83,15.15-.92,15.15,8.75,0,9.66-6.78,21.41-15.15,26.24Z"/>
                <path class="cls-8" d="M676.49,598.81c-3.3-.24-6.26-1.28-8.81-3.09l-10.58,8.95-4.55-6.93,7.67-13.14c-1.1-3.7-1.54-7.93-1.31-12.58l-9.19-1.31,2.48-11.29,10.74-6.1c1.91-5.16,4.41-10.2,7.43-14.99l-2.43-10.7,7.68-9.31,7.56,4.51c3.78-3.45,7.7-6.2,11.66-8.18l5.69-13.83,8.95-2.16-.09,12.6c3.3.24,6.26,1.28,8.8,3.09l10.57-8.93,4.55,6.93-7.65,13.11c1.11,3.71,1.55,7.95,1.31,12.61l9.13,1.3-2.48,11.29-10.68,6.06c-1.92,5.19-4.44,10.27-7.49,15.1l2.42,10.62-7.68,9.31-7.53-4.49c-3.77,3.44-7.68,6.18-11.63,8.15l-5.67,13.78-8.95,2.16.09-12.56ZM689.97,594.45l.23-.11c4.04-1.99,8.05-4.81,11.91-8.39l.37-.34,7.4,4.41,6.52-7.91-2.39-10.52.15-.24c3.11-4.88,5.67-10.03,7.6-15.3l.08-.23,10.59-6.01,2.04-9.29-8.92-1.27.04-.62c.3-4.87-.13-9.25-1.31-13.04l-.09-.28,7.53-12.9-3.26-4.96-10.22,8.64-.43-.33c-2.58-1.96-5.65-3.03-9.13-3.17l-.65-.03.09-12.17-6.61,1.6-5.62,13.66-.23.11c-4.05,1.99-8.06,4.82-11.94,8.41l-.37.34-7.44-4.44-6.52,7.91,2.41,10.6-.15.24c-3.08,4.85-5.62,9.96-7.54,15.2l-.08.23-10.65,6.05-2.04,9.29,8.98,1.28-.04.62c-.3,4.86.14,9.23,1.3,13.01l.09.28-7.55,12.92,3.26,4.96,10.24-8.66.43.33c2.58,1.96,5.66,3.03,9.14,3.17l.65.03-.09,12.13,6.61-1.6,5.6-13.62ZM681.86,574.19c-3.08-1.78-4.77-5.47-4.77-10.39,0-9.86,6.95-21.9,15.49-26.83,4.26-2.46,8.31-2.84,11.39-1.06,3.08,1.78,4.77,5.47,4.77,10.39,0,9.86-6.95,21.9-15.49,26.83-2.49,1.44-4.91,2.17-7.11,2.17-1.56,0-3-.37-4.28-1.11ZM693.25,538.13c-8.17,4.72-14.82,16.23-14.82,25.66,0,4.42,1.46,7.7,4.1,9.23,2.64,1.53,6.21,1.15,10.04-1.06,8.17-4.72,14.82-16.23,14.82-25.66,0-4.42-1.46-7.7-4.1-9.23-1.07-.62-2.29-.92-3.61-.92-1.96,0-4.15.67-6.43,1.99Z"/>
              </g>
            </g>
            <g class="cls-3">
              <g>
                <polygon class="cls-8" points="595.15 516.31 583.84 537.76 623.38 532.59 595.15 516.31"/>
                <path class="cls-8" d="M594.88,515.38l30.56,17.62-42.79,5.6,12.23-23.22ZM595.41,517.24l-10.37,19.68,36.28-4.74-25.91-14.94Z"/>
              </g>
              <g>
                <polygon class="cls-8" points="634.68 493.71 623.38 515.17 662.91 510 634.68 493.71"/>
                <path class="cls-8" d="M634.41,492.78l30.56,17.62-42.79,5.6,12.23-23.22ZM634.95,494.65l-10.37,19.68,36.28-4.74-25.91-14.94Z"/>
              </g>
            </g>
            <path class="cls-8" d="M763.4,487.4c13.01-10.97,17.66-31.27,10.83-47.2-6.98-15.71-22.05-23.3-36.61-30.65-4.16-2.1-8.46-4.26-12.43-6.57l-.67,1.16c4.01,2.32,8.33,4.5,12.5,6.6,14.36,7.24,29.2,14.72,35.99,29.98,6.6,15.41,2.11,35.03-10.47,45.64l.87,1.03Z"/>
            <path class="cls-8" d="M763.53,490.4c7.16-6.92,11.88-15.8,13.29-25.02l-1.33-.2c-1.37,8.93-5.95,17.54-12.89,24.26l.94.97Z"/>
          </g>
          <path class="cls-8" d="M482.99,690.8v-24.41h-1.34v23.98c.47.07.92.21,1.34.43Z"/>
        </g>
        <g>
          <g>
            <path class="cls-9" d="M365.7,715.78c.9.04,1.71.3,2.42.7-.05-.24-.1-.48-.11-.74-.05-.75-.04-1.48,0-2.2v-.4l-40.36-23.26c-15.23-8.78-19.72-26.87-13.47-41.14-9.81,14.75-6.2,36.19,10.82,46l36.07,20.79c1.5-.33,3.09-.01,4.63.26Z"/>
            <path class="cls-8" d="M361.71,715.11l-36.37-20.96c-7.68-4.43-13.01-11.56-15.01-20.09-1.41-5.99-1.05-12.22.92-17.91-2.33,13.42,3.81,27.24,16.07,34.3l40.02,23.08c-.04.79-.04,1.48,0,2.16.26-.02.52-.04.78-.04.19,0,.38.03.56.05,0,0,0,0,0-.01-.04-.65-.04-1.32,0-2.12v-.83s-40.69-23.45-40.69-23.45c-14.03-8.09-19.7-25.41-13.19-40.29l-1.18-.64c-5.03,7.56-6.71,17.04-4.61,26.01,2.09,8.89,7.65,16.33,15.65,20.95l35.4,20.4c.5-.28,1.05-.48,1.64-.61Z"/>
          </g>
          <g>
            <path class="cls-9" d="M327.76,633.41l41.18-23.9,26.09,14.83,13.17-6.23c4.84-2.29,10.48-2.08,15.14.56l16.95,9.6c3.98,2.25,3.89,8.01-.15,10.15l-9.84,5.19.41,1,27.93,15.88-90.11,52.41-40.68-23.45c-21.57-12.43-21.62-43.55-.08-56.05Z"/>
            <path class="cls-8" d="M327.51,690.04c-10.34-5.96-16.53-16.65-16.55-28.58-.02-11.94,6.13-22.64,16.46-28.63l41.52-24.09,26.12,14.85,12.86-6.08c5.03-2.38,10.92-2.16,15.76.58l16.95,9.6c2.09,1.18,3.31,3.32,3.27,5.71s-1.32,4.49-3.44,5.61l-9.3,4.91.09.22,28.74,16.34-91.46,53.19-41.02-23.64ZM430.18,645.09l-.73-1.78,10.38-5.48c1.68-.89,2.7-2.55,2.73-4.44.03-1.9-.94-3.59-2.59-4.52l-16.95-9.6c-4.46-2.53-9.88-2.73-14.52-.54l-13.49,6.37-26.06-14.81-40.85,23.71c-9.9,5.75-15.81,16.02-15.79,27.47s5.95,21.7,15.87,27.42l40.35,23.25,88.76-51.63-27.11-15.41Z"/>
          </g>
        </g>
        <g>
          <g>
            <polygon class="cls-11" points="246.19 146.75 332.33 97.02 224.18 34.89 223.62 35.85 330.11 97.02 245.63 145.79 246.19 146.75"/>
            <polygon class="cls-10" points="210.05 130.95 210.61 129.98 117.7 76.55 205.91 25.68 223.62 35.85 224.18 34.89 205.91 24.4 205.63 24.56 115.47 76.55 210.05 130.95"/>
            <polygon class="cls-12" points="210.73 135.69 211.29 134.73 117.15 80.6 117.14 77.51 210.73 131.34 211.29 130.37 116.02 75.59 116.04 81.24 116.32 81.4 210.73 135.69"/>
          </g>
          <g>
            <rect class="cls-8" x="303.56" y="120.43" width="1.34" height="133.02" transform="translate(-9.48 357.48) rotate(-60.1)"/>
            <rect class="cls-8" x="306.22" y="113.76" width="1.35" height="140.7" transform="translate(-5.71 358.36) rotate(-60.1)"/>
            <polygon class="cls-8" points="374.72 220.37 374.05 219.2 456.56 171.71 456.56 168.77 368.21 219.77 367.54 218.6 457.9 166.44 457.9 172.49 374.72 220.37"/>
          </g>
          <g>
            <g>
              <path class="cls-8" d="M509.35,388.55v-5.9l90.5-52.02v6.05l-90.5,51.87ZM510.7,383.43v2.8l87.81-50.33v-2.95l-87.81,50.47Z"/>
              <path class="cls-8" d="M510.77,388.51l-1-.51c-1.08-.55-26.44-13.58-30.42-15.88-4.43-2.55-27.32-20.55-35.53-32.87-1.05-1.58-2.1-3.1-3.13-4.61-7.22-10.54-14.05-20.49-20.41-44.19-7.07-26.33-23.51-47.26-35.79-55.55l.75-1.12c12.48,8.43,29.18,29.65,36.34,56.32,6.31,23.48,13.06,33.34,20.22,43.78,1.04,1.52,2.09,3.04,3.14,4.63,8.11,12.16,30.71,29.93,35.09,32.45,3.51,2.02,24.5,12.83,29.36,15.33-.01-.73-.03-1.75-.05-2.88l-19.5-10.14c-31.85-18.11-54.94-47.34-65.05-82.31-2.23-7.73-4.53-14.47-6.83-20.03-10.99-26.59-33.63-41.18-33.85-41.33l.72-1.14c.23.15,23.22,14.95,34.38,41.95,2.32,5.61,4.63,12.39,6.88,20.17,10.01,34.63,32.88,63.58,64.4,81.5l20.19,10.5v.4c.04,2.39.08,4.4.08,4.4l.02,1.13Z"/>
            </g>
            <path class="cls-8" d="M510.69,384.15l-.65-.35-.15.09-.35-.36-19.76-10.27c-31.85-18.11-54.94-47.34-65.05-82.31-2.23-7.73-4.53-14.47-6.83-20.03-10.99-26.59-33.63-41.18-33.85-41.33l.72-1.14c.23.15,23.22,14.95,34.38,41.95,2.32,5.6,4.63,12.39,6.88,20.17,10.01,34.63,32.88,63.58,64.4,81.5l19.59,10.19,87.9-50.65-17.81-10.13c-31.83-18.1-54.92-47.32-65.03-82.29-2.23-7.73-4.53-14.47-6.83-20.03-10.99-26.59-33.63-41.18-33.85-41.33l-17.83-10.17.67-1.17,17.86,10.19c.26.16,23.25,14.97,34.4,41.96,2.32,5.6,4.63,12.39,6.88,20.17,10.01,34.63,32.88,63.58,64.4,81.5l19.85,11.29-89.91,51.81-.03.73Z"/>
          </g>
          <g>
            <g>
              <path class="cls-8" d="M367.6,383.67c-10.08,0-18.28-5.93-18.28-13.23v-58.77h1.34c0,6.55,7.6,11.88,16.93,11.88s16.93-5.33,16.93-11.88h1.34v58.77c0,7.29-8.2,13.23-18.28,13.23ZM350.66,316.65v53.79c0,6.55,7.6,11.88,16.93,11.88,9.34,0,16.93-5.33,16.93-11.88v-53.79c-2.72,4.83-9.29,8.25-16.93,8.25s-14.21-3.41-16.93-8.25Z"/>
              <path class="cls-8" d="M350.66,311.67h-1.34s0-1.63,0-1.63h1.42l-.03.74c-.03.29-.05.59-.05.88Z"/>
              <path class="cls-8" d="M367.6,324.9c-10.08,0-18.28-5.93-18.28-13.23,0-.34.02-.69.05-1.02l1.34.14c-.03.29-.05.59-.05.88,0,6.55,7.6,11.88,16.93,11.88s16.93-5.33,16.93-11.88c0-.3-.02-.59-.05-.88l1.34-.14c.04.34.05.68.05,1.02,0,7.29-8.2,13.23-18.28,13.23Z"/>
            </g>
            <g>
              <path class="cls-8" d="M367.6,323.48c-10.08,0-18.28-5.93-18.28-13.23v-78.58h1.34c0,6.55,7.6,11.88,16.93,11.88,9.34,0,16.93-5.33,16.93-11.88h1.34v78.58c0,7.29-8.2,13.23-18.28,13.23ZM350.66,236.65v73.6c0,6.55,7.6,11.88,16.93,11.88s16.93-5.33,16.93-11.88v-73.6c-2.72,4.83-9.29,8.25-16.93,8.25s-14.21-3.41-16.93-8.25Z"/>
              <path class="cls-8" d="M350.66,231.67h-1.34v-1.63h1.42l-.03.74c-.03.29-.05.59-.05.88Z"/>
              <path class="cls-8" d="M367.6,244.9c-10.08,0-18.28-5.93-18.28-13.23,0-.34.02-.69.05-1.02h0c.72-6.84,8.72-12.21,18.23-12.21s17.5,5.36,18.22,12.21c.04.34.05.68.05,1.02,0,7.29-8.2,13.23-18.28,13.23ZM367.6,219.79c-8.82,0-16.24,4.83-16.89,11h0c-.03.29-.05.59-.05.88,0,6.55,7.6,11.88,16.93,11.88,9.34,0,16.93-5.33,16.93-11.88,0-.3-.02-.59-.05-.88-.65-6.17-8.07-11-16.89-11Z"/>
            </g>
          </g>
          <rect class="cls-8" x="306.22" y="113.76" width="1.35" height="140.7" transform="translate(-5.71 358.36) rotate(-60.1)"/>
          <polygon class="cls-8" points="368.21 219.77 367.54 218.6 455.88 167.61 336.58 99.07 337.25 97.91 458.57 167.6 368.21 219.77"/>
          <g>
            <path class="cls-8" d="M211.2,147.99h-1.34v-1.63h1.42l-.03.74c-.03.29-.05.59-.05.88Z"/>
            <g>
              <path class="cls-8" d="M228.14,159.12c-10.08,0-18.28-5.93-18.28-13.23v-58.77h1.34c0,6.55,7.6,11.88,16.93,11.88s16.93-5.33,16.93-11.88h1.34v58.77c0,7.29-8.2,13.23-18.28,13.23ZM211.2,92.1v53.79c0,6.55,7.6,11.88,16.93,11.88s16.93-5.33,16.93-11.88v-53.79c-2.72,4.83-9.29,8.25-16.93,8.25s-14.21-3.41-16.93-8.25Z"/>
              <path class="cls-8" d="M211.2,87.12h-1.34v-1.62h1.42l-.03.74c-.03.29-.05.58-.05.88Z"/>
              <path class="cls-8" d="M228.14,100.35c-10.08,0-18.28-5.93-18.28-13.23,0-.34.02-.68.05-1.02h0c.72-6.84,8.72-12.21,18.23-12.21s17.5,5.36,18.22,12.21c.04.34.05.68.05,1.02,0,7.29-8.2,13.23-18.28,13.23ZM228.14,75.24c-8.82,0-16.24,4.83-16.89,11h0c-.03.29-.05.59-.05.88,0,6.55,7.6,11.88,16.93,11.88s16.93-5.33,16.93-11.88c0-.3-.02-.59-.05-.88-.65-6.17-8.07-11-16.89-11Z"/>
            </g>
          </g>
          <g>
            <g>
              <path class="cls-8" d="M385.44,125.98h-1.34v-47.42c-2.72,4.83-9.29,8.25-16.93,8.25-7.65,0-14.21-3.41-16.93-8.25v27.19h-1.34v-32.17h1.34c0,6.55,7.6,11.88,16.93,11.88s16.93-5.33,16.93-11.88h1.34v52.4Z"/>
              <path class="cls-8" d="M350.22,73.58h-1.34v-1.63h1.42l-.03.74c-.03.29-.05.59-.05.88Z"/>
            </g>
            <g>
              <path class="cls-8" d="M367.08,85.23c-10.08,0-18.28-5.93-18.28-13.23v-10.83h1.34v10.83c0,6.55,7.6,11.88,16.93,11.88s16.93-5.33,16.93-11.88v-1.56h1.34v1.56c0,7.29-8.2,13.23-18.28,13.23Z"/>
              <path class="cls-8" d="M385.36,72h-1.34V18.21c-2.72,4.83-9.29,8.25-16.93,8.25s-14.21-3.41-16.93-8.25v53.79h-1.34V13.23h1.34c0,6.55,7.6,11.88,16.93,11.88s16.93-5.33,16.93-11.88h1.34v58.77Z"/>
              <path class="cls-8" d="M350.15,13.23h-1.34v-1.63h1.42s-.03.74-.03.74c-.03.29-.05.59-.05.88Z"/>
              <path class="cls-8" d="M367.08,26.46c-10.08,0-18.28-5.93-18.28-13.23,0-.34.02-.68.05-1.02h0c.72-6.85,8.73-12.21,18.23-12.21s17.5,5.36,18.22,12.21c.04.34.05.68.05,1.02,0,7.29-8.2,13.23-18.28,13.23ZM350.19,12.35c-.03.29-.05.59-.05.88,0,6.55,7.6,11.88,16.93,11.88s16.93-5.33,16.93-11.88c0-.3-.02-.59-.05-.88-.65-6.17-8.07-11-16.89-11s-16.24,4.83-16.89,11h0Z"/>
            </g>
          </g>
          <rect class="cls-8" x="240.6" y="123.46" width="103.14" height="1.34" transform="translate(-23.04 161.73) rotate(-29.82)"/>
          <g>
            <path class="cls-8" d="M228.14,239.66c-10.08,0-18.28-5.93-18.28-13.23v-78.73h1.34c0,6.55,7.6,11.88,16.93,11.88s16.93-5.33,16.93-11.88h1.34v78.73c0,7.29-8.2,13.23-18.28,13.23ZM211.2,152.68v73.75c0,6.55,7.6,11.88,16.93,11.88,9.34,0,16.93-5.33,16.93-11.88v-73.75c-2.72,4.83-9.29,8.25-16.93,8.25s-14.21-3.41-16.93-8.25Z"/>
            <path class="cls-8" d="M211.2,147.7h-1.34v-1.63h1.42l-.03.74c-.03.29-.05.59-.05.88Z"/>
            <path class="cls-8" d="M228.14,160.93c-10.08,0-18.28-5.93-18.28-13.23,0-.34.02-.69.05-1.02l1.34.14c-.03.29-.05.59-.05.88,0,6.55,7.6,11.88,16.93,11.88s16.93-5.33,16.93-11.88c0-.3-.02-.59-.05-.88l1.34-.14c.04.34.05.68.05,1.02,0,7.29-8.2,13.23-18.28,13.23Z"/>
          </g>
          <g>
            <path class="cls-8" d="M228.14,320.37c-10.08,0-18.28-5.93-18.28-13.23v-78.73h1.34c0,6.55,7.6,11.88,16.93,11.88s16.93-5.33,16.93-11.88h1.34v78.73c0,7.29-8.2,13.23-18.28,13.23ZM211.2,233.39v73.75c0,6.55,7.6,11.88,16.93,11.88s16.93-5.33,16.93-11.88v-73.75c-2.72,4.83-9.29,8.25-16.93,8.25s-14.21-3.41-16.93-8.25Z"/>
            <path class="cls-8" d="M211.2,228.41h-1.34v-1.62h1.42l-.03.74c-.03.29-.05.58-.05.88Z"/>
            <path class="cls-8" d="M228.14,241.63c-10.08,0-18.28-5.93-18.28-13.23,0-.34.02-.69.05-1.02l1.34.14c-.03.29-.05.58-.05.88,0,6.55,7.6,11.88,16.93,11.88s16.93-5.33,16.93-11.88c0-.3-.02-.59-.05-.88l1.34-.14c.04.34.05.68.05,1.02,0,7.29-8.2,13.23-18.28,13.23Z"/>
          </g>
        </g>
        <g>
          <g>
            <g>
              <path class="cls-8" d="M190.92,1027.18l-.45-.88c7.31-3.77,19.96-10.32,22.51-11.78,4.01-2.31,24.7-18.59,32.13-29.72.96-1.45,1.92-2.84,2.87-4.23,6.55-9.56,12.74-18.58,18.51-40.07,6.54-24.36,21.79-43.74,33.18-51.43l.55.82c-11.25,7.6-26.3,26.76-32.78,50.87-5.82,21.65-12.05,30.75-18.65,40.38-.95,1.38-1.9,2.78-2.87,4.22-7.5,11.25-28.41,27.69-32.45,30.03-2.43,1.4-13.61,7.2-22.55,11.81Z"/>
              <path class="cls-8" d="M190.17,1023.55l-.46-.88,13.71-7.13c28.83-16.4,49.77-42.89,58.93-74.6,2.06-7.11,4.17-13.31,6.29-18.44,10.19-24.65,31.18-38.17,31.39-38.31l.53.84c-.21.13-20.94,13.49-31.01,37.85-2.1,5.09-4.2,11.25-6.25,18.33-9.24,31.95-30.33,58.66-59.41,75.19l-13.72,7.14Z"/>
            </g>
            <g>
              <path class="cls-8" d="M95.88,1113.29c-8.51,0-17.03-1.46-24.36-4.44-2.24-.88-4.36-1.93-6.29-3.1-.95-.57-1.9-1.2-2.82-1.87l-.82-.7c-.63-.44-1.11-.83-1.55-1.23-.62-.57-1.35-1.23-2.09-1.89-.84-.75-1.68-1.51-2.39-2.16-.34-.3-.76-.67-1.17-1.04-.38-.34-.75-.67-1.07-.96-.63-.57-1.35-1.22-2.08-1.88-.84-.76-1.69-1.52-2.41-2.18-.18-.16-.37-.34-.56-.52-.17-.16-.35-.33-.54-.5-.38-.33-.77-.67-1.15-1.02-.38-.34-.77-.69-1.16-1.02-.21-.2-.39-.37-.57-.53-.18-.16-.36-.32-.52-.48-.3-.27-.68-.61-1.06-.95-.4-.36-.81-.73-1.15-1.03-.33-.33-.72-.68-1.1-1.03-.78-.71-1.53-1.37-2.31-2.04-.38-.38-.76-.72-1.07-.99-.68-.62-1.47-1.33-2.26-2.04-.78-.71-1.57-1.41-2.23-2.02-.34-.3-.74-.66-1.14-1.02-.38-.35-.77-.69-1.09-.98-.34-.3-.74-.66-1.15-1.03-.38-.35-.77-.69-1.09-.98-.79-.71-1.58-1.42-2.25-2.06-.54-.48-1.17-1.05-1.82-1.63l-.41-.37c-.67-.59-1.46-1.3-2.24-2.01-.33-.31-.72-.66-1.1-1.01-.4-.36-.8-.72-1.15-1.05-.33-.29-.73-.65-1.13-1.01-.39-.35-.77-.7-1.1-.99-.71-.64-1.42-1.28-2.04-1.83-.07-.06-.13-.12-.2-.18l.66-.74c.06.06.13.11.19.17.87.76,1.84,1.51,2.78,2.23l.57.44c.24.19.45.38.67.57.34.29.69.6,1.08.88,1.78,1.31,3.79,2.64,6.14,4.07,36.28,21.84,96.53,22.45,134.31,1.37,1.3-.72,2.55-1.47,3.83-2.27.2-.12.39-.24.57-.36.2-.13.41-.27.61-.39.36-.25.76-.52,1.16-.78.41-.27.81-.53,1.21-.81.21-.15.41-.3.61-.46.21-.16.42-.32.64-.48.72-.48,1.42-1.02,2.03-1.49l.2-.17c.34-.28.66-.54.99-.83l.1-.08c.48-.39.98-.8,1.45-1.21.1-.09.2-.18.3-.27l.67.73c-.1.09-.2.19-.31.28-7.3,6.67-14.61,13.34-21.93,20-7.24,6.6-14.47,13.19-21.7,19.79-.09.09-.2.17-.33.27l-.1.08c-.49.46-1.08.91-1.7,1.38l-.45.35c-.21.16-.42.33-.67.49-.96.69-2.03,1.37-3.25,2.06-8.23,4.57-18.95,6.91-29.71,6.91ZM24.53,1068.61c.11.09.21.19.31.28l.41.37c.65.58,1.28,1.15,1.83,1.63.68.64,1.46,1.34,2.25,2.05.33.29.71.64,1.1.98.4.36.8.72,1.14,1.02.33.29.71.64,1.1.98.4.36.8.72,1.14,1.02.67.61,1.45,1.31,2.23,2.02.79.71,1.58,1.43,2.26,2.04.31.27.72.64,1.08,1,.76.64,1.51,1.31,2.3,2.03.4.36.8.72,1.12,1.04.32.28.73.65,1.14,1.02.38.34.76.68,1.08.97.17.17.33.31.5.46.19.17.39.35.58.54.37.31.76.66,1.15,1.01.38.34.76.68,1.14,1.01.2.18.39.36.57.53.18.17.36.34.54.5.72.66,1.57,1.42,2.41,2.18.73.66,1.46,1.31,2.08,1.88.32.28.69.62,1.07.96.41.37.82.74,1.16,1.04.72.65,1.56,1.41,2.39,2.16.74.66,1.47,1.32,2.1,1.89.4.37.86.73,1.49,1.18l.82.7c.87.63,1.8,1.24,2.72,1.8,1.88,1.15,3.95,2.17,6.14,3.03,16.35,6.65,38.73,5.64,53.22-2.41,1.18-.67,2.22-1.33,3.18-2.01.24-.16.43-.31.62-.46l.46-.35c.6-.46,1.17-.89,1.66-1.35l.15-.12c.08-.06.16-.11.23-.18,7.24-6.62,14.48-13.22,21.72-19.81,4.73-4.32,9.47-8.63,14.2-12.95-.04.03-.08.06-.13.09-.22.13-.42.26-.61.39-.2.13-.4.26-.6.38-1.29.81-2.56,1.56-3.87,2.29-38.06,21.24-98.76,20.61-135.31-1.38-.8-.49-1.56-.96-2.29-1.43Z"/>
              <path class="cls-8" d="M268.52,922.65c-2.12,5.12-4.23,11.32-6.29,18.44-9.16,31.7-30.1,58.2-58.93,74.59l-13.9,7.23.12.54c.06.26.12.52.18.78l.11.47c.18.75.36,1.53.48,2.28.09.58.12,1.15.16,1.76l.08,1.17c.06.82.12,1.66.1,2.48,0,.23-.01.46-.03.69-.07,1.54-.25,3.07-.54,4.55-.03.18-.07.35-.11.53l-.03.14c-.33,1.55-.76,3.07-1.3,4.54-.05.13-.1.26-.15.39l-.09.24c-.03.09-.07.17-.12.25-.05.1-.1.19-.14.29-.65,1.61-1.2,2.83-1.81,3.95l-.32.57c-.9,1.59-1.83,3.04-2.86,4.44-.08.1-.15.2-.23.3l-.15.19c-1.16,1.54-2.4,3.01-3.69,4.37-.07.07-.14.14-.21.22l-.18.18c-1.45,1.51-2.98,2.94-4.55,4.27l-.34.28c-1.78,1.48-3.62,2.88-5.48,4.15l-.22.15c-2.09,1.42-4.28,2.77-6.49,4-37.8,21.08-98.06,20.47-134.32-1.36-2.21-1.33-4.31-2.74-6.26-4.18-.38-.28-.72-.57-1.07-.86-.24-.21-.49-.41-.75-.62l-.44-.34c-1.07-.85-2.18-1.72-3.15-2.6-.42-.38-.79-.77-1.16-1.16-.22-.23-.45-.47-.68-.7l-.57-.56c-.73-.72-1.49-1.47-2.14-2.22-.38-.44-.72-.89-1.06-1.33-.18-.24-.36-.48-.55-.72l-.45-.57c-.56-.71-1.15-1.45-1.64-2.18-.32-.48-.61-.99-.88-1.48-.14-.24-.27-.49-.41-.73l-.34-.58c-.42-.71-.86-1.45-1.21-2.17-.25-.52-.45-1.03-.66-1.57-.09-.24-.19-.48-.28-.72l-.23-.56c-.3-.72-.6-1.47-.83-2.2-.17-.56-.3-1.11-.43-1.7l-.26-1.12c-.18-.75-.37-1.53-.48-2.29-.09-.59-.12-1.17-.16-1.79l-.07-1.09c-.06-.83-.13-1.69-.11-2.53,0-.18.01-.37.02-.55v-.14c.08-1.53.26-3.06.54-4.55.03-.14.06-.29.09-.43l.05-.23c.33-1.56.77-3.08,1.29-4.54.05-.15.11-.3.17-.45l.07-.18c.59-1.55,1.29-3.06,2.07-4.5.07-.12.14-.25.21-.38l.11-.19c.87-1.56,1.84-3.05,2.86-4.45.07-.09.14-.18.21-.27l.17-.22c1.17-1.54,2.41-3.01,3.68-4.37l.4-.4c1.49-1.54,2.97-2.94,4.55-4.27.06-.05.13-.11.2-.16l.15-.12c1.75-1.46,3.6-2.86,5.55-4.2l.15-.1c2.1-1.42,4.28-2.77,6.49-4,20.45-11.4,48.37-16.91,76.59-15.1h.15s14.37-8.16,14.37-8.16c29.08-16.53,50.18-43.24,59.41-75.19,2.05-7.07,4.15-13.24,6.25-18.33,10.07-24.36,30.8-37.72,30.99-37.84l16.09-9.18,76.36,42.5c.44-.17.93-.28,1.47-.32l-77.59-43.18-.24-.14-16.6,9.47c-.21.13-21.2,13.65-31.39,38.31-2.12,5.12-4.23,11.32-6.29,18.44-9.16,31.7-30.1,58.2-58.95,74.6l-14.12,8.03c-28.35-1.79-56.41,3.76-76.99,15.23-2.23,1.24-4.44,2.61-6.57,4.05l-.22.15c-1.91,1.31-3.78,2.72-5.55,4.2l-.13.11c-.08.06-.15.12-.23.18-1.6,1.35-3.11,2.77-4.62,4.33l-.16.16c-.08.08-.16.16-.24.25-1.31,1.38-2.57,2.88-3.76,4.45l-.16.2c-.08.1-.16.2-.23.3-1.05,1.43-2.03,2.95-2.93,4.54l-.11.18c-.08.13-.16.27-.23.4-.8,1.48-1.51,3.03-2.12,4.61l-.07.17c-.06.16-.12.32-.18.47-.54,1.5-.99,3.06-1.33,4.67l-.05.23c-.03.15-.07.3-.09.45-.29,1.54-.48,3.12-.56,4.69v.14c-.01.19-.02.38-.03.57-.02.88.05,1.77.11,2.63l.07,1.08c.04.61.08,1.24.17,1.87.12.8.31,1.6.49,2.37l.25,1.1c.13.58.26,1.18.45,1.78.24.77.56,1.54.86,2.28l.23.56c.1.24.19.47.28.71.21.54.42,1.09.69,1.65.37.76.82,1.51,1.25,2.24l.34.57c.14.24.27.47.41.71.28.51.58,1.03.92,1.54.51.76,1.11,1.51,1.68,2.24l.45.57c.18.23.36.47.54.71.34.46.7.93,1.1,1.39.68.78,1.45,1.54,2.19,2.27l.57.56c.23.23.44.45.66.68.39.41.78.81,1.21,1.2,1,.91,2.12,1.79,3.21,2.65l.43.34c.25.2.49.4.72.6.36.3.72.61,1.12.9,1.98,1.46,4.11,2.88,6.34,4.23,18.69,11.25,43.69,16.9,68.77,16.9,23.94,0,47.95-5.16,66.55-15.53,2.24-1.25,4.44-2.61,6.56-4.05l.23-.15c1.88-1.29,3.75-2.7,5.56-4.2l.14-.12c.07-.06.14-.11.21-.17,1.59-1.34,3.15-2.8,4.63-4.33l.17-.17c.08-.08.16-.16.24-.24,1.31-1.39,2.57-2.88,3.75-4.45l.14-.18c.09-.11.17-.22.25-.33,1.05-1.43,2.01-2.92,2.93-4.55l.33-.58c.63-1.16,1.2-2.41,1.86-4.05.03-.08.07-.15.11-.23.06-.11.11-.23.15-.34l.09-.23c.05-.14.11-.28.16-.42.55-1.5.99-3.08,1.33-4.67l.03-.13c.04-.18.08-.37.11-.55.29-1.53.48-3.1.56-4.69.01-.24.02-.47.03-.71.02-.87-.04-1.74-.1-2.58l-.08-1.15c-.04-.6-.07-1.23-.17-1.85-.12-.8-.31-1.6-.49-2.37l-.11-.47c-.04-.19-.09-.38-.13-.56l13.24-6.88c29.08-16.53,50.18-43.24,59.41-75.19,2.05-7.08,4.15-13.25,6.25-18.33,10.07-24.35,30.8-37.72,31.01-37.85l-.53-.84c-.21.13-21.2,13.65-31.39,38.31Z"/>
              <path class="cls-8" d="M94.82,1053.77c-12.35,0-24.67-2.78-33.9-8.32-1.13-.71-2.15-1.39-3.13-2.09-.19-.14-.37-.29-.54-.44-.12-.1-.24-.21-.36-.3-.64-.5-1.26-.98-1.81-1.48-.28-.24-.53-.51-.78-.78l-.47-.48c-.36-.35-.72-.71-1.04-1.07-.3-.34-.55-.68-.79-1.01l-.09-.11c-.35-.44-.69-.87-1-1.3-.25-.39-.46-.76-.66-1.13-.27-.45-.55-.92-.78-1.38l-.2-.43c-.11-.3-.2-.52-.29-.74l-.12-.3c-.15-.36-.3-.74-.42-1.13l-.03-.12c-.06-.22-.1-.39-.14-.56-.04-.16-.08-.32-.12-.49l-.09-.44c-.07-.33-.14-.66-.19-1-.07-.38-.09-.78-.11-1.17l-.03-.53c-.02-.35-.04-.7-.04-1.05,0-.07,0-.15.01-.22,0-.04,0-.08,0-.12.02-.8.11-1.56.27-2.33,0-.11.03-.21.05-.29.2-.92.41-1.68.68-2.41.06-.14.08-.19.09-.25.34-.87.69-1.64,1.07-2.36.08-.11.1-.16.14-.22l.06-.1c.43-.76.91-1.51,1.43-2.24.1-.11.14-.17.17-.21.64-.85,1.24-1.55,1.9-2.23,0-.02.09-.12.19-.21.71-.73,1.47-1.45,2.28-2.14l.11-.08s.07-.06.12-.09c.88-.74,1.78-1.42,2.7-2.05.1-.06.13-.08.17-.1.95-.65,2.04-1.33,3.19-1.97,18.75-10.47,48.65-10.17,66.65.67,1,.59,2,1.26,3.13,2.1.27.18.52.39.76.6l.17.15c.6.46,1.23.95,1.79,1.47.27.24.52.5.76.77l.49.5c.36.35.72.71,1.04,1.06.19.22.35.44.51.65.1.13.2.27.3.4.39.49.75.94,1.06,1.39.25.39.45.76.66,1.13.27.45.55.92.78,1.39.14.3.26.59.37.87l.12.3c.19.46.37.93.53,1.39.09.3.14.57.2.83l.09.41c.11.45.23.92.3,1.41.04.25.06.51.08.77.01.15.02.3.04.46l.03.53c.02.34.04.68.04,1.02,0,.07,0,.15-.01.22,0,.04,0,.08,0,.12-.02.81-.12,1.6-.28,2.38l-.07.31c-.09.47-.21.94-.35,1.43-.1.32-.19.62-.31.92-.05.11-.08.19-.09.24l-.04.11-.14.27c-.05.11-.1.23-.15.35-.05.13-.1.26-.16.38-.19.42-.37.84-.61,1.26-.05.1-.11.22-.2.33-.34.64-.81,1.38-1.4,2.19l-.08.1s-.05.07-.06.08l-.05.09c-.55.7-1.16,1.45-1.88,2.2,0,0-.05.06-.1.11l-.08.09c-.71.73-1.48,1.46-2.28,2.15-.09.06-.13.09-.16.12-.84.71-1.76,1.4-2.77,2.1-.1.06-.13.08-.17.1-.96.66-2.05,1.33-3.19,1.97-9.15,5.11-20.97,7.65-32.77,7.65ZM49.34,1030.78l.04.16c.11.39.25.73.39,1.07l.13.31c.09.23.19.46.28.72l.18.38c.22.44.49.89.75,1.33.21.37.41.73.63,1.09.28.4.61.81.95,1.23l.07.08c.28.38.51.69.78,1.01.3.34.65.68,1,1.02l.5.52c.22.24.44.49.7.71.53.48,1.13.95,1.71,1.4.18.14.31.25.45.37.15.13.3.26.47.38.96.69,1.96,1.36,3.07,2.05,17.76,10.66,47.22,10.95,65.67.65,1.11-.62,2.18-1.28,3.17-1.95.09-.06.13-.08.17-.1.92-.64,1.82-1.32,2.61-1.98.04-.04.13-.11.22-.17.74-.64,1.48-1.34,2.17-2.05-.01,0,.04-.05.1-.11l.09-.1c.68-.7,1.26-1.42,1.78-2.09.05-.09.1-.16.15-.21.61-.84,1.06-1.54,1.42-2.21.09-.12.12-.19.15-.25.23-.42.41-.81.58-1.21.05-.12.1-.24.15-.35.06-.13.11-.27.17-.4l.12-.24c.04-.15.11-.28.13-.34.09-.23.17-.51.26-.79.14-.47.25-.91.33-1.35l.07-.33c.15-.72.24-1.45.26-2.19,0-.06,0-.13.01-.2,0-.04,0-.08,0-.12,0-.32-.02-.64-.04-.96l-.03-.51c-.02-.14-.03-.3-.04-.47-.02-.22-.03-.45-.07-.68-.07-.44-.18-.89-.29-1.33l-.1-.43c-.05-.24-.1-.48-.17-.74-.15-.42-.33-.86-.51-1.31l-.12-.3c-.11-.27-.21-.54-.34-.81-.22-.43-.48-.88-.75-1.32-.21-.37-.41-.73-.63-1.08-.29-.41-.63-.84-.98-1.28-.15-.18-.25-.32-.36-.46-.15-.2-.29-.39-.46-.59-.3-.33-.65-.67-.99-1.01l-.52-.54c-.22-.24-.43-.47-.69-.69-.54-.5-1.16-.97-1.75-1.44l-.19-.16c-.22-.19-.43-.37-.69-.54-1.12-.83-2.09-1.48-3.07-2.06-17.73-10.68-47.18-10.97-65.66-.65-1.12.63-2.19,1.29-3.17,1.95-.1.06-.13.08-.18.1-.84.57-1.71,1.23-2.6,1.98l-.1.07s-.09.07-.14.1c-.73.63-1.47,1.33-2.16,2.04-.05.05-.1.09-.13.14-.68.71-1.25,1.39-1.86,2.18-.04.07-.13.19-.23.28-.45.64-.92,1.36-1.33,2.1l-.05.09c-.05.09-.1.18-.16.26-.33.62-.66,1.35-.96,2.11,0,.04-.04.15-.09.26-.27.74-.47,1.45-.64,2.23,0,.04-.02.09-.03.14,0,.03-.02.07-.02.1v.1c-.17.73-.25,1.45-.27,2.18,0,.06,0,.13-.01.21,0,.04,0,.08,0,.12,0,.33.02.66.04.99l.03.48c.02.4.04.77.11,1.12.05.33.12.64.18.95l.09.43c.04.15.08.31.12.48.04.14.07.29.11.44Z"/>
              <path class="cls-8" d="M94.82,1053.77c-12.35,0-24.67-2.78-33.9-8.32-1.13-.71-2.15-1.39-3.13-2.09-.19-.14-.37-.29-.54-.44-.12-.1-.24-.21-.36-.3-.64-.5-1.26-.98-1.81-1.48-.28-.24-.53-.51-.78-.78l-.47-.48c-.36-.35-.72-.71-1.04-1.07-.3-.34-.55-.68-.79-1.01l-.09-.11c-.35-.44-.69-.87-1-1.3-.25-.39-.46-.76-.66-1.13-.27-.45-.55-.92-.78-1.38l-.31-.64.09-.21c.19-.42.39-.83.6-1.25.07-.11.09-.14.11-.18.04-.06.07-.11.11-.17.35-.64.82-1.38,1.4-2.2l.08-.1s.06-.07.06-.09l.05-.08c.55-.71,1.16-1.46,1.88-2.2.01-.04.1-.12.19-.21.7-.7,1.47-1.42,2.27-2.13l.12-.09s.07-.06.12-.09c.89-.75,1.78-1.42,2.71-2.05.09-.06.13-.08.17-.1.96-.66,2.05-1.33,3.19-1.97,18.76-10.45,48.66-10.14,66.65.69,1.1.65,2.13,1.33,3.13,2.07.2.15.38.29.55.44.12.1.24.2.37.29l.55.44c.43.35.86.69,1.25,1.03.23.21.41.41.6.6.11.12.22.24.34.35l.34.33c.35.35.71.7,1.03,1.05.19.22.36.44.52.66.1.13.19.26.3.39.37.46.74.93,1.06,1.39.24.39.45.76.66,1.13.29.49.56.94.79,1.39.08.15.16.34.21.5l.06.18-.08.18c-.19.42-.38.84-.61,1.27-.05.1-.11.22-.2.33-.34.64-.81,1.38-1.4,2.19l-.08.1s-.05.07-.06.08l-.05.09c-.55.7-1.16,1.45-1.88,2.2,0,0-.05.06-.1.11l-.08.09c-.71.73-1.48,1.46-2.28,2.15-.09.06-.13.09-.16.12-.84.71-1.76,1.4-2.77,2.1-.1.06-.13.08-.17.1-.96.66-2.05,1.33-3.19,1.97-9.15,5.11-20.97,7.65-32.77,7.65ZM50.37,1033.42c.22.44.49.89.75,1.33.21.37.41.73.63,1.09.28.4.61.81.95,1.23l.07.08c.28.38.51.69.78,1.01.3.34.65.68,1,1.02l.5.52c.22.24.44.49.7.71.53.48,1.13.95,1.71,1.4.18.14.31.25.45.37.15.13.3.26.47.38.96.69,1.96,1.36,3.07,2.05,17.76,10.66,47.22,10.95,65.67.65,1.11-.62,2.18-1.28,3.17-1.95.09-.06.13-.08.17-.1.92-.64,1.82-1.32,2.61-1.98.04-.04.13-.11.22-.17.74-.64,1.48-1.34,2.17-2.05-.01,0,.04-.05.1-.11l.09-.1c.68-.7,1.26-1.42,1.78-2.09.05-.09.1-.16.15-.21.61-.84,1.06-1.54,1.42-2.21.09-.12.12-.19.15-.25.19-.35.35-.69.5-1.03-.03-.07-.06-.13-.09-.19-.21-.43-.47-.86-.73-1.29-.24-.41-.44-.77-.66-1.13-.3-.42-.66-.87-1.01-1.32-.11-.14-.21-.28-.32-.41-.15-.2-.29-.4-.47-.59-.3-.33-.64-.67-.98-1l-.34-.34c-.12-.12-.24-.25-.36-.37-.17-.18-.34-.36-.54-.55-.37-.32-.78-.65-1.2-.99l-.54-.44c-.12-.09-.25-.2-.38-.31-.16-.13-.32-.27-.5-.4-.98-.72-1.98-1.38-3.05-2.02-17.72-10.67-47.17-10.98-65.66-.68-1.11.62-2.18,1.28-3.17,1.95-.1.06-.13.08-.17.1-.84.57-1.71,1.23-2.61,1.98l-.09.07s-.08.07-.13.1c-.73.65-1.48,1.36-2.17,2.05-.04.04-.1.1-.12.13-.72.76-1.31,1.48-1.84,2.16-.05.09-.11.16-.15.21-.61.84-1.06,1.54-1.42,2.21-.06.09-.08.13-.1.16-.04.06-.07.11-.11.17-.13.27-.29.6-.44.93l.1.22Z"/>
            </g>
          </g>
          <g>
            <path class="cls-8" d="M203.41,849.4h-.99v-21.29h.99c0,4.72,4.27,8.9,10.62,10.41l-.23.96c-4.93-1.17-8.69-3.9-10.39-7.28v17.2Z"/>
            <path class="cls-8" d="M203.41,828.11h-.99v-1.37h1.04v.55c-.04.27-.05.54-.05.82Z"/>
            <path class="cls-8" d="M213.8,839.48c-6.81-1.62-11.38-6.19-11.38-11.37,0-.31.02-.62.05-.92.65-6.2,7.92-11.06,16.55-11.06,8.08,0,14.96,4.16,16.34,9.89l-.96.23c-1.28-5.29-7.75-9.14-15.38-9.14-8.13,0-14.96,4.47-15.56,10.17-.03.27-.04.54-.04.82,0,4.72,4.27,8.9,10.62,10.41l-.23.96Z"/>
          </g>
          <g>
            <path class="cls-9" d="M312.18,870.2c1.35-.19,2.57-.32,3.92-.24,1,.06,2,.17,3,.19,1.19.02,2.24.42,3.09,1.06l76.29-43.96c-.31.18-10.15-5.37-22.92-12.74-36.98-21.34-82.53-21.35-119.52-.02l-22.16,13.62,25.87,14.54-10.48,6.05c-2.93,1.69-2.83,5.95.17,7.5l10.44,5.4c3.32,1.72,7.24,1.82,10.65.28l12.99-5.87,26.85,15.09c.56-.46,1.2-.81,1.8-.89Z"/>
            <path class="cls-8" d="M398.42,827.16l.09-.39c-.46-.11-4.02-1.9-22.71-12.68-37.02-21.36-83-21.36-120.02-.01l-22.87,14.06,25.84,14.52-9.73,5.62c-1.53.89-2.42,2.47-2.38,4.24.04,1.77,1,3.31,2.58,4.13l10.44,5.4c3.48,1.8,7.51,1.9,11.08.29l12.76-5.77,25.99,14.6c.35-.21.71-.39,1.09-.52l-27.03-15.19-13.22,5.98c-3.29,1.49-7.01,1.39-10.22-.27l-10.44-5.4c-1.25-.64-2.01-1.87-2.04-3.27-.03-1.4.67-2.66,1.89-3.36l11.23-6.49-25.89-14.55,21.43-13.17c36.7-21.17,82.31-21.16,119.02.02,14.74,8.5,20.05,11.43,22.06,12.38l-75.49,43.5c.38.15.74.33,1.07.53l75.77-43.66s0,0,0,0l-.3-.52Z"/>
          </g>
          <polygon class="cls-8" points="440.64 671.49 440.1 670.58 440.34 670.45 440.85 671.36 440.64 671.49"/>
          <g>
            <path class="cls-8" d="M361.69,786.65c-8.5,0-15.42-5-15.42-11.15v-49.73h1.05c0,5.57,6.45,10.1,14.37,10.1s14.37-4.53,14.37-10.1h1.05v49.73c0,6.15-6.92,11.15-15.43,11.15ZM347.32,729.82v45.68c0,5.57,6.45,10.1,14.37,10.1s14.37-4.53,14.37-10.1v-45.68c-2.25,4.15-7.84,7.1-14.37,7.1s-12.12-2.95-14.37-7.1Z"/>
            <path class="cls-8" d="M377.12,725.77h-1.05c0-.25-.01-.5-.04-.75l-.06-.58h1.15v1.33Z"/>
            <path class="cls-8" d="M361.69,736.92c-8.5,0-15.42-5-15.42-11.15,0-.29.02-.58.05-.86.32-3.01,2.34-5.83,5.57-7.75l.54.9c-2.98,1.77-4.77,4.24-5.06,6.96-.03.25-.04.5-.04.75,0,5.57,6.45,10.1,14.37,10.1s14.37-4.53,14.37-10.1c0-.25-.01-.5-.04-.75-.55-5.24-6.85-9.35-14.33-9.35-3.31,0-6.42.77-9,2.23l-.52-.92c2.74-1.55,6.03-2.37,9.52-2.37,8.02,0,14.77,4.52,15.38,10.29.03.28.05.57.05.86,0,6.15-6.92,11.15-15.43,11.15Z"/>
            <polygon class="cls-8" points="352.42 718.07 351.88 717.16 352.17 716.99 352.69 717.91 352.42 718.07"/>
          </g>
          <g>
            <rect class="cls-8" x="493.08" y="789.54" width="1.05" height="37.93"/>
            <path class="cls-8" d="M462.37,841.27h-1.05v-54.01h1.05c0,5.95,6.89,10.8,15.35,10.8s15.35-4.84,15.35-10.8h1.05v2.27h-.3c-1.47,5.45-8.13,9.58-16.1,9.58-7.01,0-13.01-3.19-15.35-7.67v49.83Z"/>
            <path class="cls-8" d="M462.37,787.26h-1.05v-1.39h1.11l-.02.58c-.03.27-.04.53-.04.8Z"/>
          </g>
          <g>
            <polygon class="cls-8" points="484.91 777.53 484.38 776.62 557.26 734.55 461.26 679.4 461.79 678.49 559.37 734.55 484.91 777.53"/>
            <path class="cls-7" d="M445.3,669.02l-80.83,46.61-.16.09c.65-.07,1.3-.04,1.92.11l79.07-45.6"/>
            <path class="cls-7" d="M376.04,721.98c.23.47.37.96.42,1.46l94.07,54.1.52-.91-95.01-54.64Z"/>
            <path class="cls-8" d="M375.18,721.49c.18.45.3.93.36,1.42l94.98,54.62.53-.91-95.87-55.13Z"/>
            <rect class="cls-8" x="421.27" y="700.6" width="1.05" height="104.46" transform="translate(-441.09 743.21) rotate(-60.1)"/>
            <polygon class="cls-8" points="489.38 778.89 488.85 777.98 557.79 738.3 557.79 735.46 486.04 776.87 485.52 775.96 558.84 733.64 558.84 738.91 558.58 739.06 489.38 778.89"/>
          </g>
          <g>
            <polygon class="cls-1" points="490.32 725.94 501.97 748.05 461.21 742.72 490.32 725.94"/>
            <polygon class="cls-1" points="449.55 702.64 461.21 724.75 420.44 719.42 449.55 702.64"/>
          </g>
          <path class="cls-8" d="M429.37,919.01c-27.02,0-54.03-6.94-78.11-20.82l-19.23-11.08.53-.91,19.23,11.08c47.76,27.53,107.13,27.58,154.94.13l51.55-29.6c17.89-10.27,30.19-26.63,35.04-45.75-5.53,17.94-17.63,33.27-34.51,42.96l-51.55,29.6c-48.13,27.63-107.9,27.58-155.99-.13l-19.09-11,.53-.91,19.09,11c47.76,27.53,107.13,27.58,154.94.13l51.55-29.6c22.73-13.05,36.68-36.47,37.32-62.66h1.05c.68,28.13-13.47,53.28-37.85,67.27l-51.55,29.6c-24.02,13.79-50.95,20.69-77.88,20.69Z"/>
          <path class="cls-8" d="M506.15,811.22c-.8-5.88-5.7-12.1-14.19-17.98l.6-.87c8.86,6.13,13.78,12.43,14.63,18.7l-1.04.14Z"/>
          <path class="cls-8" d="M446.9,843.67c-1.4,0-2.8-.04-4.2-.12-14.03-.83-28.53-5.79-45.65-15.63l.52-.91c16.97,9.75,31.33,14.67,45.19,15.49,16.82.99,33.38-4.07,50.62-15.47,8.46-5.6,12.79-11.49,12.89-17.51.13-8.04-7.39-15.06-13.71-19.54l.61-.86c9.5,6.73,14.26,13.6,14.16,20.42-.1,6.4-4.6,12.58-13.36,18.38-16.01,10.59-31.45,15.77-47.07,15.77Z"/>
          <path class="cls-8" d="M429.37,915.31c-27.02,0-54.03-6.94-78.11-20.82l-19.09-11,.53-.91,19.09,11c47.76,27.53,107.13,27.58,154.94.13l51.55-29.6c23.37-13.42,37.33-37.52,37.34-64.47,0-26.95-13.93-51.06-37.3-64.49l-.27-.15.52-.91.27.15c23.7,13.62,37.84,38.07,37.83,65.41,0,27.33-14.17,51.77-37.87,65.38l-51.55,29.6c-24.02,13.79-50.95,20.69-77.88,20.69Z"/>
          <g>
            <path class="cls-8" d="M316.42,945.78c-9.05,0-16.41-5.32-16.41-11.85v-53.01h1.05c0,5.95,6.89,10.8,15.35,10.8s15.35-4.84,15.35-10.8h1.05v53.01c0,6.53-7.36,11.85-16.4,11.85ZM301.07,885.1v48.83c0,5.95,6.89,10.8,15.35,10.8s15.35-4.84,15.35-10.8v-48.83c-2.34,4.48-8.34,7.67-15.35,7.67s-13.01-3.19-15.35-7.67Z"/>
            <path class="cls-8" d="M301.07,880.92h-1.05v-1.39h1.11l-.02.58c-.03.27-.04.53-.04.8Z"/>
            <path class="cls-8" d="M316.42,892.77c-9.05,0-16.41-5.32-16.41-11.85,0-.31.02-.61.05-.91.64-6.13,7.83-10.94,16.36-10.94,3.72,0,7.22.87,10.13,2.52l-.52.92c-2.75-1.56-6.08-2.39-9.61-2.39-8,0-14.72,4.39-15.31,9.99-.03.27-.04.53-.04.8,0,5.95,6.89,10.8,15.35,10.8s15.35-4.84,15.35-10.8c0-.27-.01-.54-.04-.8-.31-2.9-2.23-5.54-5.41-7.44l.54-.9c3.42,2.04,5.58,5.04,5.92,8.23.03.3.05.61.05.92,0,6.53-7.36,11.85-16.4,11.85Z"/>
            <polygon class="cls-8" points="326.32 872.68 326.03 872.51 326.55 871.6 326.86 871.77 326.32 872.68"/>
          </g>
          <path class="cls-8" d="M477.73,799.11c-9.05,0-16.41-5.32-16.41-11.85,0-.31.02-.61.05-.91.64-6.13,7.83-10.94,16.36-10.94,2.48,0,4.87.39,7.09,1.16l-.34,1c-2.11-.73-4.38-1.1-6.74-1.1-8,0-14.72,4.39-15.31,9.99-.03.27-.04.53-.04.8,0,5.95,6.89,10.8,15.35,10.8s15.35-4.84,15.35-10.8c0-.27-.01-.54-.04-.8-.29-2.74-2.04-5.28-4.94-7.15l.57-.88c3.17,2.05,5.1,4.86,5.42,7.93.03.3.05.61.05.92,0,6.53-7.36,11.85-16.4,11.85Z"/>
          <path class="cls-8" d="M488.09,779.31c-1.09-.7-2.31-1.29-3.62-1.74l.34-1c1.4.48,2.69,1.11,3.85,1.85l-.57.88Z"/>
          <g>
            <polygon class="cls-8" points="196.96 1019.54 189.67 1015.25 183.31 1018.89 190.74 1023.11 196.96 1019.54"/>
            <polygon class="cls-8" points="183.33 1018.9 175.9 1014.67 168.88 1018.5 176.43 1022.85 183.33 1018.9"/>
            <polygon class="cls-8" points="182.44 1011.03 174.91 1006.75 168.44 1010.45 175.88 1014.67 182.44 1011.03"/>
            <polygon class="cls-8" points="168.46 1010.46 161.03 1006.23 154.14 1009.99 161.69 1014.34 168.46 1010.46"/>
            <polygon class="cls-8" points="167.56 1002.59 160.05 998.37 153.69 1002.01 161.13 1006.23 167.56 1002.59"/>
            <polygon class="cls-8" points="153.71 1002.01 146.28 997.79 139.46 1001.51 147 1005.86 153.71 1002.01"/>
            <polygon class="cls-8" points="152.6 994.13 145.16 989.93 138.8 993.56 146.24 997.79 152.6 994.13"/>
            <polygon class="cls-8" points="138.82 993.57 131.39 989.35 124.7 992.99 132.24 997.35 138.82 993.57"/>
            <polygon class="cls-8" points="137.62 985.68 130.17 981.49 123.81 985.12 131.24 989.35 137.62 985.68"/>
            <polygon class="cls-8" points="122.72 977.26 115.29 973.04 108.94 976.68 116.37 980.91 122.72 977.26"/>
            <polygon class="cls-8" points="123.83 985.13 116.4 980.91 109.9 984.45 117.44 988.8 123.83 985.13"/>
          </g>
        </g>
      </g>
      <g>
        <path class="cls-8" d="M154.74,722.24c-.99,0-1.9-.13-2.74-.39s-1.6-.65-2.29-1.18c-.68-.53-1.3-1.18-1.83-1.96l1.92-2.21c.85,1.21,1.66,2.05,2.44,2.52s1.71.7,2.78.7c.66,0,1.26-.1,1.79-.31s.96-.49,1.27-.86c.31-.36.47-.78.47-1.25,0-.31-.05-.61-.16-.88s-.26-.53-.48-.75-.49-.43-.83-.62-.73-.36-1.18-.51c-.45-.15-.97-.27-1.56-.38-.94-.19-1.75-.44-2.44-.75-.69-.31-1.27-.7-1.74-1.17-.47-.47-.81-1-1.04-1.6s-.34-1.27-.34-2.01.16-1.4.48-2.03c.32-.62.76-1.17,1.33-1.62.56-.46,1.23-.81,1.99-1.07.76-.25,1.59-.38,2.47-.38.94,0,1.79.12,2.57.36.78.24,1.47.6,2.08,1.08.61.48,1.11,1.06,1.51,1.75l-1.98,1.95c-.35-.57-.74-1.05-1.17-1.44-.43-.39-.91-.68-1.43-.88-.52-.2-1.07-.3-1.66-.3-.68,0-1.27.1-1.77.31s-.9.5-1.18.87c-.29.37-.43.81-.43,1.31,0,.36.07.7.21,1,.14.3.35.57.64.81.29.23.67.44,1.16.62.48.18,1.07.34,1.74.48.95.21,1.8.47,2.55.79.74.32,1.38.7,1.9,1.13.52.43.91.92,1.18,1.46s.4,1.12.4,1.74c0,1.16-.27,2.17-.81,3.01-.54.85-1.3,1.5-2.29,1.96s-2.17.69-3.53.69Z"/>
        <path class="cls-8" d="M171.04,722.24c-1.4,0-2.65-.3-3.73-.9-1.08-.6-1.93-1.42-2.55-2.46-.62-1.04-.92-2.24-.92-3.59,0-1.07.17-2.05.52-2.94.35-.88.83-1.65,1.44-2.3.61-.65,1.35-1.15,2.21-1.51.86-.36,1.79-.53,2.79-.53.88,0,1.71.17,2.47.51.76.34,1.43.8,1.99,1.39s1,1.29,1.3,2.09c.3.81.45,1.69.43,2.64l-.03,1.14h-11.15l-.6-2.13h9.43l-.39.44v-.62c-.05-.57-.24-1.08-.57-1.53-.33-.45-.75-.81-1.25-1.07-.5-.26-1.05-.39-1.64-.39-.94,0-1.72.18-2.36.53-.64.36-1.13.88-1.46,1.56-.33.68-.49,1.53-.49,2.53,0,.95.2,1.78.6,2.48.4.7.96,1.24,1.69,1.62.73.38,1.57.57,2.52.57.68,0,1.3-.11,1.88-.34.58-.22,1.21-.63,1.88-1.22l1.35,1.9c-.42.42-.92.78-1.52,1.09-.6.31-1.23.56-1.9.74-.67.18-1.32.27-1.96.27Z"/>
        <path class="cls-8" d="M179.9,721.98v-13.65h2.7v4.29l-.26-1.04c.19-.66.52-1.26.97-1.79.46-.54.99-.96,1.59-1.27.6-.31,1.22-.47,1.86-.47.29,0,.58.03.84.08.27.05.48.11.64.18l-.7,2.91c-.21-.09-.44-.16-.69-.22-.25-.06-.5-.09-.74-.09-.47,0-.91.09-1.34.27-.42.18-.8.43-1.12.75-.32.32-.58.69-.77,1.12-.19.42-.29.89-.29,1.39v7.54h-2.7Z"/>
        <path class="cls-8" d="M196.15,721.98l-5.77-13.65h2.88l4.16,10.21-.49.23,4.44-10.45h2.75l-6.06,13.65h-1.92Z"/>
        <path class="cls-8" d="M208.31,705.32c-.57,0-1.01-.15-1.33-.44s-.47-.71-.47-1.25c0-.5.16-.91.48-1.22.32-.31.76-.47,1.31-.47s1.01.15,1.33.44c.31.29.47.71.47,1.25,0,.5-.16.91-.48,1.22-.32.31-.76.47-1.31.47ZM207.01,721.98v-13.65h2.68v13.65h-2.68Z"/>
        <path class="cls-8" d="M219.59,722.24c-1.26,0-2.4-.31-3.39-.94-1-.62-1.78-1.47-2.37-2.55s-.87-2.28-.87-3.61.29-2.54.87-3.61,1.37-1.92,2.37-2.55c1-.62,2.13-.94,3.39-.94s2.32.25,3.31.74c1,.49,1.75,1.17,2.27,2.01l-1.48,1.82c-.28-.4-.63-.76-1.07-1.09s-.89-.59-1.38-.78c-.49-.19-.95-.29-1.4-.29-.83,0-1.57.2-2.22.61-.65.41-1.17.97-1.55,1.68-.38.71-.57,1.51-.57,2.39s.2,1.68.6,2.38c.4.7.93,1.26,1.59,1.68.66.42,1.39.62,2.18.62.47,0,.92-.08,1.36-.23.44-.16.87-.39,1.29-.7.42-.31.81-.69,1.17-1.14l1.48,1.82c-.55.78-1.35,1.42-2.38,1.92-1.03.5-2.1.75-3.21.75Z"/>
        <path class="cls-8" d="M229.44,705.32c-.57,0-1.01-.15-1.33-.44s-.47-.71-.47-1.25c0-.5.16-.91.48-1.22.32-.31.76-.47,1.31-.47s1.01.15,1.33.44c.31.29.47.71.47,1.25,0,.5-.16.91-.48,1.22-.32.31-.76.47-1.31.47ZM228.14,721.98v-13.65h2.68v13.65h-2.68Z"/>
        <path class="cls-8" d="M241.06,722.24c-1.33,0-2.53-.31-3.57-.92-1.05-.61-1.88-1.46-2.48-2.52s-.91-2.28-.91-3.65.3-2.59.91-3.65,1.43-1.91,2.48-2.52c1.05-.62,2.24-.92,3.57-.92s2.5.31,3.55.92,1.88,1.46,2.48,2.52c.61,1.07.91,2.28.91,3.65s-.3,2.59-.91,3.65c-.61,1.07-1.43,1.91-2.48,2.52-1.05.62-2.23.92-3.55.92ZM241.06,719.8c.81,0,1.54-.2,2.18-.61.64-.41,1.14-.96,1.51-1.66.36-.7.54-1.5.52-2.38.02-.9-.16-1.7-.52-2.4-.36-.7-.87-1.25-1.51-1.65-.64-.4-1.37-.6-2.18-.6s-1.55.2-2.2.61c-.65.41-1.16.96-1.52,1.66-.36.7-.54,1.5-.52,2.38-.02.88.16,1.68.52,2.38.36.7.87,1.26,1.52,1.66.65.41,1.38.61,2.2.61Z"/>
        <path class="cls-8" d="M153.7,753.43c-1.13,0-2.15-.31-3.08-.94-.93-.62-1.67-1.47-2.22-2.55-.55-1.07-.83-2.29-.83-3.64s.28-2.59.84-3.65c.56-1.07,1.33-1.9,2.29-2.51.96-.61,2.04-.91,3.24-.91.71,0,1.36.1,1.95.31.59.21,1.1.5,1.55.87.44.37.81.8,1.09,1.29.29.49.46,1,.53,1.56l-.6-.21v-3.54h2.7v13.65h-2.7v-3.25l.62-.18c-.1.47-.32.92-.64,1.36-.32.44-.73.84-1.22,1.18-.49.35-1.04.62-1.64.83-.6.21-1.23.31-1.88.31ZM154.41,750.96c.81,0,1.53-.2,2.16-.6.62-.4,1.11-.95,1.47-1.65.35-.7.53-1.5.53-2.4s-.18-1.67-.53-2.37-.84-1.24-1.47-1.64c-.62-.4-1.34-.6-2.16-.6s-1.5.2-2.12.6c-.62.4-1.1.94-1.46,1.64-.36.69-.53,1.48-.53,2.37s.18,1.7.53,2.4c.35.7.84,1.25,1.46,1.65.61.4,1.32.6,2.12.6Z"/>
        <path class="cls-8" d="M164.96,753.17v-19.23h2.68v19.23h-2.68Z"/>
        <path class="cls-8" d="M184.5,753.43c-1.26,0-2.4-.31-3.39-.94-1-.62-1.78-1.47-2.37-2.55s-.87-2.28-.87-3.61.29-2.54.87-3.61,1.37-1.92,2.37-2.55c1-.62,2.13-.94,3.39-.94s2.32.25,3.31.74c1,.49,1.75,1.17,2.27,2.01l-1.48,1.82c-.28-.4-.63-.76-1.07-1.09s-.89-.59-1.38-.78c-.49-.19-.95-.29-1.4-.29-.83,0-1.57.2-2.22.61-.65.41-1.17.97-1.55,1.68-.38.71-.57,1.51-.57,2.39s.2,1.68.6,2.38c.4.7.93,1.26,1.59,1.68.66.42,1.39.62,2.18.62.47,0,.92-.08,1.36-.23.44-.16.87-.39,1.29-.7.42-.31.81-.69,1.17-1.14l1.48,1.82c-.55.78-1.35,1.42-2.38,1.92-1.03.5-2.1.75-3.21.75Z"/>
        <path class="cls-8" d="M192.66,753.17v-19.23h2.68v19.23h-2.68Z"/>
        <path class="cls-8" d="M200.88,736.51c-.57,0-1.01-.15-1.33-.44s-.47-.71-.47-1.25c0-.5.16-.91.48-1.22.32-.31.76-.47,1.31-.47s1.01.15,1.33.44c.31.29.47.71.47,1.25,0,.5-.16.91-.48,1.22-.32.31-.76.47-1.31.47ZM199.58,753.17v-13.65h2.68v13.65h-2.68Z"/>
        <path class="cls-8" d="M212.73,753.43c-1.4,0-2.65-.3-3.73-.9-1.08-.6-1.93-1.42-2.55-2.46-.62-1.04-.92-2.24-.92-3.59,0-1.07.17-2.05.52-2.94.35-.88.83-1.65,1.44-2.3.61-.65,1.35-1.15,2.21-1.51.86-.36,1.79-.53,2.79-.53.88,0,1.71.17,2.47.51.76.34,1.43.8,1.99,1.39s1,1.29,1.3,2.09c.3.81.45,1.69.43,2.64l-.03,1.14h-11.15l-.6-2.13h9.43l-.39.44v-.62c-.05-.57-.24-1.08-.57-1.53-.33-.45-.75-.81-1.25-1.07-.5-.26-1.05-.39-1.64-.39-.94,0-1.72.18-2.36.53-.64.36-1.13.88-1.46,1.56-.33.68-.49,1.53-.49,2.53,0,.95.2,1.78.6,2.48.4.7.96,1.24,1.69,1.62.73.38,1.57.57,2.52.57.68,0,1.3-.11,1.88-.34.58-.22,1.21-.63,1.88-1.22l1.35,1.9c-.42.42-.92.78-1.52,1.09-.6.31-1.23.56-1.9.74-.67.18-1.32.27-1.96.27Z"/>
        <path class="cls-8" d="M221.59,753.17v-13.65h2.68v2.81l-.47.31c.17-.61.51-1.17,1.01-1.68.5-.51,1.1-.93,1.79-1.25.69-.32,1.4-.48,2.13-.48,1.04,0,1.91.2,2.6.61s1.21,1.03,1.56,1.86c.35.83.52,1.88.52,3.14v8.32h-2.68v-8.13c0-.78-.1-1.43-.31-1.94s-.53-.88-.96-1.12c-.43-.23-.97-.33-1.61-.3-.52,0-1,.08-1.43.25-.43.17-.81.39-1.13.69-.32.29-.57.64-.75,1.03s-.27.81-.27,1.26v8.26h-2.68Z"/>
        <path class="cls-8" d="M235.91,742.12v-2.6h8.68v2.6h-8.68ZM238.74,753.17v-17.13h2.68v17.13h-2.68Z"/>
        <path class="cls-8" d="M253.27,753.43c-1.4,0-2.65-.3-3.73-.9-1.08-.6-1.93-1.42-2.55-2.46-.62-1.04-.92-2.24-.92-3.59,0-1.07.17-2.05.52-2.94.35-.88.83-1.65,1.44-2.3.61-.65,1.35-1.15,2.21-1.51.86-.36,1.79-.53,2.79-.53.88,0,1.71.17,2.47.51.76.34,1.43.8,1.99,1.39s1,1.29,1.3,2.09c.3.81.45,1.69.43,2.64l-.03,1.14h-11.15l-.6-2.13h9.43l-.39.44v-.62c-.05-.57-.24-1.08-.57-1.53-.33-.45-.75-.81-1.25-1.07-.5-.26-1.05-.39-1.64-.39-.94,0-1.72.18-2.36.53-.64.36-1.13.88-1.46,1.56-.33.68-.49,1.53-.49,2.53,0,.95.2,1.78.6,2.48.4.7.96,1.24,1.69,1.62.73.38,1.57.57,2.52.57.68,0,1.3-.11,1.88-.34.58-.22,1.21-.63,1.88-1.22l1.35,1.9c-.42.42-.92.78-1.52,1.09-.6.31-1.23.56-1.9.74-.67.18-1.32.27-1.96.27Z"/>
      </g>
      <g>
        <path class="cls-8" d="M299.08,511.95l-7.28-18.19h3.2l4.34,11.05c.21.54.39,1.02.56,1.46.16.43.31.83.43,1.18.12.36.23.69.34,1,.1.31.21.62.31.94l-.68.03c.12-.42.25-.85.39-1.3.14-.45.3-.94.48-1.48.18-.54.4-1.14.66-1.82l4.03-11.05h3.27l-7.33,18.19h-2.73Z"/>
        <path class="cls-8" d="M316.44,512.21c-1.4,0-2.65-.3-3.73-.9-1.08-.6-1.93-1.42-2.55-2.46-.62-1.04-.92-2.24-.92-3.59,0-1.07.17-2.05.52-2.94.35-.88.83-1.65,1.44-2.3.61-.65,1.35-1.15,2.21-1.51.86-.36,1.79-.53,2.79-.53.88,0,1.71.17,2.47.51.76.34,1.43.8,1.99,1.39s1,1.29,1.3,2.09c.3.81.45,1.69.43,2.64l-.03,1.14h-11.15l-.6-2.13h9.43l-.39.44v-.62c-.05-.57-.24-1.08-.57-1.53-.33-.45-.75-.81-1.25-1.07-.5-.26-1.05-.39-1.64-.39-.94,0-1.72.18-2.36.53-.64.36-1.13.88-1.46,1.56-.33.68-.49,1.53-.49,2.53,0,.95.2,1.78.6,2.48.4.7.96,1.24,1.69,1.62.73.38,1.57.57,2.52.57.68,0,1.3-.11,1.88-.34.58-.22,1.21-.63,1.88-1.22l1.35,1.9c-.42.42-.92.78-1.52,1.09-.6.31-1.23.56-1.9.74-.67.18-1.32.27-1.96.27Z"/>
        <path class="cls-8" d="M325.3,511.95v-13.65h2.68v2.81l-.47.31c.17-.61.51-1.17,1.01-1.68.5-.51,1.1-.93,1.79-1.25.69-.32,1.4-.48,2.13-.48,1.04,0,1.91.2,2.6.61s1.21,1.03,1.56,1.86c.35.83.52,1.88.52,3.14v8.32h-2.68v-8.13c0-.78-.1-1.43-.31-1.94s-.53-.88-.96-1.12c-.43-.23-.97-.33-1.61-.3-.52,0-1,.08-1.43.25-.43.17-.81.39-1.13.69-.32.29-.57.64-.75,1.03s-.27.81-.27,1.26v8.26h-2.68Z"/>
        <path class="cls-8" d="M339.62,500.91v-2.6h8.68v2.6h-8.68ZM342.46,511.95v-17.13h2.68v17.13h-2.68Z"/>
        <path class="cls-8" d="M355.87,512.21c-1.13,0-2.15-.31-3.08-.94-.93-.62-1.67-1.47-2.22-2.55-.55-1.07-.83-2.29-.83-3.64s.28-2.59.84-3.65c.56-1.07,1.33-1.9,2.29-2.51.96-.61,2.04-.91,3.24-.91.71,0,1.36.1,1.95.31.59.21,1.1.5,1.55.87.44.37.81.8,1.09,1.29.29.49.46,1,.53,1.56l-.6-.21v-3.54h2.7v13.65h-2.7v-3.25l.62-.18c-.1.47-.32.92-.64,1.36-.32.44-.73.84-1.22,1.18-.49.35-1.04.62-1.64.83-.6.21-1.23.31-1.88.31ZM356.57,509.75c.81,0,1.53-.2,2.16-.6.62-.4,1.11-.95,1.47-1.65.35-.7.53-1.5.53-2.4s-.18-1.67-.53-2.37-.84-1.24-1.47-1.64c-.62-.4-1.34-.6-2.16-.6s-1.5.2-2.12.6c-.62.4-1.1.94-1.46,1.64-.36.69-.53,1.48-.53,2.37s.18,1.7.53,2.4c.35.7.84,1.25,1.46,1.65.61.4,1.32.6,2.12.6Z"/>
        <path class="cls-8" d="M371.62,512.21c-1.14,0-2.17-.2-3.09-.6s-1.68-.99-2.29-1.77l1.82-1.56c.52.61,1.09,1.04,1.7,1.31.61.27,1.31.4,2.09.4.31,0,.6-.04.87-.12.27-.08.5-.19.7-.35.2-.16.35-.34.45-.56s.16-.46.16-.71c0-.45-.17-.81-.49-1.09-.17-.12-.45-.26-.82-.4-.37-.15-.85-.3-1.44-.45-1.01-.26-1.83-.55-2.47-.88-.64-.33-1.14-.7-1.48-1.12-.26-.33-.45-.69-.57-1.08-.12-.39-.18-.82-.18-1.29,0-.57.13-1.09.38-1.57.25-.48.6-.89,1.04-1.25s.96-.63,1.56-.82c.6-.19,1.23-.29,1.91-.29s1.28.09,1.91.26,1.22.42,1.75.75.99.72,1.35,1.17l-1.53,1.69c-.33-.33-.69-.62-1.08-.87-.39-.25-.78-.45-1.18-.58-.4-.14-.76-.21-1.09-.21-.36,0-.69.04-.99.1-.29.07-.54.17-.74.31-.2.14-.35.31-.46.52s-.16.44-.16.7c.02.22.07.44.17.64.09.2.23.37.4.51.19.14.48.29.86.44.38.16.87.3,1.46.44.87.22,1.58.47,2.14.74s1.01.58,1.34.92c.35.33.59.71.73,1.14.14.43.21.92.21,1.46,0,.78-.22,1.48-.66,2.09s-1.04,1.1-1.78,1.44-1.58.52-2.5.52Z"/>
      </g>
      <g>
        <path class="cls-8" d="M662.75,302.83v-18.19h2.76l6.63,10.79-1.33-.03,6.71-10.76h2.6v18.19h-2.81v-7.46c0-1.56.04-2.96.12-4.21.08-1.25.21-2.49.4-3.72l.36.96-5.95,9.2h-1.72l-5.77-9.1.29-1.07c.19,1.16.32,2.35.4,3.57.08,1.22.12,2.67.12,4.35v7.46h-2.81Z"/>
        <path class="cls-8" d="M689.78,303.09c-1.13,0-2.15-.31-3.08-.94-.93-.62-1.67-1.47-2.22-2.55-.55-1.07-.83-2.29-.83-3.64s.28-2.59.84-3.65c.56-1.07,1.33-1.9,2.29-2.51.96-.61,2.04-.91,3.24-.91.71,0,1.36.1,1.95.31.59.21,1.1.5,1.55.87.44.37.81.8,1.09,1.29.29.49.46,1,.53,1.56l-.6-.21v-3.54h2.7v13.65h-2.7v-3.25l.62-.18c-.1.47-.32.92-.64,1.36-.32.44-.73.84-1.22,1.18-.49.35-1.04.62-1.64.83-.6.21-1.23.31-1.88.31ZM690.48,300.62c.81,0,1.53-.2,2.16-.6.62-.4,1.11-.95,1.47-1.65.35-.7.53-1.5.53-2.4s-.18-1.67-.53-2.37-.84-1.24-1.47-1.64c-.62-.4-1.34-.6-2.16-.6s-1.5.2-2.12.6c-.62.4-1.1.94-1.46,1.64-.36.69-.53,1.48-.53,2.37s.18,1.7.53,2.4c.35.7.84,1.25,1.46,1.65.61.4,1.32.6,2.12.6Z"/>
        <path class="cls-8" d="M700.98,302.83v-13.65h2.7v4.29l-.26-1.04c.19-.66.52-1.26.97-1.79.46-.54.99-.96,1.59-1.27.6-.31,1.22-.47,1.86-.47.29,0,.58.03.84.08.27.05.48.11.64.18l-.7,2.91c-.21-.09-.44-.16-.69-.22-.25-.06-.5-.09-.74-.09-.47,0-.91.09-1.34.27-.42.18-.8.43-1.12.75-.32.32-.58.69-.77,1.12-.19.42-.29.89-.29,1.39v7.54h-2.7Z"/>
        <path class="cls-8" d="M711.46,302.83v-19.23h2.68v19.23h-2.68ZM713.9,298.57l-.13-2.91,6.52-6.47h3.61l-10.01,9.38ZM720.66,302.83l-5.15-6,1.9-1.74,6.68,7.75h-3.43Z"/>
        <path class="cls-8" d="M732.01,303.09c-1.4,0-2.65-.3-3.73-.9-1.08-.6-1.93-1.42-2.55-2.46-.62-1.04-.92-2.24-.92-3.59,0-1.07.17-2.05.52-2.94.35-.88.83-1.65,1.44-2.3.61-.65,1.35-1.15,2.21-1.51.86-.36,1.79-.53,2.79-.53.88,0,1.71.17,2.47.51.76.34,1.43.8,1.99,1.39s1,1.29,1.3,2.09c.3.81.45,1.69.43,2.64l-.03,1.14h-11.15l-.6-2.13h9.43l-.39.44v-.62c-.05-.57-.24-1.08-.57-1.53-.33-.45-.75-.81-1.25-1.07-.5-.26-1.05-.39-1.64-.39-.94,0-1.72.18-2.36.53-.64.36-1.13.88-1.46,1.56-.33.68-.49,1.53-.49,2.53,0,.95.2,1.78.6,2.48.4.7.96,1.24,1.69,1.62.73.38,1.57.57,2.52.57.68,0,1.3-.11,1.88-.34.58-.22,1.21-.63,1.88-1.22l1.35,1.9c-.42.42-.92.78-1.52,1.09-.6.31-1.23.56-1.9.74-.67.18-1.32.27-1.96.27Z"/>
        <path class="cls-8" d="M739.73,291.79v-2.6h8.68v2.6h-8.68ZM742.57,302.83v-17.13h2.68v17.13h-2.68Z"/>
        <path class="cls-8" d="M752.6,286.17c-.57,0-1.01-.15-1.33-.44s-.47-.71-.47-1.25c0-.5.16-.91.48-1.22.32-.31.76-.47,1.31-.47s1.01.15,1.33.44c.31.29.47.71.47,1.25,0,.5-.16.91-.48,1.22-.32.31-.76.47-1.31.47ZM751.3,302.83v-13.65h2.68v13.65h-2.68Z"/>
        <path class="cls-8" d="M758.08,302.83v-13.65h2.68v2.81l-.47.31c.17-.61.51-1.17,1.01-1.68.5-.51,1.1-.93,1.79-1.25.69-.32,1.4-.48,2.13-.48,1.04,0,1.91.2,2.6.61s1.21,1.03,1.56,1.86c.35.83.52,1.88.52,3.14v8.32h-2.68v-8.13c0-.78-.1-1.43-.31-1.94s-.53-.88-.96-1.12c-.43-.23-.97-.33-1.61-.3-.52,0-1,.08-1.43.25-.43.17-.81.39-1.13.69-.32.29-.57.64-.75,1.03s-.27.81-.27,1.26v8.26h-2.68Z"/>
        <path class="cls-8" d="M779.65,308.81c-.97,0-1.94-.15-2.9-.45-.96-.3-1.74-.7-2.33-1.18l.99-2.08c.35.26.75.49,1.22.69.47.2.96.35,1.48.47.52.11,1.03.17,1.53.17.95,0,1.75-.16,2.39-.47.64-.31,1.13-.77,1.46-1.38s.49-1.36.49-2.26v-2.62l.29.18c-.09.54-.37,1.05-.84,1.55-.48.49-1.07.9-1.78,1.21-.71.31-1.44.47-2.18.47-1.3,0-2.46-.31-3.47-.92-1.01-.61-1.82-1.46-2.4-2.52-.59-1.07-.88-2.28-.88-3.65s.29-2.59.87-3.65,1.38-1.91,2.39-2.52,2.15-.92,3.42-.92c.52,0,1.02.06,1.51.19.48.13.94.31,1.35.55.42.23.79.49,1.12.77.33.28.6.57.81.88.21.31.34.61.39.88l-.57.21v-3.2h2.68v12.81c0,1.09-.16,2.06-.48,2.9-.32.84-.78,1.55-1.39,2.13-.61.58-1.34,1.02-2.21,1.33-.87.3-1.85.45-2.94.45ZM779.76,300.62c.85,0,1.6-.2,2.26-.6.66-.4,1.17-.94,1.53-1.64.36-.69.55-1.49.55-2.39s-.19-1.7-.56-2.4c-.37-.7-.88-1.25-1.53-1.65-.65-.4-1.4-.6-2.25-.6s-1.57.2-2.22.61-1.16.96-1.53,1.66c-.37.7-.56,1.5-.56,2.38s.19,1.68.56,2.38c.37.7.88,1.25,1.53,1.65s1.39.6,2.22.6Z"/>
      </g>
      <g>
        <g class="cls-4">
          <path class="cls-8" d="M95.3,1022.47c17.31,0,31.35,6.84,31.35,15.27,0,8.43-14.03,15.27-31.35,15.27-17.31,0-31.35-6.84-31.35-15.27s14.03-15.27,31.35-15.27Z"/>
          <path class="cls-8" d="M95.3,1053.58c-17.6,0-31.92-7.11-31.92-15.84s14.32-15.84,31.92-15.84,31.92,7.11,31.92,15.84-14.32,15.84-31.92,15.84ZM95.3,1023.05c-16.97,0-30.77,6.59-30.77,14.69s13.8,14.69,30.77,14.69,30.77-6.59,30.77-14.69-13.8-14.69-30.77-14.69Z"/>
        </g>
        <g>
          <g>
            <path class="cls-8" d="M65.73,980.19c-1.14,3.69-1.75,7.61-1.75,11.67,0,21.81,17.68,39.49,39.49,39.49,12.12,0,22.96-5.47,30.2-14.06-4.98,16.11-19.99,27.82-37.73,27.82-21.81,0-39.49-17.68-39.49-39.49,0-9.69,3.49-18.55,9.28-25.42Z"/>
            <path class="cls-8" d="M95.94,1045.67c-22.09,0-40.06-17.97-40.06-40.06,0-9.43,3.34-18.58,9.42-25.79l1.82-2.16-.83,2.7c-1.15,3.71-1.73,7.58-1.73,11.5,0,21.46,17.46,38.91,38.91,38.91,11.49,0,22.34-5.05,29.77-13.86l1.82-2.16-.83,2.7c-5.21,16.88-20.6,28.22-38.28,28.22ZM64.44,982.77c-4.8,6.62-7.41,14.62-7.41,22.84,0,21.46,17.46,38.91,38.91,38.91,16.23,0,30.47-9.84,36.26-24.76-7.53,7.76-17.85,12.16-28.73,12.16-22.09,0-40.06-17.97-40.06-40.06,0-3.07.35-6.12,1.04-9.08Z"/>
          </g>
          <g>
            <path class="cls-8" d="M103.46,1031.34c-21.81,0-39.49-17.68-39.49-39.49,0-4.06.61-7.98,1.75-11.67,7.24-8.6,18.08-14.06,30.2-14.06,21.81,0,39.49,17.68,39.49,39.49,0,4.06-.61,7.98-1.75,11.67-7.24,8.6-18.08,14.06-30.2,14.06Z"/>
            <path class="cls-8" d="M103.46,1031.91c-22.09,0-40.06-17.97-40.06-40.06,0-4.03.6-8.01,1.78-11.84l.11-.2c7.64-9.07,18.81-14.27,30.64-14.27,22.09,0,40.06,17.97,40.06,40.06,0,4.03-.6,8.01-1.78,11.84l-.11.2c-7.64,9.07-18.81,14.27-30.64,14.27ZM66.25,980.47c-1.12,3.68-1.69,7.51-1.69,11.39,0,21.46,17.46,38.91,38.91,38.91,11.46,0,22.27-5.02,29.69-13.77,1.12-3.68,1.69-7.51,1.69-11.39,0-21.46-17.46-38.91-38.91-38.91-11.46,0-22.27,5.02-29.69,13.77Z"/>
          </g>
          <g>
            <path class="cls-8" d="M101.04,974.98c-5.74,4.87-4.49,15.79,2.81,24.39,7.29,8.59,17.86,11.61,23.61,6.73,5.74-4.87,4.49-15.79-2.81-24.39-7.29-8.59-17.86-11.61-23.61-6.73Z"/>
            <path class="cls-8" d="M120.63,1009.01c-1.44,0-2.97-.22-4.56-.68-4.57-1.3-9.06-4.36-12.66-8.6-7.49-8.82-8.72-20.12-2.74-25.2,2.93-2.49,7.1-3.13,11.75-1.8,4.57,1.3,9.06,4.36,12.66,8.6,3.6,4.24,5.88,9.18,6.42,13.89.55,4.8-.76,8.82-3.68,11.3-1.93,1.64-4.4,2.47-7.19,2.47ZM107.87,973.22c-2.52,0-4.74.74-6.45,2.2-5.49,4.66-4.2,15.24,2.87,23.58,3.45,4.07,7.75,7,12.1,8.24,4.27,1.22,8.07.66,10.69-1.57,2.63-2.23,3.79-5.89,3.29-10.3-.52-4.49-2.7-9.21-6.16-13.28-3.45-4.07-7.75-7-12.1-8.24-1.48-.42-2.9-.63-4.24-.63Z"/>
          </g>
        </g>
      </g>
      <path class="cls-8" d="M715.98,319.8c-1.33.96-2.68,1.89-4.05,2.79-3.08,2.02-6.28,3.88-9.51,5.64-3.23,1.75-6.56,3.25-9.91,4.76-1.63.73-3.25,1.46-4.91,2.13-.29.12-.6.23-.9.33.45-.66.92-1.3,1.37-1.96.93-1.36-1.34-2.92-2.37-1.65-1.42,1.74-2.87,3.46-4.2,5.28-.57.78-.62,2.16.47,2.6,2.44.97,4.87,1.94,7.3,2.9,2.52,1,3.89-2.65,1.29-3.52-1-.34-2-.67-3-1,.3-.1.61-.19.91-.27,1.83-.52,3.67-1.06,5.47-1.72,3.48-1.27,6.86-2.89,10.15-4.57,3.41-1.74,6.68-3.72,9.85-5.87,1.58-1.07,3.14-2.19,4.66-3.35,1.32-1,2.77-1.86,3.53-3.36.58-1.15-.52-2.32-1.7-2.02-1.69.43-3.05,1.85-4.44,2.86Z"/>
      <path class="cls-8" d="M213.85,766.37c1.33.96,2.68,1.89,4.05,2.79,3.08,2.02,6.28,3.88,9.51,5.64,3.23,1.75,6.56,3.25,9.91,4.76,1.63.73,3.25,1.46,4.91,2.13.29.12.6.23.9.33-.45-.66-.92-1.3-1.37-1.96-.93-1.36,1.34-2.92,2.37-1.65,1.42,1.74,2.87,3.46,4.2,5.28.57.78.62,2.16-.47,2.6-2.44.97-4.87,1.94-7.3,2.9-2.52,1-3.89-2.65-1.29-3.52,1-.34,2-.67,3-1-.3-.1-.61-.19-.91-.27-1.83-.52-3.67-1.06-5.47-1.72-3.48-1.27-6.86-2.89-10.15-4.57-3.41-1.74-6.68-3.72-9.85-5.87-1.58-1.07-3.14-2.19-4.66-3.35-1.32-1-2.77-1.86-3.53-3.36-.58-1.15.52-2.32,1.7-2.02,1.69.43,3.05,1.85,4.44,2.86Z"/>
      <path class="cls-8" d="M310.24,589.21c4.69.67,9.43-.91,13.93-2.04,5.03-1.26,10.09-2.53,15.25-3.11,8.23-.93,15.99.35,23,4.15-1.65-.3-3.3-.68-4.98-.67-1.94.01-2.5,3.1-.47,3.49,4.47.87,8.63,2.04,12.73,4.05,2.22,1.09,4.22-1.5,2.61-3.38-3.46-4.03-6.04-8.72-8.02-13.64-1.2-2.97-5.41-1.26-4.08,1.72.7,1.57,1.58,3.03,2.4,4.53-4.44-2.58-9.68-3.91-14.82-4.25-10.33-.68-20.24,2.5-30.21,4.63-4.5.96-11.02,1.28-12.65-4.22-1.35-4.56.5-10.07,2.47-14.17,4.35-9.05,11.99-15.91,16.75-24.7,2.29-4.22,4.13-9.59,1.64-14.14-1.86-3.4-5.66-5.65-9.47-4.16-.97.38-.96,2.12.27,1.99,5.42-.56,7.14,5.55,5.86,9.74-1.44,4.72-4.97,8.85-7.88,12.74-5.45,7.27-11.52,14.56-13.58,23.64-.89,3.94-1.27,8.5.64,12.21,1.68,3.26,5.07,5.1,8.6,5.6Z"/>
      <g>
        <path class="cls-8" d="M447.84,70.43v-18.19h2.81v15.49h8.52v2.7h-11.33Z"/>
        <path class="cls-8" d="M468.58,70.69c-1.4,0-2.65-.3-3.73-.9-1.08-.6-1.93-1.42-2.55-2.46-.62-1.04-.92-2.24-.92-3.59,0-1.07.17-2.05.52-2.94.35-.88.83-1.65,1.44-2.3.61-.65,1.35-1.15,2.21-1.51.86-.36,1.79-.53,2.79-.53.88,0,1.71.17,2.47.51.76.34,1.43.8,1.99,1.39s1,1.29,1.3,2.09c.3.81.45,1.69.43,2.64l-.03,1.14h-11.15l-.6-2.13h9.43l-.39.44v-.62c-.05-.57-.24-1.08-.57-1.53-.33-.45-.75-.81-1.25-1.07-.5-.26-1.05-.39-1.64-.39-.94,0-1.72.18-2.36.53-.64.36-1.13.88-1.46,1.56-.33.68-.49,1.53-.49,2.53,0,.95.2,1.78.6,2.48.4.7.96,1.24,1.69,1.62.73.38,1.57.57,2.52.57.68,0,1.3-.11,1.88-.34.58-.22,1.21-.63,1.88-1.22l1.35,1.9c-.42.42-.92.78-1.52,1.09-.6.31-1.23.56-1.9.74-.67.18-1.32.27-1.96.27Z"/>
        <path class="cls-8" d="M482.7,70.69c-1.13,0-2.15-.31-3.08-.94-.93-.62-1.67-1.47-2.22-2.55-.55-1.07-.83-2.29-.83-3.64s.28-2.59.84-3.65c.56-1.07,1.33-1.9,2.29-2.51.96-.61,2.04-.91,3.24-.91.71,0,1.36.1,1.95.31.59.21,1.1.5,1.55.87.44.37.81.8,1.09,1.29.29.49.46,1,.53,1.56l-.6-.21v-3.54h2.7v13.65h-2.7v-3.25l.62-.18c-.1.47-.32.92-.64,1.36-.32.44-.73.84-1.22,1.18-.49.35-1.04.62-1.64.83-.6.21-1.23.31-1.88.31ZM483.4,68.22c.81,0,1.53-.2,2.16-.6.62-.4,1.11-.95,1.47-1.65.35-.7.53-1.5.53-2.4s-.18-1.67-.53-2.37-.84-1.24-1.47-1.64c-.62-.4-1.34-.6-2.16-.6s-1.5.2-2.12.6c-.62.4-1.1.94-1.46,1.64-.36.69-.53,1.48-.53,2.37s.18,1.7.53,2.4c.35.7.84,1.25,1.46,1.65.61.4,1.32.6,2.12.6Z"/>
        <path class="cls-8" d="M499.59,70.69c-1.25,0-2.36-.31-3.34-.92-.98-.61-1.75-1.46-2.33-2.52s-.86-2.28-.86-3.65.28-2.59.84-3.65,1.33-1.91,2.3-2.52c.97-.62,2.07-.92,3.3-.92.68,0,1.33.11,1.96.32.63.22,1.2.51,1.7.88.5.37.9.78,1.18,1.22.29.44.43.89.43,1.34l-.78.05v-9.12h2.68v19.23h-2.68v-3.25h.52c0,.42-.14.83-.42,1.23-.28.41-.65.78-1.1,1.13-.46.35-.99.62-1.59.83s-1.21.31-1.83.31ZM499.96,68.38c.81,0,1.53-.21,2.16-.62.62-.42,1.11-.98,1.47-1.7.35-.72.53-1.54.53-2.46s-.18-1.74-.53-2.46c-.36-.72-.84-1.29-1.47-1.7-.62-.42-1.34-.62-2.16-.62s-1.53.21-2.16.62c-.62.42-1.11.98-1.47,1.7-.35.72-.53,1.54-.53,2.46s.18,1.74.53,2.46c.35.72.84,1.29,1.47,1.7.62.42,1.34.62,2.16.62Z"/>
      </g>
      <path class="cls-8" d="M443.59,105.66c-2.7,2.37-5.75,4.36-8.9,6.08-2.94,1.6-6.58,3.36-9.98,3.4-1.25.01-1.65-1.78-.74-2.48,2.43-1.87,5.62-3.01,8.28-4.57,2.78-1.63,5.33-3.56,7.79-5.63,3.58-3.02,7.21-6.62,9.72-10.75-2.41,1.2-4.95,2.08-7.47,1.94-1.64-.09-1.98-2.49-.5-3.11,1.94-.82,4.13-1.03,6.13-1.71,1.63-.55,3.1-1.39,4.57-2.27.09-.06.19-.1.29-.14.36-.22.78-.31,1.12-.56.87-.62,2.22-.24,2.37.91.58,4.28,1.04,10.55-1.63,14.24-.32.45-1.01.25-1.11-.26-.42-2.02-.03-4.22.03-6.27.01-.35-.03-.68-.03-1.03-2.16,4.77-6.29,9.01-9.94,12.21Z"/>
      <g>
        <g class="cls-4">
          <path class="cls-8" d="M363.67,148.6c17.31,0,31.35,6.84,31.35,15.27s-14.03,15.27-31.35,15.27c-17.31,0-31.35-6.84-31.35-15.27s14.03-15.27,31.35-15.27Z"/>
          <path class="cls-8" d="M363.67,179.71c-17.6,0-31.92-7.11-31.92-15.84s14.32-15.84,31.92-15.84,31.92,7.11,31.92,15.84-14.32,15.84-31.92,15.84ZM363.67,149.17c-16.97,0-30.77,6.59-30.77,14.69s13.8,14.69,30.77,14.69,30.77-6.59,30.77-14.69-13.8-14.69-30.77-14.69Z"/>
        </g>
        <g>
          <g>
            <path class="cls-8" d="M334.1,106.31c-1.14,3.69-1.75,7.61-1.75,11.67,0,21.81,17.68,39.49,39.49,39.49,12.12,0,22.96-5.47,30.2-14.06-4.98,16.11-19.99,27.82-37.73,27.82-21.81,0-39.49-17.68-39.49-39.49,0-9.69,3.49-18.55,9.28-25.42Z"/>
            <path class="cls-8" d="M364.3,171.79c-22.09,0-40.06-17.97-40.06-40.06,0-9.43,3.34-18.58,9.42-25.79l1.82-2.16-.83,2.7c-1.15,3.71-1.73,7.58-1.73,11.5,0,21.46,17.46,38.91,38.91,38.91,11.49,0,22.34-5.05,29.77-13.86l1.82-2.16-.83,2.7c-5.21,16.88-20.6,28.22-38.28,28.22ZM332.81,108.89c-4.8,6.62-7.41,14.62-7.41,22.84,0,21.46,17.46,38.91,38.91,38.91,16.23,0,30.47-9.84,36.26-24.76-7.53,7.76-17.85,12.16-28.73,12.16-22.09,0-40.06-17.97-40.06-40.06,0-3.07.35-6.12,1.04-9.08Z"/>
          </g>
          <g>
            <path class="cls-8" d="M371.83,157.46c-21.81,0-39.49-17.68-39.49-39.49,0-4.06.61-7.98,1.75-11.67,7.24-8.6,18.08-14.06,30.2-14.06,21.81,0,39.49,17.68,39.49,39.49,0,4.06-.61,7.98-1.75,11.67-7.24,8.6-18.08,14.06-30.2,14.06Z"/>
            <path class="cls-8" d="M371.83,158.04c-22.09,0-40.06-17.97-40.06-40.06,0-4.03.6-8.01,1.78-11.84l.11-.2c7.64-9.07,18.81-14.27,30.64-14.27,22.09,0,40.06,17.97,40.06,40.06,0,4.03-.6,8.01-1.78,11.84l-.11.2c-7.64,9.07-18.81,14.27-30.64,14.27ZM334.61,106.59c-1.12,3.68-1.69,7.51-1.69,11.39,0,21.46,17.46,38.91,38.91,38.91,11.46,0,22.27-5.02,29.69-13.77,1.12-3.68,1.69-7.51,1.69-11.39,0-21.46-17.46-38.91-38.91-38.91-11.46,0-22.27,5.02-29.69,13.77Z"/>
          </g>
          <g>
            <path class="cls-8" d="M369.41,101.11c-5.74,4.87-4.49,15.79,2.81,24.39,7.29,8.59,17.86,11.61,23.61,6.73,5.74-4.87,4.49-15.79-2.81-24.39-7.29-8.59-17.86-11.61-23.61-6.73Z"/>
            <path class="cls-8" d="M389,135.14c-1.44,0-2.97-.22-4.56-.68-4.57-1.3-9.06-4.36-12.66-8.6-7.49-8.82-8.72-20.12-2.74-25.2,2.93-2.49,7.1-3.13,11.75-1.8,4.57,1.3,9.06,4.36,12.66,8.6,3.6,4.24,5.88,9.18,6.42,13.89.55,4.8-.76,8.82-3.68,11.3-1.93,1.64-4.4,2.47-7.19,2.47ZM376.24,99.35c-2.52,0-4.74.74-6.45,2.2-5.49,4.66-4.2,15.24,2.87,23.58,3.45,4.07,7.75,7,12.1,8.24,4.27,1.22,8.07.66,10.69-1.57,2.63-2.23,3.79-5.89,3.29-10.3-.52-4.49-2.7-9.21-6.16-13.28-3.45-4.07-7.75-7-12.1-8.24-1.48-.42-2.9-.63-4.24-.63Z"/>
          </g>
        </g>
      </g>
    </g>
  </g>
</svg>