<?xml version="1.0" encoding="UTF-8"?>
<svg id="Capa_1" data-name="Capa 1" xmlns="http://www.w3.org/2000/svg" xmlns:xlink="http://www.w3.org/1999/xlink" viewBox="0 0 779.12 880.85">
  <defs>
    <style>
      .cls-1 {
        fill: #f6bd1a;
      }

      .cls-2 {
        fill: #88064b;
      }

      .cls-3 {
        filter: url(#drop-shadow-1);
        opacity: .24;
      }

      .cls-4 {
        fill: #be1869;
      }

      .cls-5 {
        opacity: .41;
      }

      .cls-5, .cls-6 {
        fill: #23262a;
      }
    </style>
    <filter id="drop-shadow-1" x="523.45" y="204.43" width="203" height="167" filterUnits="userSpaceOnUse">
      <feOffset dx="0" dy="5"/>
      <feGaussianBlur result="blur" stdDeviation="20"/>
      <feFlood flood-color="#ffeec9" flood-opacity=".8"/>
      <feComposite in2="blur" operator="in"/>
      <feComposite in="SourceGraphic"/>
    </filter>
  </defs>
  <g>
    <polygon class="cls-6" points="631.56 222.59 725.23 172.13 598.97 99.29 598.3 100.45 722.47 172.09 630.92 221.4 631.56 222.59"/>
    <polygon class="cls-5" points="626.59 219.79 627.26 218.62 510.68 151.58 598.66 100.84 616.32 110.98 616.99 109.82 598.66 99.29 598.32 99.48 507.98 151.58 626.59 219.79"/>
    <polygon class="cls-6" points="630.59 226.76 631.26 225.6 510.02 155.56 510.01 152.75 630.9 222.58 631.57 221.41 508.65 150.41 508.68 156.33 509.01 156.53 630.59 226.76"/>
    <path class="cls-6" d="M631.91,225.59v.17h-1.34v-4.17s94.08-50.67,94.08-50.67v6.03s-92.32,49.41-92.32,49.41l-.41-.77ZM723.3,173.17l-91.39,49.22v2.65s91.39-48.91,91.39-48.91v-2.97Z"/>
  </g>
  <g>
    <polygon class="cls-1" points="648.58 162.5 661.5 187.03 616.3 181.11 648.58 162.5"/>
    <polygon class="cls-1" points="603.38 136.67 616.3 161.19 571.1 155.28 603.38 136.67"/>
  </g>
  <g>
    <g>
      <path class="cls-6" d="M727.35,337.17v-60.91h1.34c0,6.8,7.88,12.34,17.57,12.34,9.69,0,17.58-5.54,17.58-12.34h1.34v60.91c0,7.55-8.49,13.69-18.92,13.69-10.43,0-18.92-6.14-18.92-13.69ZM746.27,289.95c-7.96,0-14.78-3.57-17.57-8.62v55.84c0,6.8,7.88,12.34,17.57,12.34,9.69,0,17.58-5.54,17.58-12.34v-55.84c-2.79,5.05-9.62,8.62-17.58,8.62Z"/>
      <path class="cls-6" d="M763.85,276.26h1.34s0-1.66,0-1.66h-1.42s.03.74.03.74c.03.3.05.61.05.92Z"/>
    </g>
    <g>
      <path class="cls-6" d="M746.27,288.48c10.43,0,18.92-6.14,18.92-13.69v-60.91s-1.34,0-1.34,0c0,6.8-7.89,12.34-17.58,12.34-9.69,0-17.57-5.54-17.57-12.34h-1.34s0,32.64,0,32.64h1.34s0-27.57,0-27.57c2.79,5.04,9.62,8.62,17.57,8.62,7.96,0,14.79-3.57,17.58-8.62v55.84c0,6.8-7.89,12.34-17.58,12.34-9.69,0-17.57-5.54-17.57-12.34v-26.24s-1.34,0-1.34,0v26.24c0,7.55,8.49,13.69,18.92,13.69Z"/>
      <rect class="cls-6" x="727.35" y="246.52" width="1.34" height="2.02"/>
      <path class="cls-6" d="M763.85,213.88h1.34s0-1.66,0-1.66h-1.42s.03.74.03.74c.03.3.05.61.05.92Z"/>
      <path class="cls-6" d="M727.35,213.88c0-.36.02-.71.06-1.06.74-7.08,9.03-12.63,18.86-12.63s18.12,5.55,18.87,12.63c.04.35.06.7.06,1.06,0,7.55-8.49,13.69-18.92,13.69-10.43,0-18.92-6.14-18.92-13.69ZM728.74,212.96c-.03.3-.05.61-.05.92,0,6.8,7.88,12.34,17.57,12.34,9.69,0,17.58-5.54,17.58-12.34,0-.31-.02-.61-.05-.92h0c-.67-6.41-8.37-11.43-17.53-11.43s-16.85,5.02-17.53,11.42Z"/>
    </g>
  </g>
  <g>
    <g>
      <g>
        <polyline class="cls-4" points="632.4 332.1 726.4 278.04 633.81 224.65 503.93 299.26 596.37 352.61"/>
        <polygon class="cls-6" points="596.03 353.19 596.7 352.03 505.28 299.26 633.81 225.43 725.05 278.04 632.07 331.51 632.74 332.68 727.74 278.04 633.81 223.87 633.48 224.07 502.59 299.26 596.03 353.19"/>
      </g>
      <g>
        <path class="cls-4" d="M632.4,332.1c.36,1.33.65,2.67.81,4.05l93.16-53.57.02-4.53-93.99,54.06Z"/>
        <path class="cls-6" d="M632.55,336.22c-.15-1.27-.41-2.56-.79-3.95l-.14-.5,95.46-54.9-.02,6.08-94.38,54.27-.12-1.01ZM725.72,279.21l-92.53,53.22c.23.91.42,1.78.56,2.64l91.97-52.89v-2.97Z"/>
      </g>
      <g>
        <polygon class="cls-4" points="503.93 299.26 596.37 352.61 596.39 357.14 503.93 303.92 503.93 299.26"/>
        <path class="cls-6" d="M503.26,304.31v-6.22s93.77,54.13,93.77,54.13l.03,6.08-93.8-53.99ZM504.61,300.42v3.11s91.1,52.44,91.1,52.44v-2.97s-91.1-52.58-91.1-52.58Z"/>
      </g>
    </g>
    <g>
      <g>
        <path class="cls-6" d="M595.69,418.87v-60.91h1.34c0,6.8,7.88,12.34,17.57,12.34,9.69,0,17.58-5.54,17.58-12.34h1.34v60.91c0,7.55-8.49,13.69-18.92,13.69-10.43,0-18.92-6.14-18.92-13.69ZM614.61,371.65c-7.96,0-14.78-3.57-17.57-8.62v55.84c0,6.8,7.88,12.34,17.57,12.34,9.69,0,17.58-5.54,17.58-12.34v-55.84c-2.79,5.05-9.62,8.62-17.58,8.62Z"/>
        <path class="cls-6" d="M632.19,357.96h1.34s0-1.66,0-1.66h-1.42s.03.74.03.74c.03.3.05.61.05.92Z"/>
      </g>
      <g>
        <path class="cls-6" d="M614.61,370.18c10.43,0,18.92-6.14,18.92-13.69v-60.91s-1.34,0-1.34,0c0,6.8-7.88,12.34-17.58,12.34-9.69,0-17.57-5.54-17.57-12.34h-1.34s0,32.64,0,32.64h1.34s0-27.57,0-27.57c2.79,5.04,9.62,8.62,17.57,8.62,7.96,0,14.79-3.57,17.58-8.62v55.84c0,6.8-7.88,12.34-17.58,12.34-9.69,0-17.57-5.54-17.57-12.34v-26.25s-1.34,0-1.34,0v26.25c0,7.55,8.49,13.69,18.92,13.69Z"/>
        <rect class="cls-6" x="595.69" y="328.22" width="1.34" height="2.02"/>
        <path class="cls-6" d="M632.19,295.58h1.34s0-1.66,0-1.66h-1.42s.03.74.03.74c.03.3.05.61.05.92Z"/>
        <path class="cls-6" d="M595.69,295.58c0-.36.02-.71.06-1.06.74-7.08,9.03-12.63,18.86-12.63,9.83,0,18.12,5.55,18.87,12.63h0c.04.35.06.7.06,1.06,0,7.55-8.49,13.69-18.92,13.69-10.43,0-18.92-6.14-18.92-13.69ZM614.61,283.24c-9.15,0-16.85,5.02-17.53,11.42-.03.3-.05.61-.05.92,0,6.8,7.88,12.34,17.57,12.34,9.69,0,17.58-5.54,17.58-12.34,0-.31-.02-.61-.05-.92h0c-.67-6.41-8.37-11.42-17.53-11.42Z"/>
      </g>
    </g>
    <g>
      <g>
        <path class="cls-4" d="M690.47,262.43l-5.53,13.43,11.47,6.67c1.61-4.37,5.52-6.94,7.92-10.93l-2.26-2.82-11.6-6.36Z"/>
        <path class="cls-6" d="M684.1,276.15l6.04-14.67,12.26,6.72,2.76,3.35-.24.4c-1.03,1.71-2.32,3.16-3.57,4.56-1.75,1.96-3.39,3.81-4.29,6.25l-.28.75-12.67-7.37ZM701.63,269.32l-10.83-5.94-5.02,12.19,10.3,5.99c1.03-2.32,2.66-4.16,4.25-5.94,1.11-1.24,2.25-2.53,3.17-3.96l-1.88-2.34Z"/>
      </g>
      <g>
        <polygon class="cls-4" points="640.11 330.85 651.58 337.52 653.84 327.23 642.37 320.56 640.11 330.85"/>
        <path class="cls-6" d="M639.35,331.18l2.56-11.67,12.7,7.38-2.56,11.67-12.7-7.38ZM642.83,321.6l-1.96,8.91,10.25,5.96,1.96-8.91-10.25-5.96Z"/>
      </g>
      <g>
        <g>
          <polygon class="cls-4" points="649.11 336.09 649.11 336.08 640.11 330.85 649.11 336.09"/>
          <polygon class="cls-6" points="649.79 337.26 649.79 335.7 640.45 330.27 639.77 331.43 649.79 337.26"/>
        </g>
        <g>
          <g>
            <path class="cls-4" d="M654.39,365.09l-11.47-6.67,3.9,5.95,11.47,6.67s2.81-5.5,6.34-12.25c-2.14-.11-3.37-.37-5.43-1.94l-4.81,8.24Z"/>
            <path class="cls-6" d="M646.34,364.87l-5.55-8.46,13.36,7.77,4.86-8.32.6.46c1.97,1.5,3.06,1.7,5.06,1.81l1.05.05-.49.93c-3.53,6.75-6.34,12.24-6.34,12.24l-.32.63-12.23-7.11ZM659.41,357.83l-4.78,8.18-9.59-5.58,2.25,3.43,10.72,6.24c.79-1.54,2.94-5.71,5.55-10.71-1.53-.16-2.66-.52-4.16-1.56Z"/>
          </g>
          <g>
            <polygon class="cls-4" points="642.91 358.42 654.39 365.09 661.99 352.06 650.52 345.39 642.91 358.42"/>
            <path class="cls-6" d="M641.99,358.66l8.29-14.19,12.64,7.35-8.28,14.19-12.64-7.35ZM650.76,346.31l-6.93,11.87,10.31,6,6.93-11.87-10.31-6Z"/>
          </g>
          <g>
            <polygon class="cls-4" points="707.8 275.93 710.99 287.43 719.27 282.6 729.66 273.82 718.19 267.14 707.8 275.93"/>
            <path class="cls-6" d="M707.03,275.69l11.08-9.37,12.71,7.39-11.21,9.47-9.03,5.26-3.55-12.75ZM718.26,267.96l-9.7,8.2,2.85,10.24,7.43-4.32,9.66-8.17-10.24-5.96Z"/>
          </g>
          <g>
            <polygon class="cls-4" points="666.65 371.22 678.13 377.89 680.07 355.63 666.74 358.87 666.65 371.22"/>
            <path class="cls-6" d="M665.98,371.6l.1-13.26,14.75-3.59-2.12,24.24-12.73-7.4ZM667.41,359.4l-.08,11.43,10.22,5.95,1.77-20.27-11.91,2.9Z"/>
          </g>
          <g>
            <path class="cls-2" d="M710.99,287.43l-3.2-11.5-1.88-2.34c-3.07,5.45-4.62,11.58-7.35,17.22-1.2,2.47-2.27,5.26-3.49,7.94,1.61,1.85,2.56,4.65,2.56,8.25,0,9.66-6.78,21.41-15.15,26.24-1.28.74-2.59.97-3.88.83-.82-.09-8.32,13.92-13.97,24.72.62.03,1.3.05,2.11.09l13.33-3.24c4.19-2.06,8.26-4.97,12.07-8.49l7.46,4.45,7.1-8.61-2.4-10.57c3.09-4.86,5.7-10.09,7.66-15.44l10.64-6.04,4.71-4.9.08-3.92-11.56-2.76c.32-5.06-3.67-8.19-4.84-11.94Z"/>
            <path class="cls-6" d="M665.88,359.51c-.46-.02-.89-.03-1.28-.05l-1.05-.06.49-.93c13.21-25.24,13.94-25.14,14.64-25.08,1.22.14,2.39-.12,3.48-.74,8.17-4.72,14.82-16.23,14.82-25.66,0-3.31-.83-6.01-2.39-7.81l-.28-.33.18-.39c.51-1.13,1-2.28,1.48-3.42.68-1.6,1.31-3.1,2.01-4.54,1.18-2.43,2.15-5,3.1-7.49,1.24-3.27,2.52-6.64,4.28-9.76l.49-.87,2.5,3.12,3.32,11.73c.4,1.3,1.18,2.54,2.01,3.86,1.36,2.17,2.89,4.61,2.88,7.75l11.55,2.75-.1,4.72-4.89,5.09-10.58,6.04c-1.92,5.19-4.44,10.27-7.49,15.1l2.42,10.62-7.68,9.31-7.52-4.49c-3.84,3.5-7.83,6.28-11.86,8.26l-13.56,3.31-.93-.04ZM691.68,346.65l.37-.34,7.4,4.41,6.52-7.91-2.39-10.52.15-.24c3.11-4.89,5.67-10.04,7.6-15.3l.08-.23,10.77-6.11,4.46-4.64.07-3.11-11.58-2.76.04-.56c.19-2.98-1.26-5.29-2.65-7.52-.87-1.4-1.7-2.72-2.16-4.19l-3.17-11.38-1.16-1.45c-1.47,2.79-2.61,5.79-3.71,8.7-.95,2.52-1.94,5.12-3.14,7.6-.68,1.41-1.32,2.9-1.98,4.48-.43,1.02-.87,2.05-1.32,3.06,1.6,2.03,2.44,4.91,2.44,8.35,0,9.86-6.95,21.9-15.49,26.83-1.26.73-2.62,1.05-4.05.94-.63.68-3.14,4.48-13.05,23.4.07,0,.14,0,.21,0l.75.03,13.16-3.2c4.02-1.99,8-4.8,11.85-8.35Z"/>
          </g>
          <g>
            <polygon class="cls-4" points="727.31 306.04 736.33 307.33 727.39 302.13 727.31 306.04"/>
            <path class="cls-6" d="M726.62,306.63l.12-5.65,12.91,7.51-13.03-1.85ZM727.99,305.46l5.03.72-4.98-2.9-.05,2.18Z"/>
          </g>
        </g>
        <g>
          <path class="cls-4" d="M651.58,337.52l-2.47-1.44c.08,3.44.56,6.56,1.41,9.3l11.47,6.67-.77-13.47-9.65-1.07Z"/>
          <path class="cls-6" d="M649.96,345.84l-.08-.25c-.87-2.82-1.36-6.01-1.44-9.48l-.03-1.2,3.38,1.97,10.07,1.11.87,15.29-12.78-7.43ZM651.51,338.19l-1.68-.91c.15,2.78.57,5.35,1.25,7.65l10.17,5.91-.66-11.66-9.08-1Z"/>
        </g>
      </g>
      <g>
        <polygon class="cls-4" points="642.37 320.56 653.84 327.23 664.54 321.16 653.07 314.49 642.37 320.56"/>
        <path class="cls-6" d="M641.02,320.55l12.05-6.84,12.82,7.46-12.05,6.84-12.82-7.46ZM653.06,315.26l-9.34,5.31,10.13,5.89,9.34-5.3-10.13-5.89Z"/>
      </g>
      <g>
        <path class="cls-4" d="M653.07,314.49l11.47,6.67,7.6-15.33-11.47-6.67c-3.06,4.83-5.65,10.02-7.6,15.33Z"/>
        <path class="cls-6" d="M652.24,314.78l.19-.53c1.95-5.32,4.53-10.52,7.66-15.46l.35-.55,12.58,7.32-8.2,16.53-12.58-7.32ZM660.89,300.07c-2.83,4.53-5.18,9.27-7,14.12l10.36,6.03,7-14.12-10.37-6.03Z"/>
      </g>
      <g>
        <polygon class="cls-4" points="658.25 288.51 660.67 299.16 672.14 305.83 669.72 295.19 658.25 288.51"/>
        <path class="cls-6" d="M660.08,299.59l-2.83-12.44,13.06,7.6,2.83,12.44-13.06-7.6ZM659.25,289.87l2.01,8.85,9.88,5.75-2.01-8.85-9.88-5.75Z"/>
      </g>
      <g>
        <path class="cls-4" d="M658.25,288.51l11.47,6.67s3.27-2.7,4.33-3.32c.96-.55,2.77-5.29,2.77-5.29l-11.47-6.67-7.1,8.61Z"/>
        <path class="cls-6" d="M657.22,288.7l7.97-9.66,12.46,7.25-.2.53c-.57,1.49-2.01,5.02-3.06,5.63-.83.48-3.35,2.51-4.24,3.25l-.36.3-12.56-7.31ZM665.5,280.78l-6.23,7.55,10.39,6.04c.89-.73,3.17-2.57,4.06-3.08.43-.28,1.47-2.41,2.27-4.42l-10.48-6.1Z"/>
      </g>
      <g>
        <path class="cls-4" d="M672.93,284.31l3.9,2.27,7.5,4.48s7.05,5.18,8.62,6.01c.25-.59.5-1.15.74-1.66,1.76-3.68,1.32-9.04,2.73-12.87l-11.47-6.67c-4.17,2.05-8.22,4.95-12.02,8.45Z"/>
        <path class="cls-6" d="M692.63,297.66c-1.6-.84-8.42-5.85-8.66-6.03l-7.49-4.47-4.68-2.72.67-.62c3.95-3.65,8.05-6.53,12.18-8.56l.32-.16,12.27,7.14-.2.53c-.62,1.69-.87,3.68-1.13,5.79-.31,2.48-.63,5.05-1.62,7.14-.24.5-.48,1.06-.73,1.64l-.29.67-.64-.34ZM684.92,276.63c-3.67,1.85-7.32,4.39-10.86,7.57l10.66,6.32c.06.05,5.67,4.16,7.91,5.59.15-.34.3-.67.45-.98.9-1.89,1.21-4.35,1.5-6.73.23-1.89.48-3.84,1.02-5.55l-10.68-6.21Z"/>
      </g>
      <g>
        <path class="cls-4" d="M672.85,284.38s.05-.04.08-.07l-7.58-4.41,7.5,4.48Z"/>
        <polygon class="cls-6" points="672.93 285.21 673.3 284.88 672.88 284.4 672.88 284.4 673.32 284.86 674.05 284.25 673.26 283.73 665.69 279.33 665 280.48 672.93 285.21"/>
      </g>
      <g>
        <polygon class="cls-4" points="690.6 262.12 690.47 262.43 702.07 268.79 709.85 266.91 698.38 260.24 690.6 262.12"/>
        <path class="cls-6" d="M689.62,262.73l.49-1.19,8.38-2.03,13.15,7.65-9.66,2.34-12.36-6.78ZM698.27,260.95l-6.32,1.53,10.21,5.6,5.9-1.43-9.79-5.7Z"/>
      </g>
      <g>
        <path class="cls-4" d="M725.97,292.77l7.59-13-3.9-5.95-10.39,8.78c-2.66-2.02-5.87-3.16-9.51-3.31l.09-12.38-7.78,1.88-5.66,13.74c-4.2,2.07-8.28,4.98-12.1,8.52l-7.5-4.48-7.1,8.61,2.42,10.65c-3.06,4.83-5.65,10.02-7.6,15.33l-10.7,6.07-2.26,10.29,9.08,1.29c-.31,5.04.17,9.49,1.33,13.25l-7.61,13.03,3.9,5.95,10.41-8.8c2.66,2.02,5.88,3.16,9.52,3.31l-.09,12.34,7.78-1.88,5.64-13.7c4.19-2.06,8.26-4.97,12.07-8.5l7.46,4.45,7.1-8.61-2.4-10.57c3.09-4.86,5.7-10.09,7.66-15.44l10.64-6.04,2.26-10.29-9.03-1.28c.32-5.06-.17-9.52-1.33-13.28ZM693.96,339.91c-8.37,4.83-15.15.91-15.15-8.75,0-9.66,6.78-21.41,15.15-26.24,8.37-4.83,15.15-.92,15.15,8.75,0,9.66-6.78,21.41-15.15,26.24Z"/>
        <path class="cls-6" d="M677.54,366.18c-3.3-.24-6.26-1.28-8.81-3.09l-10.58,8.95-4.55-6.93,7.67-13.14c-1.1-3.7-1.54-7.93-1.31-12.58l-9.19-1.31,2.48-11.29,10.74-6.1c1.91-5.16,4.41-10.2,7.43-14.99l-2.43-10.7,7.68-9.31,7.56,4.51c3.78-3.45,7.7-6.2,11.66-8.18l5.69-13.83,8.95-2.16-.09,12.6c3.3.24,6.26,1.28,8.8,3.09l10.57-8.93,4.55,6.93-7.65,13.11c1.11,3.71,1.55,7.95,1.31,12.61l9.13,1.3-2.48,11.29-10.68,6.06c-1.92,5.19-4.44,10.27-7.49,15.1l2.42,10.62-7.68,9.31-7.53-4.49c-3.77,3.44-7.68,6.18-11.63,8.15l-5.67,13.78-8.95,2.16.09-12.56ZM691.02,361.82l.23-.11c4.04-1.99,8.05-4.81,11.91-8.39l.37-.34,7.4,4.41,6.52-7.91-2.39-10.52.15-.24c3.11-4.88,5.67-10.03,7.6-15.3l.08-.23,10.59-6.01,2.04-9.29-8.92-1.27.04-.62c.3-4.87-.13-9.25-1.31-13.04l-.09-.28,7.53-12.9-3.26-4.96-10.22,8.64-.43-.33c-2.58-1.96-5.65-3.03-9.13-3.17l-.65-.03.09-12.17-6.61,1.6-5.62,13.66-.23.11c-4.05,1.99-8.06,4.82-11.94,8.41l-.37.34-7.44-4.44-6.52,7.91,2.41,10.6-.15.24c-3.08,4.85-5.62,9.96-7.54,15.2l-.08.23-10.65,6.05-2.04,9.29,8.98,1.28-.04.62c-.3,4.86.14,9.23,1.3,13.01l.09.28-7.55,12.92,3.26,4.96,10.24-8.66.43.33c2.58,1.96,5.66,3.03,9.14,3.17l.65.03-.09,12.13,6.61-1.6,5.6-13.62ZM682.91,341.56c-3.08-1.78-4.77-5.47-4.77-10.39,0-9.86,6.95-21.9,15.49-26.83,4.26-2.46,8.31-2.84,11.39-1.06,3.08,1.78,4.77,5.47,4.77,10.39,0,9.86-6.95,21.9-15.49,26.83-2.49,1.44-4.91,2.17-7.11,2.17-1.56,0-3-.37-4.28-1.11ZM694.29,305.5c-8.17,4.72-14.82,16.23-14.82,25.66,0,4.42,1.46,7.7,4.1,9.23,2.64,1.53,6.21,1.15,10.04-1.06,8.17-4.72,14.82-16.23,14.82-25.66,0-4.42-1.46-7.7-4.1-9.23-1.07-.62-2.29-.92-3.61-.92-1.96,0-4.15.67-6.43,1.99Z"/>
      </g>
    </g>
    <g class="cls-3">
      <g>
        <polygon class="cls-6" points="596.19 283.68 584.89 305.13 624.43 299.96 596.19 283.68"/>
        <path class="cls-6" d="M595.93,282.75l30.56,17.62-42.79,5.6,12.23-23.22ZM596.46,284.62l-10.37,19.68,36.28-4.74-25.91-14.94Z"/>
      </g>
      <g>
        <polygon class="cls-6" points="635.73 261.09 624.43 282.54 663.96 277.37 635.73 261.09"/>
        <path class="cls-6" d="M635.46,260.15l30.56,17.62-42.79,5.6,12.23-23.22ZM636,262.02l-10.37,19.68,36.28-4.74-25.91-14.94Z"/>
      </g>
    </g>
  </g>
  <path class="cls-6" d="M765.16,257.59c13.01-10.97,17.66-31.27,10.83-47.2-6.98-15.71-22.05-23.3-36.61-30.65-4.16-2.1-8.46-4.26-12.43-6.57l-.67,1.16c4.01,2.32,8.33,4.5,12.5,6.6,14.36,7.24,29.2,14.72,35.99,29.98,6.6,15.41,2.11,35.03-10.47,45.64l.87,1.03Z"/>
  <path class="cls-6" d="M765.29,260.6c7.16-6.92,11.88-15.8,13.29-25.02l-1.33-.2c-1.37,8.93-5.95,17.54-12.89,24.26l.94.97Z"/>
</svg>