<?xml version="1.0" encoding="UTF-8"?>
<svg id="Capa_1" data-name="Capa 1" xmlns="http://www.w3.org/2000/svg" viewBox="0 0 779.12 880.85">
  <defs>
    <style>
      .cls-1 {
        fill: #f6bd1a;
      }

      .cls-2 {
        opacity: .41;
      }

      .cls-2, .cls-3 {
        fill: #23262a;
      }

      .cls-4 {
        fill: #0779d6;
      }
    </style>
  </defs>
  <g>
    <g>
      <path class="cls-3" d="M481.33,438.91v18.11c.46.04.91.15,1.34.31v-23.49h-1.34c0,6.81-7.88,12.34-17.58,12.34s-17.57-5.54-17.57-12.34h-1.34v2.61h.35c1.69,6.3,9.38,11.07,18.57,11.07,7.96,0,14.79-3.57,17.58-8.62Z"/>
      <path class="cls-3" d="M481.33,433.85h1.34s0-1.66,0-1.66h-1.42s.03.74.03.74c.03.3.05.61.05.92Z"/>
    </g>
    <path class="cls-3" d="M444.84,433.85c0-.36.02-.71.06-1.06.35-3.36,2.51-6.53,6.24-9.14,1.15-.81,4.29-2.09,4.46-2.15,2.56-.88,5.31-1.33,8.16-1.33,9.83,0,18.12,5.55,18.87,12.63.04.35.06.7.06,1.06,0,7.55-8.49,13.69-18.92,13.69s-18.92-6.14-18.92-13.69ZM456.06,422.75c-.87.35-3.31,1.39-4.16,1.99h0c-3.4,2.39-5.36,5.22-5.67,8.19-.03.3-.05.61-.05.92,0,6.8,7.88,12.34,17.57,12.34,9.69,0,17.58-5.54,17.58-12.34,0-.31-.02-.61-.05-.92-.67-6.41-8.37-11.42-17.53-11.42-2.71,0-5.31.42-7.69,1.25Z"/>
  </g>
  <g>
    <polygon class="cls-2" points="473.87 423.8 596.37 353.14 503.67 299.15 502.99 300.31 593.68 353.14 473.2 422.63 473.87 423.8"/>
    <polygon class="cls-3" points="478.14 425.85 595.66 358.26 595.69 352.18 473.2 422.63 473.87 423.8 594.33 354.51 594.32 357.48 477.46 424.69 478.14 425.85"/>
  </g>
  <g>
    <path class="cls-3" d="M473.5,422.86s-.07-.03-.11-.05l74.25-42.7c.1.43.17.81.22,1.2l-73.39,42.21c-.31-.23-.63-.45-.97-.65Z"/>
    <path class="cls-3" d="M473.5,422.86s-.07-.03-.11-.05l74.25-42.7c.1.42.17.81.22,1.2l-73.39,42.21c-.31-.23-.63-.45-.97-.65Z"/>
    <path class="cls-3" d="M476.57,425.5l71.51-41.12c.05.41.13.8.26,1.18l-71.11,40.89c-.2-.32-.42-.64-.67-.94Z"/>
  </g>
  <g>
    <path class="cls-3" d="M563.5,363.48c7.69,0,16.22-2.2,25.54-6.59,1.37-.65,2.58-1.38,3.86-2.17.77-.47,1.56-.96,2.44-1.45l1.02-.58-92.63-53.97-.34.19c-2.26,1.27-4.5,2.43-6.66,3.45-7.44,3.51-14.46,5.6-20.87,6.23l.13,1.34c6.56-.64,13.73-2.78,21.31-6.35,2.08-.98,4.24-2.09,6.41-3.3l89.95,52.41c-.51.3-.99.6-1.47.89-1.25.76-2.43,1.48-3.73,2.1-16.58,7.81-30.56,8.54-41.56,2.15l-.68,1.16c5.15,3,10.92,4.49,17.27,4.49Z"/>
    <path class="cls-3" d="M431.09,292.74l9.17-5.3,93.07,54.09-9.17,5.3-93.07-54.09ZM440.26,289l-6.49,3.75,90.39,52.53,6.49-3.75-90.39-52.53Z"/>
    <path class="cls-3" d="M473.08,423.12c6.99-5.3,13.58-11.46,19.58-18.3,12.77-14.55,20.9-29.92,25.46-40.25,4.16-9.42,6.17-16.42,6.69-18.34l.13-.5-.44-.26-92.49-53.75-.23.85c-.51,1.9-2.5,8.82-6.62,18.15-4.52,10.24-12.58,25.48-25.24,39.91-9.19,10.46-19.63,19.2-31.04,25.96l.69,1.16c11.53-6.84,22.09-15.66,31.36-26.23,12.78-14.55,20.9-29.92,25.46-40.25,3.69-8.35,5.69-14.81,6.46-17.5l90.53,52.61c-.68,2.43-2.67,9-6.49,17.65-4.53,10.25-12.58,25.49-25.24,39.91-5.95,6.78-12.47,12.87-19.39,18.12l.81,1.07Z"/>
    <path class="cls-3" d="M563.29,363.67c9.46,0,20.18-3.35,32.05-10.01l-.66-1.17c-16.72,9.4-31.07,12.08-42.65,7.98-12.73-4.51-18.06-15.78-19.39-19.13l-.29-.72-.69.34-7.83,4.52.67,1.16,7.17-4.14c1.8,4.19,7.44,14.82,19.91,19.24,3.65,1.29,7.56,1.94,11.71,1.94Z"/>
  </g>
  <path class="cls-3" d="M482.68,458.25v-24.41h-1.34v23.98c.47.07.92.21,1.34.43Z"/>
  <path class="cls-4" d="M365.38,483.24c.9.04,1.71.3,2.42.7-.05-.24-.1-.48-.11-.74-.05-.75-.04-1.48,0-2.2v-.4l-40.36-23.26c-15.23-8.78-19.72-26.87-13.47-41.14-9.81,14.75-6.2,36.19,10.82,46l36.07,20.79c1.5-.33,3.09-.01,4.63.26Z"/>
  <path class="cls-3" d="M361.39,482.57l-36.37-20.96c-7.68-4.43-13.01-11.56-15.01-20.09-1.41-5.99-1.05-12.22.92-17.91-2.33,13.42,3.81,27.24,16.07,34.3l40.02,23.08c-.04.79-.04,1.48,0,2.16.26-.02.52-.04.78-.04.19,0,.38.03.56.05,0,0,0,0,0-.01-.04-.65-.04-1.32,0-2.12v-.83s-40.69-23.45-40.69-23.45c-14.03-8.09-19.7-25.41-13.19-40.29l-1.18-.64c-5.03,7.56-6.71,17.04-4.61,26.01,2.09,8.89,7.65,16.33,15.65,20.95l35.4,20.4c.5-.28,1.05-.48,1.64-.61Z"/>
  <path class="cls-4" d="M327.45,400.86l41.18-23.9,26.09,14.83,13.17-6.23c4.84-2.29,10.48-2.08,15.14.56l16.95,9.6c3.98,2.25,3.89,8.01-.15,10.15l-9.84,5.19.41,1,27.93,15.88-90.11,52.41-40.68-23.45c-21.57-12.43-21.62-43.55-.08-56.05Z"/>
  <path class="cls-3" d="M327.19,457.5c-10.34-5.96-16.53-16.65-16.55-28.58-.02-11.94,6.13-22.64,16.46-28.63l41.52-24.09,26.12,14.85,12.86-6.08c5.03-2.38,10.92-2.16,15.76.58l16.95,9.6c2.09,1.18,3.31,3.32,3.27,5.71s-1.32,4.49-3.44,5.61l-9.3,4.91.09.22,28.74,16.34-91.46,53.19-41.02-23.64ZM429.86,412.54l-.73-1.78,10.38-5.48c1.68-.89,2.7-2.55,2.73-4.44.03-1.9-.94-3.59-2.59-4.52l-16.95-9.6c-4.46-2.53-9.88-2.73-14.52-.54l-13.49,6.37-26.06-14.81-40.85,23.71c-9.9,5.75-15.81,16.02-15.79,27.47s5.95,21.7,15.87,27.42l40.35,23.25,88.76-51.63-27.11-15.41Z"/>
  <polygon class="cls-3" points="440.17 439.32 439.62 438.41 439.86 438.28 440.38 439.19 440.17 439.32"/>
  <path class="cls-3" d="M361.22,554.48c-8.5,0-15.42-5-15.42-11.15v-49.73h1.05c0,5.57,6.45,10.1,14.37,10.1s14.37-4.53,14.37-10.1h1.05v49.73c0,6.15-6.92,11.15-15.43,11.15ZM346.85,497.65v45.68c0,5.57,6.45,10.1,14.37,10.1s14.37-4.53,14.37-10.1v-45.68c-2.25,4.15-7.84,7.1-14.37,7.1s-12.12-2.95-14.37-7.1Z"/>
  <path class="cls-3" d="M376.64,493.6h-1.05c0-.25-.01-.5-.04-.75l-.06-.58h1.15v1.33Z"/>
  <path class="cls-3" d="M361.22,504.75c-8.5,0-15.42-5-15.42-11.15,0-.29.02-.58.05-.86.32-3.01,2.34-5.83,5.57-7.75l.54.9c-2.98,1.77-4.77,4.24-5.06,6.96-.03.25-.04.5-.04.75,0,5.57,6.45,10.1,14.37,10.1s14.37-4.53,14.37-10.1c0-.25-.01-.5-.04-.75-.55-5.24-6.85-9.35-14.33-9.35-3.31,0-6.42.77-9,2.23l-.52-.92c2.74-1.55,6.03-2.37,9.52-2.37,8.02,0,14.77,4.52,15.38,10.29.03.28.05.57.05.86,0,6.15-6.92,11.15-15.43,11.15Z"/>
  <polygon class="cls-3" points="351.94 485.9 351.41 484.99 351.69 484.82 352.21 485.74 351.94 485.9"/>
  <polygon class="cls-3" points="484.43 545.36 483.9 544.45 556.78 502.38 460.78 447.23 461.31 446.32 558.89 502.38 484.43 545.36"/>
  <path class="cls-2" d="M444.82,436.85l-80.83,46.61-.16.09c.65-.07,1.3-.04,1.92.11l79.07-45.6"/>
  <path class="cls-2" d="M375.56,489.81c.23.47.37.96.42,1.46l94.07,54.1.52-.91-95.01-54.64Z"/>
  <path class="cls-3" d="M374.71,489.32c.18.45.3.93.36,1.42l94.98,54.62.53-.91-95.87-55.13Z"/>
  <rect class="cls-3" x="420.8" y="468.43" width="1.05" height="104.46" transform="translate(-240.06 626.36) rotate(-60.1)"/>
  <polygon class="cls-3" points="488.9 546.72 488.37 545.81 557.31 506.13 557.31 503.29 485.57 544.7 485.04 543.79 558.36 501.47 558.36 506.74 558.1 506.89 488.9 546.72"/>
  <polygon class="cls-1" points="489.84 493.77 501.49 515.88 460.73 510.55 489.84 493.77"/>
  <polygon class="cls-1" points="449.08 470.47 460.73 492.58 419.97 487.25 449.08 470.47"/>
  <path class="cls-3" d="M487.61,547.14c-1.09-.7-2.31-1.29-3.62-1.74l.34-1c1.4.48,2.69,1.11,3.85,1.85l-.57.88Z"/>
</svg>